<?xml version="1.0" encoding="utf-8" standalone="no"?>
<!DOCTYPE svg PUBLIC "-//W3C//DTD SVG 1.1//EN"
  "http://www.w3.org/Graphics/SVG/1.1/DTD/svg11.dtd">
<svg xmlns:xlink="http://www.w3.org/1999/xlink" width="983.876562pt" height="492.484375pt" viewBox="0 0 983.876562 492.484375" xmlns="http://www.w3.org/2000/svg" version="1.1">
 <metadata>
  <rdf:RDF xmlns:dc="http://purl.org/dc/elements/1.1/" xmlns:cc="http://creativecommons.org/ns#" xmlns:rdf="http://www.w3.org/1999/02/22-rdf-syntax-ns#">
   <cc:Work>
    <dc:type rdf:resource="http://purl.org/dc/dcmitype/StillImage"/>
    <dc:date>2026-05-09T17:13:39.716920</dc:date>
    <dc:format>image/svg+xml</dc:format>
    <dc:creator>
     <cc:Agent>
      <dc:title>Matplotlib v3.6.3, https://matplotlib.org/</dc:title>
     </cc:Agent>
    </dc:creator>
   </cc:Work>
  </rdf:RDF>
 </metadata>
 <defs>
  <style type="text/css">*{stroke-linejoin: round; stroke-linecap: butt}</style>
 </defs>
 <g id="figure_1">
  <g id="patch_1">
   <path d="M 0 492.484375 
L 983.876562 492.484375 
L 983.876562 0 
L 0 0 
z
" style="fill: #ffffff"/>
  </g>
  <g id="axes_1">
   <g id="patch_2">
    <path d="M 222.545313 299.998125 
L 892.145313 299.998125 
L 892.145313 22.798125 
L 222.545313 22.798125 
z
" style="fill: #ffffff"/>
   </g>
   <g id="patch_3">
    <path d="M 222.545313 287.398125 
L 372.595733 287.398125 
L 372.595733 175.398125 
L 222.545313 175.398125 
z
" clip-path="url(#p0af333b9e7)" style="fill: #95a5a6; opacity: 0.85"/>
   </g>
   <g id="patch_4">
    <path d="M 222.545313 147.398125 
L 860.259598 147.398125 
L 860.259598 35.398125 
L 222.545313 35.398125 
z
" clip-path="url(#p0af333b9e7)" style="fill: #3498db; opacity: 0.85"/>
   </g>
   <g id="matplotlib.axis_1">
    <g id="xtick_1">
     <g id="line2d_1">
      <defs>
       <path id="m79dfccaf1b" d="M 0 0 
L 0 3.5 
" style="stroke: #000000; stroke-width: 0.8"/>
      </defs>
      <g>
       <use xlink:href="#m79dfccaf1b" x="222.545313" y="299.998125" style="stroke: #000000; stroke-width: 0.8"/>
      </g>
     </g>
     <g id="text_1">
      <!-- 0 -->
      <g transform="translate(219.364063 314.596562) scale(0.1 -0.1)">
       <defs>
        <path id="DejaVuSans-30" d="M 2034 4250 
Q 1547 4250 1301 3770 
Q 1056 3291 1056 2328 
Q 1056 1369 1301 889 
Q 1547 409 2034 409 
Q 2525 409 2770 889 
Q 3016 1369 3016 2328 
Q 3016 3291 2770 3770 
Q 2525 4250 2034 4250 
z
M 2034 4750 
Q 2819 4750 3233 4129 
Q 3647 3509 3647 2328 
Q 3647 1150 3233 529 
Q 2819 -91 2034 -91 
Q 1250 -91 836 529 
Q 422 1150 422 2328 
Q 422 3509 836 4129 
Q 1250 4750 2034 4750 
z
" transform="scale(0.015625)"/>
       </defs>
       <use xlink:href="#DejaVuSans-30"/>
      </g>
     </g>
    </g>
    <g id="xtick_2">
     <g id="line2d_2">
      <g>
       <use xlink:href="#m79dfccaf1b" x="316.326825" y="299.998125" style="stroke: #000000; stroke-width: 0.8"/>
      </g>
     </g>
     <g id="text_2">
      <!-- 5 -->
      <g transform="translate(313.145575 314.596562) scale(0.1 -0.1)">
       <defs>
        <path id="DejaVuSans-35" d="M 691 4666 
L 3169 4666 
L 3169 4134 
L 1269 4134 
L 1269 2991 
Q 1406 3038 1543 3061 
Q 1681 3084 1819 3084 
Q 2600 3084 3056 2656 
Q 3513 2228 3513 1497 
Q 3513 744 3044 326 
Q 2575 -91 1722 -91 
Q 1428 -91 1123 -41 
Q 819 9 494 109 
L 494 744 
Q 775 591 1075 516 
Q 1375 441 1709 441 
Q 2250 441 2565 725 
Q 2881 1009 2881 1497 
Q 2881 1984 2565 2268 
Q 2250 2553 1709 2553 
Q 1456 2553 1204 2497 
Q 953 2441 691 2322 
L 691 4666 
z
" transform="scale(0.015625)"/>
       </defs>
       <use xlink:href="#DejaVuSans-35"/>
      </g>
     </g>
    </g>
    <g id="xtick_3">
     <g id="line2d_3">
      <g>
       <use xlink:href="#m79dfccaf1b" x="410.108338" y="299.998125" style="stroke: #000000; stroke-width: 0.8"/>
      </g>
     </g>
     <g id="text_3">
      <!-- 10 -->
      <g transform="translate(403.745838 314.596562) scale(0.1 -0.1)">
       <defs>
        <path id="DejaVuSans-31" d="M 794 531 
L 1825 531 
L 1825 4091 
L 703 3866 
L 703 4441 
L 1819 4666 
L 2450 4666 
L 2450 531 
L 3481 531 
L 3481 0 
L 794 0 
L 794 531 
z
" transform="scale(0.015625)"/>
       </defs>
       <use xlink:href="#DejaVuSans-31"/>
       <use xlink:href="#DejaVuSans-30" x="63.623047"/>
      </g>
     </g>
    </g>
    <g id="xtick_4">
     <g id="line2d_4">
      <g>
       <use xlink:href="#m79dfccaf1b" x="503.88985" y="299.998125" style="stroke: #000000; stroke-width: 0.8"/>
      </g>
     </g>
     <g id="text_4">
      <!-- 15 -->
      <g transform="translate(497.52735 314.596562) scale(0.1 -0.1)">
       <use xlink:href="#DejaVuSans-31"/>
       <use xlink:href="#DejaVuSans-35" x="63.623047"/>
      </g>
     </g>
    </g>
    <g id="xtick_5">
     <g id="line2d_5">
      <g>
       <use xlink:href="#m79dfccaf1b" x="597.671363" y="299.998125" style="stroke: #000000; stroke-width: 0.8"/>
      </g>
     </g>
     <g id="text_5">
      <!-- 20 -->
      <g transform="translate(591.308863 314.596562) scale(0.1 -0.1)">
       <defs>
        <path id="DejaVuSans-32" d="M 1228 531 
L 3431 531 
L 3431 0 
L 469 0 
L 469 531 
Q 828 903 1448 1529 
Q 2069 2156 2228 2338 
Q 2531 2678 2651 2914 
Q 2772 3150 2772 3378 
Q 2772 3750 2511 3984 
Q 2250 4219 1831 4219 
Q 1534 4219 1204 4116 
Q 875 4013 500 3803 
L 500 4441 
Q 881 4594 1212 4672 
Q 1544 4750 1819 4750 
Q 2544 4750 2975 4387 
Q 3406 4025 3406 3419 
Q 3406 3131 3298 2873 
Q 3191 2616 2906 2266 
Q 2828 2175 2409 1742 
Q 1991 1309 1228 531 
z
" transform="scale(0.015625)"/>
       </defs>
       <use xlink:href="#DejaVuSans-32"/>
       <use xlink:href="#DejaVuSans-30" x="63.623047"/>
      </g>
     </g>
    </g>
    <g id="xtick_6">
     <g id="line2d_6">
      <g>
       <use xlink:href="#m79dfccaf1b" x="691.452876" y="299.998125" style="stroke: #000000; stroke-width: 0.8"/>
      </g>
     </g>
     <g id="text_6">
      <!-- 25 -->
      <g transform="translate(685.090376 314.596562) scale(0.1 -0.1)">
       <use xlink:href="#DejaVuSans-32"/>
       <use xlink:href="#DejaVuSans-35" x="63.623047"/>
      </g>
     </g>
    </g>
    <g id="xtick_7">
     <g id="line2d_7">
      <g>
       <use xlink:href="#m79dfccaf1b" x="785.234388" y="299.998125" style="stroke: #000000; stroke-width: 0.8"/>
      </g>
     </g>
     <g id="text_7">
      <!-- 30 -->
      <g transform="translate(778.871888 314.596562) scale(0.1 -0.1)">
       <defs>
        <path id="DejaVuSans-33" d="M 2597 2516 
Q 3050 2419 3304 2112 
Q 3559 1806 3559 1356 
Q 3559 666 3084 287 
Q 2609 -91 1734 -91 
Q 1441 -91 1130 -33 
Q 819 25 488 141 
L 488 750 
Q 750 597 1062 519 
Q 1375 441 1716 441 
Q 2309 441 2620 675 
Q 2931 909 2931 1356 
Q 2931 1769 2642 2001 
Q 2353 2234 1838 2234 
L 1294 2234 
L 1294 2753 
L 1863 2753 
Q 2328 2753 2575 2939 
Q 2822 3125 2822 3475 
Q 2822 3834 2567 4026 
Q 2313 4219 1838 4219 
Q 1578 4219 1281 4162 
Q 984 4106 628 3988 
L 628 4550 
Q 988 4650 1302 4700 
Q 1616 4750 1894 4750 
Q 2613 4750 3031 4423 
Q 3450 4097 3450 3541 
Q 3450 3153 3228 2886 
Q 3006 2619 2597 2516 
z
" transform="scale(0.015625)"/>
       </defs>
       <use xlink:href="#DejaVuSans-33"/>
       <use xlink:href="#DejaVuSans-30" x="63.623047"/>
      </g>
     </g>
    </g>
    <g id="xtick_8">
     <g id="line2d_8">
      <g>
       <use xlink:href="#m79dfccaf1b" x="879.015901" y="299.998125" style="stroke: #000000; stroke-width: 0.8"/>
      </g>
     </g>
     <g id="text_8">
      <!-- 35 -->
      <g transform="translate(872.653401 314.596562) scale(0.1 -0.1)">
       <use xlink:href="#DejaVuSans-33"/>
       <use xlink:href="#DejaVuSans-35" x="63.623047"/>
      </g>
     </g>
    </g>
    <g id="text_9">
     <!-- Número de países (total: 42) -->
     <g transform="translate(485.585156 328.674687) scale(0.1 -0.1)">
      <defs>
       <path id="DejaVuSans-4e" d="M 628 4666 
L 1478 4666 
L 3547 763 
L 3547 4666 
L 4159 4666 
L 4159 0 
L 3309 0 
L 1241 3903 
L 1241 0 
L 628 0 
L 628 4666 
z
" transform="scale(0.015625)"/>
       <path id="DejaVuSans-fa" d="M 544 1381 
L 544 3500 
L 1119 3500 
L 1119 1403 
Q 1119 906 1312 657 
Q 1506 409 1894 409 
Q 2359 409 2629 706 
Q 2900 1003 2900 1516 
L 2900 3500 
L 3475 3500 
L 3475 0 
L 2900 0 
L 2900 538 
Q 2691 219 2414 64 
Q 2138 -91 1772 -91 
Q 1169 -91 856 284 
Q 544 659 544 1381 
z
M 1991 3584 
L 1991 3584 
z
M 2419 5119 
L 3041 5119 
L 2022 3944 
L 1544 3944 
L 2419 5119 
z
" transform="scale(0.015625)"/>
       <path id="DejaVuSans-6d" d="M 3328 2828 
Q 3544 3216 3844 3400 
Q 4144 3584 4550 3584 
Q 5097 3584 5394 3201 
Q 5691 2819 5691 2113 
L 5691 0 
L 5113 0 
L 5113 2094 
Q 5113 2597 4934 2840 
Q 4756 3084 4391 3084 
Q 3944 3084 3684 2787 
Q 3425 2491 3425 1978 
L 3425 0 
L 2847 0 
L 2847 2094 
Q 2847 2600 2669 2842 
Q 2491 3084 2119 3084 
Q 1678 3084 1418 2786 
Q 1159 2488 1159 1978 
L 1159 0 
L 581 0 
L 581 3500 
L 1159 3500 
L 1159 2956 
Q 1356 3278 1631 3431 
Q 1906 3584 2284 3584 
Q 2666 3584 2933 3390 
Q 3200 3197 3328 2828 
z
" transform="scale(0.015625)"/>
       <path id="DejaVuSans-65" d="M 3597 1894 
L 3597 1613 
L 953 1613 
Q 991 1019 1311 708 
Q 1631 397 2203 397 
Q 2534 397 2845 478 
Q 3156 559 3463 722 
L 3463 178 
Q 3153 47 2828 -22 
Q 2503 -91 2169 -91 
Q 1331 -91 842 396 
Q 353 884 353 1716 
Q 353 2575 817 3079 
Q 1281 3584 2069 3584 
Q 2775 3584 3186 3129 
Q 3597 2675 3597 1894 
z
M 3022 2063 
Q 3016 2534 2758 2815 
Q 2500 3097 2075 3097 
Q 1594 3097 1305 2825 
Q 1016 2553 972 2059 
L 3022 2063 
z
" transform="scale(0.015625)"/>
       <path id="DejaVuSans-72" d="M 2631 2963 
Q 2534 3019 2420 3045 
Q 2306 3072 2169 3072 
Q 1681 3072 1420 2755 
Q 1159 2438 1159 1844 
L 1159 0 
L 581 0 
L 581 3500 
L 1159 3500 
L 1159 2956 
Q 1341 3275 1631 3429 
Q 1922 3584 2338 3584 
Q 2397 3584 2469 3576 
Q 2541 3569 2628 3553 
L 2631 2963 
z
" transform="scale(0.015625)"/>
       <path id="DejaVuSans-6f" d="M 1959 3097 
Q 1497 3097 1228 2736 
Q 959 2375 959 1747 
Q 959 1119 1226 758 
Q 1494 397 1959 397 
Q 2419 397 2687 759 
Q 2956 1122 2956 1747 
Q 2956 2369 2687 2733 
Q 2419 3097 1959 3097 
z
M 1959 3584 
Q 2709 3584 3137 3096 
Q 3566 2609 3566 1747 
Q 3566 888 3137 398 
Q 2709 -91 1959 -91 
Q 1206 -91 779 398 
Q 353 888 353 1747 
Q 353 2609 779 3096 
Q 1206 3584 1959 3584 
z
" transform="scale(0.015625)"/>
       <path id="DejaVuSans-20" transform="scale(0.015625)"/>
       <path id="DejaVuSans-64" d="M 2906 2969 
L 2906 4863 
L 3481 4863 
L 3481 0 
L 2906 0 
L 2906 525 
Q 2725 213 2448 61 
Q 2172 -91 1784 -91 
Q 1150 -91 751 415 
Q 353 922 353 1747 
Q 353 2572 751 3078 
Q 1150 3584 1784 3584 
Q 2172 3584 2448 3432 
Q 2725 3281 2906 2969 
z
M 947 1747 
Q 947 1113 1208 752 
Q 1469 391 1925 391 
Q 2381 391 2643 752 
Q 2906 1113 2906 1747 
Q 2906 2381 2643 2742 
Q 2381 3103 1925 3103 
Q 1469 3103 1208 2742 
Q 947 2381 947 1747 
z
" transform="scale(0.015625)"/>
       <path id="DejaVuSans-70" d="M 1159 525 
L 1159 -1331 
L 581 -1331 
L 581 3500 
L 1159 3500 
L 1159 2969 
Q 1341 3281 1617 3432 
Q 1894 3584 2278 3584 
Q 2916 3584 3314 3078 
Q 3713 2572 3713 1747 
Q 3713 922 3314 415 
Q 2916 -91 2278 -91 
Q 1894 -91 1617 61 
Q 1341 213 1159 525 
z
M 3116 1747 
Q 3116 2381 2855 2742 
Q 2594 3103 2138 3103 
Q 1681 3103 1420 2742 
Q 1159 2381 1159 1747 
Q 1159 1113 1420 752 
Q 1681 391 2138 391 
Q 2594 391 2855 752 
Q 3116 1113 3116 1747 
z
" transform="scale(0.015625)"/>
       <path id="DejaVuSans-61" d="M 2194 1759 
Q 1497 1759 1228 1600 
Q 959 1441 959 1056 
Q 959 750 1161 570 
Q 1363 391 1709 391 
Q 2188 391 2477 730 
Q 2766 1069 2766 1631 
L 2766 1759 
L 2194 1759 
z
M 3341 1997 
L 3341 0 
L 2766 0 
L 2766 531 
Q 2569 213 2275 61 
Q 1981 -91 1556 -91 
Q 1019 -91 701 211 
Q 384 513 384 1019 
Q 384 1609 779 1909 
Q 1175 2209 1959 2209 
L 2766 2209 
L 2766 2266 
Q 2766 2663 2505 2880 
Q 2244 3097 1772 3097 
Q 1472 3097 1187 3025 
Q 903 2953 641 2809 
L 641 3341 
Q 956 3463 1253 3523 
Q 1550 3584 1831 3584 
Q 2591 3584 2966 3190 
Q 3341 2797 3341 1997 
z
" transform="scale(0.015625)"/>
       <path id="DejaVuSans-ed" d="M 1325 5119 
L 1947 5119 
L 928 3944 
L 450 3944 
L 1325 5119 
z
M 603 3500 
L 1178 3500 
L 1178 0 
L 603 0 
L 603 3500 
z
M 891 3584 
L 891 3584 
z
" transform="scale(0.015625)"/>
       <path id="DejaVuSans-73" d="M 2834 3397 
L 2834 2853 
Q 2591 2978 2328 3040 
Q 2066 3103 1784 3103 
Q 1356 3103 1142 2972 
Q 928 2841 928 2578 
Q 928 2378 1081 2264 
Q 1234 2150 1697 2047 
L 1894 2003 
Q 2506 1872 2764 1633 
Q 3022 1394 3022 966 
Q 3022 478 2636 193 
Q 2250 -91 1575 -91 
Q 1294 -91 989 -36 
Q 684 19 347 128 
L 347 722 
Q 666 556 975 473 
Q 1284 391 1588 391 
Q 1994 391 2212 530 
Q 2431 669 2431 922 
Q 2431 1156 2273 1281 
Q 2116 1406 1581 1522 
L 1381 1569 
Q 847 1681 609 1914 
Q 372 2147 372 2553 
Q 372 3047 722 3315 
Q 1072 3584 1716 3584 
Q 2034 3584 2315 3537 
Q 2597 3491 2834 3397 
z
" transform="scale(0.015625)"/>
       <path id="DejaVuSans-28" d="M 1984 4856 
Q 1566 4138 1362 3434 
Q 1159 2731 1159 2009 
Q 1159 1288 1364 580 
Q 1569 -128 1984 -844 
L 1484 -844 
Q 1016 -109 783 600 
Q 550 1309 550 2009 
Q 550 2706 781 3412 
Q 1013 4119 1484 4856 
L 1984 4856 
z
" transform="scale(0.015625)"/>
       <path id="DejaVuSans-74" d="M 1172 4494 
L 1172 3500 
L 2356 3500 
L 2356 3053 
L 1172 3053 
L 1172 1153 
Q 1172 725 1289 603 
Q 1406 481 1766 481 
L 2356 481 
L 2356 0 
L 1766 0 
Q 1100 0 847 248 
Q 594 497 594 1153 
L 594 3053 
L 172 3053 
L 172 3500 
L 594 3500 
L 594 4494 
L 1172 4494 
z
" transform="scale(0.015625)"/>
       <path id="DejaVuSans-6c" d="M 603 4863 
L 1178 4863 
L 1178 0 
L 603 0 
L 603 4863 
z
" transform="scale(0.015625)"/>
       <path id="DejaVuSans-3a" d="M 750 794 
L 1409 794 
L 1409 0 
L 750 0 
L 750 794 
z
M 750 3309 
L 1409 3309 
L 1409 2516 
L 750 2516 
L 750 3309 
z
" transform="scale(0.015625)"/>
       <path id="DejaVuSans-34" d="M 2419 4116 
L 825 1625 
L 2419 1625 
L 2419 4116 
z
M 2253 4666 
L 3047 4666 
L 3047 1625 
L 3713 1625 
L 3713 1100 
L 3047 1100 
L 3047 0 
L 2419 0 
L 2419 1100 
L 313 1100 
L 313 1709 
L 2253 4666 
z
" transform="scale(0.015625)"/>
       <path id="DejaVuSans-29" d="M 513 4856 
L 1013 4856 
Q 1481 4119 1714 3412 
Q 1947 2706 1947 2009 
Q 1947 1309 1714 600 
Q 1481 -109 1013 -844 
L 513 -844 
Q 928 -128 1133 580 
Q 1338 1288 1338 2009 
Q 1338 2731 1133 3434 
Q 928 4138 513 4856 
z
" transform="scale(0.015625)"/>
      </defs>
      <use xlink:href="#DejaVuSans-4e"/>
      <use xlink:href="#DejaVuSans-fa" x="74.804688"/>
      <use xlink:href="#DejaVuSans-6d" x="138.183594"/>
      <use xlink:href="#DejaVuSans-65" x="235.595703"/>
      <use xlink:href="#DejaVuSans-72" x="297.119141"/>
      <use xlink:href="#DejaVuSans-6f" x="335.982422"/>
      <use xlink:href="#DejaVuSans-20" x="397.164062"/>
      <use xlink:href="#DejaVuSans-64" x="428.951172"/>
      <use xlink:href="#DejaVuSans-65" x="492.427734"/>
      <use xlink:href="#DejaVuSans-20" x="553.951172"/>
      <use xlink:href="#DejaVuSans-70" x="585.738281"/>
      <use xlink:href="#DejaVuSans-61" x="649.214844"/>
      <use xlink:href="#DejaVuSans-ed" x="710.494141"/>
      <use xlink:href="#DejaVuSans-73" x="738.277344"/>
      <use xlink:href="#DejaVuSans-65" x="790.376953"/>
      <use xlink:href="#DejaVuSans-73" x="851.900391"/>
      <use xlink:href="#DejaVuSans-20" x="904"/>
      <use xlink:href="#DejaVuSans-28" x="935.787109"/>
      <use xlink:href="#DejaVuSans-74" x="974.800781"/>
      <use xlink:href="#DejaVuSans-6f" x="1014.009766"/>
      <use xlink:href="#DejaVuSans-74" x="1075.191406"/>
      <use xlink:href="#DejaVuSans-61" x="1114.400391"/>
      <use xlink:href="#DejaVuSans-6c" x="1175.679688"/>
      <use xlink:href="#DejaVuSans-3a" x="1203.462891"/>
      <use xlink:href="#DejaVuSans-20" x="1237.154297"/>
      <use xlink:href="#DejaVuSans-34" x="1268.941406"/>
      <use xlink:href="#DejaVuSans-32" x="1332.564453"/>
      <use xlink:href="#DejaVuSans-29" x="1396.1875"/>
     </g>
    </g>
   </g>
   <g id="matplotlib.axis_2">
    <g id="ytick_1">
     <g id="line2d_9">
      <defs>
       <path id="m2c97cdeefd" d="M 0 0 
L -3.5 0 
" style="stroke: #000000; stroke-width: 0.8"/>
      </defs>
      <g>
       <use xlink:href="#m2c97cdeefd" x="222.545313" y="231.398125" style="stroke: #000000; stroke-width: 0.8"/>
      </g>
     </g>
     <g id="text_10">
      <!-- Cluster 1: proyecto de ley IA en curso (pragmático) -->
      <g transform="translate(23.213672 234.397539) scale(0.075 -0.075)">
       <defs>
        <path id="DejaVuSans-43" d="M 4122 4306 
L 4122 3641 
Q 3803 3938 3442 4084 
Q 3081 4231 2675 4231 
Q 1875 4231 1450 3742 
Q 1025 3253 1025 2328 
Q 1025 1406 1450 917 
Q 1875 428 2675 428 
Q 3081 428 3442 575 
Q 3803 722 4122 1019 
L 4122 359 
Q 3791 134 3420 21 
Q 3050 -91 2638 -91 
Q 1578 -91 968 557 
Q 359 1206 359 2328 
Q 359 3453 968 4101 
Q 1578 4750 2638 4750 
Q 3056 4750 3426 4639 
Q 3797 4528 4122 4306 
z
" transform="scale(0.015625)"/>
        <path id="DejaVuSans-75" d="M 544 1381 
L 544 3500 
L 1119 3500 
L 1119 1403 
Q 1119 906 1312 657 
Q 1506 409 1894 409 
Q 2359 409 2629 706 
Q 2900 1003 2900 1516 
L 2900 3500 
L 3475 3500 
L 3475 0 
L 2900 0 
L 2900 538 
Q 2691 219 2414 64 
Q 2138 -91 1772 -91 
Q 1169 -91 856 284 
Q 544 659 544 1381 
z
M 1991 3584 
L 1991 3584 
z
" transform="scale(0.015625)"/>
        <path id="DejaVuSans-79" d="M 2059 -325 
Q 1816 -950 1584 -1140 
Q 1353 -1331 966 -1331 
L 506 -1331 
L 506 -850 
L 844 -850 
Q 1081 -850 1212 -737 
Q 1344 -625 1503 -206 
L 1606 56 
L 191 3500 
L 800 3500 
L 1894 763 
L 2988 3500 
L 3597 3500 
L 2059 -325 
z
" transform="scale(0.015625)"/>
        <path id="DejaVuSans-63" d="M 3122 3366 
L 3122 2828 
Q 2878 2963 2633 3030 
Q 2388 3097 2138 3097 
Q 1578 3097 1268 2742 
Q 959 2388 959 1747 
Q 959 1106 1268 751 
Q 1578 397 2138 397 
Q 2388 397 2633 464 
Q 2878 531 3122 666 
L 3122 134 
Q 2881 22 2623 -34 
Q 2366 -91 2075 -91 
Q 1284 -91 818 406 
Q 353 903 353 1747 
Q 353 2603 823 3093 
Q 1294 3584 2113 3584 
Q 2378 3584 2631 3529 
Q 2884 3475 3122 3366 
z
" transform="scale(0.015625)"/>
        <path id="DejaVuSans-49" d="M 628 4666 
L 1259 4666 
L 1259 0 
L 628 0 
L 628 4666 
z
" transform="scale(0.015625)"/>
        <path id="DejaVuSans-41" d="M 2188 4044 
L 1331 1722 
L 3047 1722 
L 2188 4044 
z
M 1831 4666 
L 2547 4666 
L 4325 0 
L 3669 0 
L 3244 1197 
L 1141 1197 
L 716 0 
L 50 0 
L 1831 4666 
z
" transform="scale(0.015625)"/>
        <path id="DejaVuSans-6e" d="M 3513 2113 
L 3513 0 
L 2938 0 
L 2938 2094 
Q 2938 2591 2744 2837 
Q 2550 3084 2163 3084 
Q 1697 3084 1428 2787 
Q 1159 2491 1159 1978 
L 1159 0 
L 581 0 
L 581 3500 
L 1159 3500 
L 1159 2956 
Q 1366 3272 1645 3428 
Q 1925 3584 2291 3584 
Q 2894 3584 3203 3211 
Q 3513 2838 3513 2113 
z
" transform="scale(0.015625)"/>
        <path id="DejaVuSans-67" d="M 2906 1791 
Q 2906 2416 2648 2759 
Q 2391 3103 1925 3103 
Q 1463 3103 1205 2759 
Q 947 2416 947 1791 
Q 947 1169 1205 825 
Q 1463 481 1925 481 
Q 2391 481 2648 825 
Q 2906 1169 2906 1791 
z
M 3481 434 
Q 3481 -459 3084 -895 
Q 2688 -1331 1869 -1331 
Q 1566 -1331 1297 -1286 
Q 1028 -1241 775 -1147 
L 775 -588 
Q 1028 -725 1275 -790 
Q 1522 -856 1778 -856 
Q 2344 -856 2625 -561 
Q 2906 -266 2906 331 
L 2906 616 
Q 2728 306 2450 153 
Q 2172 0 1784 0 
Q 1141 0 747 490 
Q 353 981 353 1791 
Q 353 2603 747 3093 
Q 1141 3584 1784 3584 
Q 2172 3584 2450 3431 
Q 2728 3278 2906 2969 
L 2906 3500 
L 3481 3500 
L 3481 434 
z
" transform="scale(0.015625)"/>
        <path id="DejaVuSans-e1" d="M 2194 1759 
Q 1497 1759 1228 1600 
Q 959 1441 959 1056 
Q 959 750 1161 570 
Q 1363 391 1709 391 
Q 2188 391 2477 730 
Q 2766 1069 2766 1631 
L 2766 1759 
L 2194 1759 
z
M 3341 1997 
L 3341 0 
L 2766 0 
L 2766 531 
Q 2569 213 2275 61 
Q 1981 -91 1556 -91 
Q 1019 -91 701 211 
Q 384 513 384 1019 
Q 384 1609 779 1909 
Q 1175 2209 1959 2209 
L 2766 2209 
L 2766 2266 
Q 2766 2663 2505 2880 
Q 2244 3097 1772 3097 
Q 1472 3097 1187 3025 
Q 903 2953 641 2809 
L 641 3341 
Q 956 3463 1253 3523 
Q 1550 3584 1831 3584 
Q 2591 3584 2966 3190 
Q 3341 2797 3341 1997 
z
M 2291 5119 
L 2913 5119 
L 1894 3944 
L 1416 3944 
L 2291 5119 
z
" transform="scale(0.015625)"/>
        <path id="DejaVuSans-69" d="M 603 3500 
L 1178 3500 
L 1178 0 
L 603 0 
L 603 3500 
z
M 603 4863 
L 1178 4863 
L 1178 4134 
L 603 4134 
L 603 4863 
z
" transform="scale(0.015625)"/>
       </defs>
       <use xlink:href="#DejaVuSans-43"/>
       <use xlink:href="#DejaVuSans-6c" x="69.824219"/>
       <use xlink:href="#DejaVuSans-75" x="97.607422"/>
       <use xlink:href="#DejaVuSans-73" x="160.986328"/>
       <use xlink:href="#DejaVuSans-74" x="213.085938"/>
       <use xlink:href="#DejaVuSans-65" x="252.294922"/>
       <use xlink:href="#DejaVuSans-72" x="313.818359"/>
       <use xlink:href="#DejaVuSans-20" x="354.931641"/>
       <use xlink:href="#DejaVuSans-31" x="386.71875"/>
       <use xlink:href="#DejaVuSans-3a" x="450.341797"/>
       <use xlink:href="#DejaVuSans-20" x="484.033203"/>
       <use xlink:href="#DejaVuSans-70" x="515.820312"/>
       <use xlink:href="#DejaVuSans-72" x="579.296875"/>
       <use xlink:href="#DejaVuSans-6f" x="618.160156"/>
       <use xlink:href="#DejaVuSans-79" x="679.341797"/>
       <use xlink:href="#DejaVuSans-65" x="738.521484"/>
       <use xlink:href="#DejaVuSans-63" x="800.044922"/>
       <use xlink:href="#DejaVuSans-74" x="855.025391"/>
       <use xlink:href="#DejaVuSans-6f" x="894.234375"/>
       <use xlink:href="#DejaVuSans-20" x="955.416016"/>
       <use xlink:href="#DejaVuSans-64" x="987.203125"/>
       <use xlink:href="#DejaVuSans-65" x="1050.679688"/>
       <use xlink:href="#DejaVuSans-20" x="1112.203125"/>
       <use xlink:href="#DejaVuSans-6c" x="1143.990234"/>
       <use xlink:href="#DejaVuSans-65" x="1171.773438"/>
       <use xlink:href="#DejaVuSans-79" x="1233.296875"/>
       <use xlink:href="#DejaVuSans-20" x="1292.476562"/>
       <use xlink:href="#DejaVuSans-49" x="1324.263672"/>
       <use xlink:href="#DejaVuSans-41" x="1353.755859"/>
       <use xlink:href="#DejaVuSans-20" x="1422.164062"/>
       <use xlink:href="#DejaVuSans-65" x="1453.951172"/>
       <use xlink:href="#DejaVuSans-6e" x="1515.474609"/>
       <use xlink:href="#DejaVuSans-20" x="1578.853516"/>
       <use xlink:href="#DejaVuSans-63" x="1610.640625"/>
       <use xlink:href="#DejaVuSans-75" x="1665.621094"/>
       <use xlink:href="#DejaVuSans-72" x="1729"/>
       <use xlink:href="#DejaVuSans-73" x="1770.113281"/>
       <use xlink:href="#DejaVuSans-6f" x="1822.212891"/>
       <use xlink:href="#DejaVuSans-20" x="1883.394531"/>
       <use xlink:href="#DejaVuSans-28" x="1915.181641"/>
       <use xlink:href="#DejaVuSans-70" x="1954.195312"/>
       <use xlink:href="#DejaVuSans-72" x="2017.671875"/>
       <use xlink:href="#DejaVuSans-61" x="2058.785156"/>
       <use xlink:href="#DejaVuSans-67" x="2120.064453"/>
       <use xlink:href="#DejaVuSans-6d" x="2183.541016"/>
       <use xlink:href="#DejaVuSans-e1" x="2280.953125"/>
       <use xlink:href="#DejaVuSans-74" x="2342.232422"/>
       <use xlink:href="#DejaVuSans-69" x="2381.441406"/>
       <use xlink:href="#DejaVuSans-63" x="2409.224609"/>
       <use xlink:href="#DejaVuSans-6f" x="2464.205078"/>
       <use xlink:href="#DejaVuSans-29" x="2525.386719"/>
      </g>
     </g>
    </g>
    <g id="ytick_2">
     <g id="line2d_10">
      <g>
       <use xlink:href="#m2c97cdeefd" x="222.545313" y="91.398125" style="stroke: #000000; stroke-width: 0.8"/>
      </g>
     </g>
     <g id="text_11">
      <!-- Cluster 0: sin ley ni proyecto IA (soft-law / sin proyecto) -->
      <g transform="translate(7.2 94.247539) scale(0.075 -0.075)">
       <defs>
        <path id="DejaVuSans-66" d="M 2375 4863 
L 2375 4384 
L 1825 4384 
Q 1516 4384 1395 4259 
Q 1275 4134 1275 3809 
L 1275 3500 
L 2222 3500 
L 2222 3053 
L 1275 3053 
L 1275 0 
L 697 0 
L 697 3053 
L 147 3053 
L 147 3500 
L 697 3500 
L 697 3744 
Q 697 4328 969 4595 
Q 1241 4863 1831 4863 
L 2375 4863 
z
" transform="scale(0.015625)"/>
        <path id="DejaVuSans-2d" d="M 313 2009 
L 1997 2009 
L 1997 1497 
L 313 1497 
L 313 2009 
z
" transform="scale(0.015625)"/>
        <path id="DejaVuSans-77" d="M 269 3500 
L 844 3500 
L 1563 769 
L 2278 3500 
L 2956 3500 
L 3675 769 
L 4391 3500 
L 4966 3500 
L 4050 0 
L 3372 0 
L 2619 2869 
L 1863 0 
L 1184 0 
L 269 3500 
z
" transform="scale(0.015625)"/>
        <path id="DejaVuSans-2f" d="M 1625 4666 
L 2156 4666 
L 531 -594 
L 0 -594 
L 1625 4666 
z
" transform="scale(0.015625)"/>
       </defs>
       <use xlink:href="#DejaVuSans-43"/>
       <use xlink:href="#DejaVuSans-6c" x="69.824219"/>
       <use xlink:href="#DejaVuSans-75" x="97.607422"/>
       <use xlink:href="#DejaVuSans-73" x="160.986328"/>
       <use xlink:href="#DejaVuSans-74" x="213.085938"/>
       <use xlink:href="#DejaVuSans-65" x="252.294922"/>
       <use xlink:href="#DejaVuSans-72" x="313.818359"/>
       <use xlink:href="#DejaVuSans-20" x="354.931641"/>
       <use xlink:href="#DejaVuSans-30" x="386.71875"/>
       <use xlink:href="#DejaVuSans-3a" x="450.341797"/>
       <use xlink:href="#DejaVuSans-20" x="484.033203"/>
       <use xlink:href="#DejaVuSans-73" x="515.820312"/>
       <use xlink:href="#DejaVuSans-69" x="567.919922"/>
       <use xlink:href="#DejaVuSans-6e" x="595.703125"/>
       <use xlink:href="#DejaVuSans-20" x="659.082031"/>
       <use xlink:href="#DejaVuSans-6c" x="690.869141"/>
       <use xlink:href="#DejaVuSans-65" x="718.652344"/>
       <use xlink:href="#DejaVuSans-79" x="780.175781"/>
       <use xlink:href="#DejaVuSans-20" x="839.355469"/>
       <use xlink:href="#DejaVuSans-6e" x="871.142578"/>
       <use xlink:href="#DejaVuSans-69" x="934.521484"/>
       <use xlink:href="#DejaVuSans-20" x="962.304688"/>
       <use xlink:href="#DejaVuSans-70" x="994.091797"/>
       <use xlink:href="#DejaVuSans-72" x="1057.568359"/>
       <use xlink:href="#DejaVuSans-6f" x="1096.431641"/>
       <use xlink:href="#DejaVuSans-79" x="1157.613281"/>
       <use xlink:href="#DejaVuSans-65" x="1216.792969"/>
       <use xlink:href="#DejaVuSans-63" x="1278.316406"/>
       <use xlink:href="#DejaVuSans-74" x="1333.296875"/>
       <use xlink:href="#DejaVuSans-6f" x="1372.505859"/>
       <use xlink:href="#DejaVuSans-20" x="1433.6875"/>
       <use xlink:href="#DejaVuSans-49" x="1465.474609"/>
       <use xlink:href="#DejaVuSans-41" x="1494.966797"/>
       <use xlink:href="#DejaVuSans-20" x="1563.375"/>
       <use xlink:href="#DejaVuSans-28" x="1595.162109"/>
       <use xlink:href="#DejaVuSans-73" x="1634.175781"/>
       <use xlink:href="#DejaVuSans-6f" x="1686.275391"/>
       <use xlink:href="#DejaVuSans-66" x="1747.457031"/>
       <use xlink:href="#DejaVuSans-74" x="1780.912109"/>
       <use xlink:href="#DejaVuSans-2d" x="1820.121094"/>
       <use xlink:href="#DejaVuSans-6c" x="1856.205078"/>
       <use xlink:href="#DejaVuSans-61" x="1883.988281"/>
       <use xlink:href="#DejaVuSans-77" x="1945.267578"/>
       <use xlink:href="#DejaVuSans-20" x="2027.054688"/>
       <use xlink:href="#DejaVuSans-2f" x="2058.841797"/>
       <use xlink:href="#DejaVuSans-20" x="2092.533203"/>
       <use xlink:href="#DejaVuSans-73" x="2124.320312"/>
       <use xlink:href="#DejaVuSans-69" x="2176.419922"/>
       <use xlink:href="#DejaVuSans-6e" x="2204.203125"/>
       <use xlink:href="#DejaVuSans-20" x="2267.582031"/>
       <use xlink:href="#DejaVuSans-70" x="2299.369141"/>
       <use xlink:href="#DejaVuSans-72" x="2362.845703"/>
       <use xlink:href="#DejaVuSans-6f" x="2401.708984"/>
       <use xlink:href="#DejaVuSans-79" x="2462.890625"/>
       <use xlink:href="#DejaVuSans-65" x="2522.070312"/>
       <use xlink:href="#DejaVuSans-63" x="2583.59375"/>
       <use xlink:href="#DejaVuSans-74" x="2638.574219"/>
       <use xlink:href="#DejaVuSans-6f" x="2677.783203"/>
       <use xlink:href="#DejaVuSans-29" x="2738.964844"/>
      </g>
     </g>
    </g>
   </g>
   <g id="patch_5">
    <path d="M 222.545313 299.998125 
L 222.545313 22.798125 
" style="fill: none; stroke: #000000; stroke-width: 0.8; stroke-linejoin: miter; stroke-linecap: square"/>
   </g>
   <g id="patch_6">
    <path d="M 892.145313 299.998125 
L 892.145313 22.798125 
" style="fill: none; stroke: #000000; stroke-width: 0.8; stroke-linejoin: miter; stroke-linecap: square"/>
   </g>
   <g id="patch_7">
    <path d="M 222.545313 299.998125 
L 892.145312 299.998125 
" style="fill: none; stroke: #000000; stroke-width: 0.8; stroke-linejoin: miter; stroke-linecap: square"/>
   </g>
   <g id="patch_8">
    <path d="M 222.545313 22.798125 
L 892.145312 22.798125 
" style="fill: none; stroke: #000000; stroke-width: 0.8; stroke-linejoin: miter; stroke-linecap: square"/>
   </g>
   <g id="text_12">
    <!-- (8 países) -->
    <g transform="translate(376.346993 233.765625) scale(0.08 -0.08)">
     <defs>
      <path id="DejaVuSans-38" d="M 2034 2216 
Q 1584 2216 1326 1975 
Q 1069 1734 1069 1313 
Q 1069 891 1326 650 
Q 1584 409 2034 409 
Q 2484 409 2743 651 
Q 3003 894 3003 1313 
Q 3003 1734 2745 1975 
Q 2488 2216 2034 2216 
z
M 1403 2484 
Q 997 2584 770 2862 
Q 544 3141 544 3541 
Q 544 4100 942 4425 
Q 1341 4750 2034 4750 
Q 2731 4750 3128 4425 
Q 3525 4100 3525 3541 
Q 3525 3141 3298 2862 
Q 3072 2584 2669 2484 
Q 3125 2378 3379 2068 
Q 3634 1759 3634 1313 
Q 3634 634 3220 271 
Q 2806 -91 2034 -91 
Q 1263 -91 848 271 
Q 434 634 434 1313 
Q 434 1759 690 2068 
Q 947 2378 1403 2484 
z
M 1172 3481 
Q 1172 3119 1398 2916 
Q 1625 2713 2034 2713 
Q 2441 2713 2670 2916 
Q 2900 3119 2900 3481 
Q 2900 3844 2670 4047 
Q 2441 4250 2034 4250 
Q 1625 4250 1398 4047 
Q 1172 3844 1172 3481 
z
" transform="scale(0.015625)"/>
     </defs>
     <use xlink:href="#DejaVuSans-28"/>
     <use xlink:href="#DejaVuSans-38" x="39.013672"/>
     <use xlink:href="#DejaVuSans-20" x="102.636719"/>
     <use xlink:href="#DejaVuSans-70" x="134.423828"/>
     <use xlink:href="#DejaVuSans-61" x="197.900391"/>
     <use xlink:href="#DejaVuSans-ed" x="259.179688"/>
     <use xlink:href="#DejaVuSans-73" x="286.962891"/>
     <use xlink:href="#DejaVuSans-65" x="339.0625"/>
     <use xlink:href="#DejaVuSans-73" x="400.585938"/>
     <use xlink:href="#DejaVuSans-29" x="452.685547"/>
    </g>
   </g>
   <g id="text_13">
    <!-- ARE;AUS;CAN;ISR;NZL;QAT;SGP;URY -->
    <g style="fill: #7f8c8d" transform="translate(231.923464 277.577266) scale(0.055 -0.055)">
     <defs>
      <path id="DejaVuSans-52" d="M 2841 2188 
Q 3044 2119 3236 1894 
Q 3428 1669 3622 1275 
L 4263 0 
L 3584 0 
L 2988 1197 
Q 2756 1666 2539 1819 
Q 2322 1972 1947 1972 
L 1259 1972 
L 1259 0 
L 628 0 
L 628 4666 
L 2053 4666 
Q 2853 4666 3247 4331 
Q 3641 3997 3641 3322 
Q 3641 2881 3436 2590 
Q 3231 2300 2841 2188 
z
M 1259 4147 
L 1259 2491 
L 2053 2491 
Q 2509 2491 2742 2702 
Q 2975 2913 2975 3322 
Q 2975 3731 2742 3939 
Q 2509 4147 2053 4147 
L 1259 4147 
z
" transform="scale(0.015625)"/>
      <path id="DejaVuSans-45" d="M 628 4666 
L 3578 4666 
L 3578 4134 
L 1259 4134 
L 1259 2753 
L 3481 2753 
L 3481 2222 
L 1259 2222 
L 1259 531 
L 3634 531 
L 3634 0 
L 628 0 
L 628 4666 
z
" transform="scale(0.015625)"/>
      <path id="DejaVuSans-3b" d="M 750 3309 
L 1409 3309 
L 1409 2516 
L 750 2516 
L 750 3309 
z
M 750 794 
L 1409 794 
L 1409 256 
L 897 -744 
L 494 -744 
L 750 256 
L 750 794 
z
" transform="scale(0.015625)"/>
      <path id="DejaVuSans-55" d="M 556 4666 
L 1191 4666 
L 1191 1831 
Q 1191 1081 1462 751 
Q 1734 422 2344 422 
Q 2950 422 3222 751 
Q 3494 1081 3494 1831 
L 3494 4666 
L 4128 4666 
L 4128 1753 
Q 4128 841 3676 375 
Q 3225 -91 2344 -91 
Q 1459 -91 1007 375 
Q 556 841 556 1753 
L 556 4666 
z
" transform="scale(0.015625)"/>
      <path id="DejaVuSans-53" d="M 3425 4513 
L 3425 3897 
Q 3066 4069 2747 4153 
Q 2428 4238 2131 4238 
Q 1616 4238 1336 4038 
Q 1056 3838 1056 3469 
Q 1056 3159 1242 3001 
Q 1428 2844 1947 2747 
L 2328 2669 
Q 3034 2534 3370 2195 
Q 3706 1856 3706 1288 
Q 3706 609 3251 259 
Q 2797 -91 1919 -91 
Q 1588 -91 1214 -16 
Q 841 59 441 206 
L 441 856 
Q 825 641 1194 531 
Q 1563 422 1919 422 
Q 2459 422 2753 634 
Q 3047 847 3047 1241 
Q 3047 1584 2836 1778 
Q 2625 1972 2144 2069 
L 1759 2144 
Q 1053 2284 737 2584 
Q 422 2884 422 3419 
Q 422 4038 858 4394 
Q 1294 4750 2059 4750 
Q 2388 4750 2728 4690 
Q 3069 4631 3425 4513 
z
" transform="scale(0.015625)"/>
      <path id="DejaVuSans-5a" d="M 359 4666 
L 4025 4666 
L 4025 4184 
L 1075 531 
L 4097 531 
L 4097 0 
L 288 0 
L 288 481 
L 3238 4134 
L 359 4134 
L 359 4666 
z
" transform="scale(0.015625)"/>
      <path id="DejaVuSans-4c" d="M 628 4666 
L 1259 4666 
L 1259 531 
L 3531 531 
L 3531 0 
L 628 0 
L 628 4666 
z
" transform="scale(0.015625)"/>
      <path id="DejaVuSans-51" d="M 2522 4238 
Q 1834 4238 1429 3725 
Q 1025 3213 1025 2328 
Q 1025 1447 1429 934 
Q 1834 422 2522 422 
Q 3209 422 3611 934 
Q 4013 1447 4013 2328 
Q 4013 3213 3611 3725 
Q 3209 4238 2522 4238 
z
M 3406 84 
L 4238 -825 
L 3475 -825 
L 2784 -78 
Q 2681 -84 2626 -87 
Q 2572 -91 2522 -91 
Q 1538 -91 948 567 
Q 359 1225 359 2328 
Q 359 3434 948 4092 
Q 1538 4750 2522 4750 
Q 3503 4750 4090 4092 
Q 4678 3434 4678 2328 
Q 4678 1516 4351 937 
Q 4025 359 3406 84 
z
" transform="scale(0.015625)"/>
      <path id="DejaVuSans-54" d="M -19 4666 
L 3928 4666 
L 3928 4134 
L 2272 4134 
L 2272 0 
L 1638 0 
L 1638 4134 
L -19 4134 
L -19 4666 
z
" transform="scale(0.015625)"/>
      <path id="DejaVuSans-47" d="M 3809 666 
L 3809 1919 
L 2778 1919 
L 2778 2438 
L 4434 2438 
L 4434 434 
Q 4069 175 3628 42 
Q 3188 -91 2688 -91 
Q 1594 -91 976 548 
Q 359 1188 359 2328 
Q 359 3472 976 4111 
Q 1594 4750 2688 4750 
Q 3144 4750 3555 4637 
Q 3966 4525 4313 4306 
L 4313 3634 
Q 3963 3931 3569 4081 
Q 3175 4231 2741 4231 
Q 1884 4231 1454 3753 
Q 1025 3275 1025 2328 
Q 1025 1384 1454 906 
Q 1884 428 2741 428 
Q 3075 428 3337 486 
Q 3600 544 3809 666 
z
" transform="scale(0.015625)"/>
      <path id="DejaVuSans-50" d="M 1259 4147 
L 1259 2394 
L 2053 2394 
Q 2494 2394 2734 2622 
Q 2975 2850 2975 3272 
Q 2975 3691 2734 3919 
Q 2494 4147 2053 4147 
L 1259 4147 
z
M 628 4666 
L 2053 4666 
Q 2838 4666 3239 4311 
Q 3641 3956 3641 3272 
Q 3641 2581 3239 2228 
Q 2838 1875 2053 1875 
L 1259 1875 
L 1259 0 
L 628 0 
L 628 4666 
z
" transform="scale(0.015625)"/>
      <path id="DejaVuSans-59" d="M -13 4666 
L 666 4666 
L 1959 2747 
L 3244 4666 
L 3922 4666 
L 2272 2222 
L 2272 0 
L 1638 0 
L 1638 2222 
L -13 4666 
z
" transform="scale(0.015625)"/>
     </defs>
     <use xlink:href="#DejaVuSans-41"/>
     <use xlink:href="#DejaVuSans-52" x="68.408203"/>
     <use xlink:href="#DejaVuSans-45" x="137.890625"/>
     <use xlink:href="#DejaVuSans-3b" x="201.074219"/>
     <use xlink:href="#DejaVuSans-41" x="234.765625"/>
     <use xlink:href="#DejaVuSans-55" x="303.173828"/>
     <use xlink:href="#DejaVuSans-53" x="376.367188"/>
     <use xlink:href="#DejaVuSans-3b" x="439.84375"/>
     <use xlink:href="#DejaVuSans-43" x="473.535156"/>
     <use xlink:href="#DejaVuSans-41" x="543.359375"/>
     <use xlink:href="#DejaVuSans-4e" x="611.767578"/>
     <use xlink:href="#DejaVuSans-3b" x="686.572266"/>
     <use xlink:href="#DejaVuSans-49" x="720.263672"/>
     <use xlink:href="#DejaVuSans-53" x="749.755859"/>
     <use xlink:href="#DejaVuSans-52" x="813.232422"/>
     <use xlink:href="#DejaVuSans-3b" x="882.714844"/>
     <use xlink:href="#DejaVuSans-4e" x="916.40625"/>
     <use xlink:href="#DejaVuSans-5a" x="991.210938"/>
     <use xlink:href="#DejaVuSans-4c" x="1059.716797"/>
     <use xlink:href="#DejaVuSans-3b" x="1115.429688"/>
     <use xlink:href="#DejaVuSans-51" x="1149.121094"/>
     <use xlink:href="#DejaVuSans-41" x="1227.832031"/>
     <use xlink:href="#DejaVuSans-54" x="1288.490234"/>
     <use xlink:href="#DejaVuSans-3b" x="1349.574219"/>
     <use xlink:href="#DejaVuSans-53" x="1383.265625"/>
     <use xlink:href="#DejaVuSans-47" x="1446.742188"/>
     <use xlink:href="#DejaVuSans-50" x="1524.232422"/>
     <use xlink:href="#DejaVuSans-3b" x="1584.535156"/>
     <use xlink:href="#DejaVuSans-55" x="1618.226562"/>
     <use xlink:href="#DejaVuSans-52" x="1691.419922"/>
     <use xlink:href="#DejaVuSans-59" x="1754.527344"/>
    </g>
   </g>
   <g id="text_14">
    <!-- (34 países) -->
    <g transform="translate(864.010859 93.765625) scale(0.08 -0.08)">
     <use xlink:href="#DejaVuSans-28"/>
     <use xlink:href="#DejaVuSans-33" x="39.013672"/>
     <use xlink:href="#DejaVuSans-34" x="102.636719"/>
     <use xlink:href="#DejaVuSans-20" x="166.259766"/>
     <use xlink:href="#DejaVuSans-70" x="198.046875"/>
     <use xlink:href="#DejaVuSans-61" x="261.523438"/>
     <use xlink:href="#DejaVuSans-ed" x="322.802734"/>
     <use xlink:href="#DejaVuSans-73" x="350.585938"/>
     <use xlink:href="#DejaVuSans-65" x="402.685547"/>
     <use xlink:href="#DejaVuSans-73" x="464.208984"/>
     <use xlink:href="#DejaVuSans-29" x="516.308594"/>
    </g>
   </g>
   <g id="text_15">
    <!-- ARG;AUT;BEL;BGR;BRA;CHE;CHL;CHN;COL;CRI;CZE;DEU;DNK;ESP;EST;FIN;FRA;GBR;GRC;HRV;HUN;IND;IR... -->
    <g style="fill: #7f8c8d" transform="translate(231.923464 137.577266) scale(0.055 -0.055)">
     <defs>
      <path id="DejaVuSans-42" d="M 1259 2228 
L 1259 519 
L 2272 519 
Q 2781 519 3026 730 
Q 3272 941 3272 1375 
Q 3272 1813 3026 2020 
Q 2781 2228 2272 2228 
L 1259 2228 
z
M 1259 4147 
L 1259 2741 
L 2194 2741 
Q 2656 2741 2882 2914 
Q 3109 3088 3109 3444 
Q 3109 3797 2882 3972 
Q 2656 4147 2194 4147 
L 1259 4147 
z
M 628 4666 
L 2241 4666 
Q 2963 4666 3353 4366 
Q 3744 4066 3744 3513 
Q 3744 3084 3544 2831 
Q 3344 2578 2956 2516 
Q 3422 2416 3680 2098 
Q 3938 1781 3938 1306 
Q 3938 681 3513 340 
Q 3088 0 2303 0 
L 628 0 
L 628 4666 
z
" transform="scale(0.015625)"/>
      <path id="DejaVuSans-48" d="M 628 4666 
L 1259 4666 
L 1259 2753 
L 3553 2753 
L 3553 4666 
L 4184 4666 
L 4184 0 
L 3553 0 
L 3553 2222 
L 1259 2222 
L 1259 0 
L 628 0 
L 628 4666 
z
" transform="scale(0.015625)"/>
      <path id="DejaVuSans-4f" d="M 2522 4238 
Q 1834 4238 1429 3725 
Q 1025 3213 1025 2328 
Q 1025 1447 1429 934 
Q 1834 422 2522 422 
Q 3209 422 3611 934 
Q 4013 1447 4013 2328 
Q 4013 3213 3611 3725 
Q 3209 4238 2522 4238 
z
M 2522 4750 
Q 3503 4750 4090 4092 
Q 4678 3434 4678 2328 
Q 4678 1225 4090 567 
Q 3503 -91 2522 -91 
Q 1538 -91 948 565 
Q 359 1222 359 2328 
Q 359 3434 948 4092 
Q 1538 4750 2522 4750 
z
" transform="scale(0.015625)"/>
      <path id="DejaVuSans-44" d="M 1259 4147 
L 1259 519 
L 2022 519 
Q 2988 519 3436 956 
Q 3884 1394 3884 2338 
Q 3884 3275 3436 3711 
Q 2988 4147 2022 4147 
L 1259 4147 
z
M 628 4666 
L 1925 4666 
Q 3281 4666 3915 4102 
Q 4550 3538 4550 2338 
Q 4550 1131 3912 565 
Q 3275 0 1925 0 
L 628 0 
L 628 4666 
z
" transform="scale(0.015625)"/>
      <path id="DejaVuSans-4b" d="M 628 4666 
L 1259 4666 
L 1259 2694 
L 3353 4666 
L 4166 4666 
L 1850 2491 
L 4331 0 
L 3500 0 
L 1259 2247 
L 1259 0 
L 628 0 
L 628 4666 
z
" transform="scale(0.015625)"/>
      <path id="DejaVuSans-46" d="M 628 4666 
L 3309 4666 
L 3309 4134 
L 1259 4134 
L 1259 2759 
L 3109 2759 
L 3109 2228 
L 1259 2228 
L 1259 0 
L 628 0 
L 628 4666 
z
" transform="scale(0.015625)"/>
      <path id="DejaVuSans-56" d="M 1831 0 
L 50 4666 
L 709 4666 
L 2188 738 
L 3669 4666 
L 4325 4666 
L 2547 0 
L 1831 0 
z
" transform="scale(0.015625)"/>
      <path id="DejaVuSans-2e" d="M 684 794 
L 1344 794 
L 1344 0 
L 684 0 
L 684 794 
z
" transform="scale(0.015625)"/>
     </defs>
     <use xlink:href="#DejaVuSans-41"/>
     <use xlink:href="#DejaVuSans-52" x="68.408203"/>
     <use xlink:href="#DejaVuSans-47" x="137.890625"/>
     <use xlink:href="#DejaVuSans-3b" x="215.380859"/>
     <use xlink:href="#DejaVuSans-41" x="249.072266"/>
     <use xlink:href="#DejaVuSans-55" x="317.480469"/>
     <use xlink:href="#DejaVuSans-54" x="390.673828"/>
     <use xlink:href="#DejaVuSans-3b" x="451.757812"/>
     <use xlink:href="#DejaVuSans-42" x="485.449219"/>
     <use xlink:href="#DejaVuSans-45" x="554.052734"/>
     <use xlink:href="#DejaVuSans-4c" x="617.236328"/>
     <use xlink:href="#DejaVuSans-3b" x="672.949219"/>
     <use xlink:href="#DejaVuSans-42" x="706.640625"/>
     <use xlink:href="#DejaVuSans-47" x="773.494141"/>
     <use xlink:href="#DejaVuSans-52" x="850.984375"/>
     <use xlink:href="#DejaVuSans-3b" x="920.466797"/>
     <use xlink:href="#DejaVuSans-42" x="954.158203"/>
     <use xlink:href="#DejaVuSans-52" x="1022.761719"/>
     <use xlink:href="#DejaVuSans-41" x="1088.244141"/>
     <use xlink:href="#DejaVuSans-3b" x="1156.652344"/>
     <use xlink:href="#DejaVuSans-43" x="1190.34375"/>
     <use xlink:href="#DejaVuSans-48" x="1260.167969"/>
     <use xlink:href="#DejaVuSans-45" x="1335.363281"/>
     <use xlink:href="#DejaVuSans-3b" x="1398.546875"/>
     <use xlink:href="#DejaVuSans-43" x="1432.238281"/>
     <use xlink:href="#DejaVuSans-48" x="1502.0625"/>
     <use xlink:href="#DejaVuSans-4c" x="1577.257812"/>
     <use xlink:href="#DejaVuSans-3b" x="1632.970703"/>
     <use xlink:href="#DejaVuSans-43" x="1666.662109"/>
     <use xlink:href="#DejaVuSans-48" x="1736.486328"/>
     <use xlink:href="#DejaVuSans-4e" x="1811.681641"/>
     <use xlink:href="#DejaVuSans-3b" x="1886.486328"/>
     <use xlink:href="#DejaVuSans-43" x="1920.177734"/>
     <use xlink:href="#DejaVuSans-4f" x="1990.001953"/>
     <use xlink:href="#DejaVuSans-4c" x="2068.712891"/>
     <use xlink:href="#DejaVuSans-3b" x="2124.425781"/>
     <use xlink:href="#DejaVuSans-43" x="2158.117188"/>
     <use xlink:href="#DejaVuSans-52" x="2227.941406"/>
     <use xlink:href="#DejaVuSans-49" x="2297.423828"/>
     <use xlink:href="#DejaVuSans-3b" x="2326.916016"/>
     <use xlink:href="#DejaVuSans-43" x="2360.607422"/>
     <use xlink:href="#DejaVuSans-5a" x="2430.431641"/>
     <use xlink:href="#DejaVuSans-45" x="2498.9375"/>
     <use xlink:href="#DejaVuSans-3b" x="2562.121094"/>
     <use xlink:href="#DejaVuSans-44" x="2595.8125"/>
     <use xlink:href="#DejaVuSans-45" x="2672.814453"/>
     <use xlink:href="#DejaVuSans-55" x="2735.998047"/>
     <use xlink:href="#DejaVuSans-3b" x="2809.191406"/>
     <use xlink:href="#DejaVuSans-44" x="2842.882812"/>
     <use xlink:href="#DejaVuSans-4e" x="2919.884766"/>
     <use xlink:href="#DejaVuSans-4b" x="2994.689453"/>
     <use xlink:href="#DejaVuSans-3b" x="3060.265625"/>
     <use xlink:href="#DejaVuSans-45" x="3093.957031"/>
     <use xlink:href="#DejaVuSans-53" x="3157.140625"/>
     <use xlink:href="#DejaVuSans-50" x="3220.617188"/>
     <use xlink:href="#DejaVuSans-3b" x="3280.919922"/>
     <use xlink:href="#DejaVuSans-45" x="3314.611328"/>
     <use xlink:href="#DejaVuSans-53" x="3377.794922"/>
     <use xlink:href="#DejaVuSans-54" x="3441.271484"/>
     <use xlink:href="#DejaVuSans-3b" x="3502.355469"/>
     <use xlink:href="#DejaVuSans-46" x="3536.046875"/>
     <use xlink:href="#DejaVuSans-49" x="3593.566406"/>
     <use xlink:href="#DejaVuSans-4e" x="3623.058594"/>
     <use xlink:href="#DejaVuSans-3b" x="3697.863281"/>
     <use xlink:href="#DejaVuSans-46" x="3731.554688"/>
     <use xlink:href="#DejaVuSans-52" x="3789.074219"/>
     <use xlink:href="#DejaVuSans-41" x="3854.556641"/>
     <use xlink:href="#DejaVuSans-3b" x="3922.964844"/>
     <use xlink:href="#DejaVuSans-47" x="3956.65625"/>
     <use xlink:href="#DejaVuSans-42" x="4034.146484"/>
     <use xlink:href="#DejaVuSans-52" x="4102.75"/>
     <use xlink:href="#DejaVuSans-3b" x="4172.232422"/>
     <use xlink:href="#DejaVuSans-47" x="4205.923828"/>
     <use xlink:href="#DejaVuSans-52" x="4283.414062"/>
     <use xlink:href="#DejaVuSans-43" x="4347.896484"/>
     <use xlink:href="#DejaVuSans-3b" x="4417.720703"/>
     <use xlink:href="#DejaVuSans-48" x="4451.412109"/>
     <use xlink:href="#DejaVuSans-52" x="4526.607422"/>
     <use xlink:href="#DejaVuSans-56" x="4590.589844"/>
     <use xlink:href="#DejaVuSans-3b" x="4658.998047"/>
     <use xlink:href="#DejaVuSans-48" x="4692.689453"/>
     <use xlink:href="#DejaVuSans-55" x="4767.884766"/>
     <use xlink:href="#DejaVuSans-4e" x="4841.078125"/>
     <use xlink:href="#DejaVuSans-3b" x="4915.882812"/>
     <use xlink:href="#DejaVuSans-49" x="4949.574219"/>
     <use xlink:href="#DejaVuSans-4e" x="4979.066406"/>
     <use xlink:href="#DejaVuSans-44" x="5053.871094"/>
     <use xlink:href="#DejaVuSans-3b" x="5130.873047"/>
     <use xlink:href="#DejaVuSans-49" x="5164.564453"/>
     <use xlink:href="#DejaVuSans-52" x="5194.056641"/>
     <use xlink:href="#DejaVuSans-2e" x="5259.914062"/>
     <use xlink:href="#DejaVuSans-2e" x="5291.701172"/>
     <use xlink:href="#DejaVuSans-2e" x="5323.488281"/>
    </g>
   </g>
   <g id="text_16">
    <!-- Nota: Q4 combina clustering IAPP (18 países) + conteo de instrumentos regulatorios del corpus legal para los demás países. No es ranking normativo. Fuentes: {'Techieray_clustering': 42} -->
    <g transform="translate(222.545313 483.398125) scale(0.08 -0.08)">
     <defs>
      <path id="DejaVuSans-62" d="M 3116 1747 
Q 3116 2381 2855 2742 
Q 2594 3103 2138 3103 
Q 1681 3103 1420 2742 
Q 1159 2381 1159 1747 
Q 1159 1113 1420 752 
Q 1681 391 2138 391 
Q 2594 391 2855 752 
Q 3116 1113 3116 1747 
z
M 1159 2969 
Q 1341 3281 1617 3432 
Q 1894 3584 2278 3584 
Q 2916 3584 3314 3078 
Q 3713 2572 3713 1747 
Q 3713 922 3314 415 
Q 2916 -91 2278 -91 
Q 1894 -91 1617 61 
Q 1341 213 1159 525 
L 1159 0 
L 581 0 
L 581 4863 
L 1159 4863 
L 1159 2969 
z
" transform="scale(0.015625)"/>
      <path id="DejaVuSans-2b" d="M 2944 4013 
L 2944 2272 
L 4684 2272 
L 4684 1741 
L 2944 1741 
L 2944 0 
L 2419 0 
L 2419 1741 
L 678 1741 
L 678 2272 
L 2419 2272 
L 2419 4013 
L 2944 4013 
z
" transform="scale(0.015625)"/>
      <path id="DejaVuSans-6b" d="M 581 4863 
L 1159 4863 
L 1159 1991 
L 2875 3500 
L 3609 3500 
L 1753 1863 
L 3688 0 
L 2938 0 
L 1159 1709 
L 1159 0 
L 581 0 
L 581 4863 
z
" transform="scale(0.015625)"/>
      <path id="DejaVuSans-76" d="M 191 3500 
L 800 3500 
L 1894 563 
L 2988 3500 
L 3597 3500 
L 2284 0 
L 1503 0 
L 191 3500 
z
" transform="scale(0.015625)"/>
      <path id="DejaVuSans-7b" d="M 3272 -594 
L 3272 -1044 
L 3078 -1044 
Q 2300 -1044 2036 -812 
Q 1772 -581 1772 109 
L 1772 856 
Q 1772 1328 1603 1509 
Q 1434 1691 991 1691 
L 800 1691 
L 800 2138 
L 991 2138 
Q 1438 2138 1605 2317 
Q 1772 2497 1772 2963 
L 1772 3713 
Q 1772 4403 2036 4633 
Q 2300 4863 3078 4863 
L 3272 4863 
L 3272 4416 
L 3059 4416 
Q 2619 4416 2484 4278 
Q 2350 4141 2350 3700 
L 2350 2925 
Q 2350 2434 2208 2212 
Q 2066 1991 1722 1913 
Q 2069 1828 2209 1606 
Q 2350 1384 2350 897 
L 2350 122 
Q 2350 -319 2484 -456 
Q 2619 -594 3059 -594 
L 3272 -594 
z
" transform="scale(0.015625)"/>
      <path id="DejaVuSans-27" d="M 1147 4666 
L 1147 2931 
L 616 2931 
L 616 4666 
L 1147 4666 
z
" transform="scale(0.015625)"/>
      <path id="DejaVuSans-68" d="M 3513 2113 
L 3513 0 
L 2938 0 
L 2938 2094 
Q 2938 2591 2744 2837 
Q 2550 3084 2163 3084 
Q 1697 3084 1428 2787 
Q 1159 2491 1159 1978 
L 1159 0 
L 581 0 
L 581 4863 
L 1159 4863 
L 1159 2956 
Q 1366 3272 1645 3428 
Q 1925 3584 2291 3584 
Q 2894 3584 3203 3211 
Q 3513 2838 3513 2113 
z
" transform="scale(0.015625)"/>
      <path id="DejaVuSans-5f" d="M 3263 -1063 
L 3263 -1509 
L -63 -1509 
L -63 -1063 
L 3263 -1063 
z
" transform="scale(0.015625)"/>
      <path id="DejaVuSans-7d" d="M 800 -594 
L 1019 -594 
Q 1456 -594 1589 -459 
Q 1722 -325 1722 122 
L 1722 897 
Q 1722 1384 1862 1606 
Q 2003 1828 2350 1913 
Q 2003 1991 1862 2212 
Q 1722 2434 1722 2925 
L 1722 3700 
Q 1722 4144 1589 4280 
Q 1456 4416 1019 4416 
L 800 4416 
L 800 4863 
L 997 4863 
Q 1775 4863 2036 4633 
Q 2297 4403 2297 3713 
L 2297 2963 
Q 2297 2497 2465 2317 
Q 2634 2138 3078 2138 
L 3272 2138 
L 3272 1691 
L 3078 1691 
Q 2634 1691 2465 1509 
Q 2297 1328 2297 856 
L 2297 109 
Q 2297 -581 2036 -812 
Q 1775 -1044 997 -1044 
L 800 -1044 
L 800 -594 
z
" transform="scale(0.015625)"/>
     </defs>
     <use xlink:href="#DejaVuSans-4e"/>
     <use xlink:href="#DejaVuSans-6f" x="74.804688"/>
     <use xlink:href="#DejaVuSans-74" x="135.986328"/>
     <use xlink:href="#DejaVuSans-61" x="175.195312"/>
     <use xlink:href="#DejaVuSans-3a" x="236.474609"/>
     <use xlink:href="#DejaVuSans-20" x="270.166016"/>
     <use xlink:href="#DejaVuSans-51" x="301.953125"/>
     <use xlink:href="#DejaVuSans-34" x="380.664062"/>
     <use xlink:href="#DejaVuSans-20" x="444.287109"/>
     <use xlink:href="#DejaVuSans-63" x="476.074219"/>
     <use xlink:href="#DejaVuSans-6f" x="531.054688"/>
     <use xlink:href="#DejaVuSans-6d" x="592.236328"/>
     <use xlink:href="#DejaVuSans-62" x="689.648438"/>
     <use xlink:href="#DejaVuSans-69" x="753.125"/>
     <use xlink:href="#DejaVuSans-6e" x="780.908203"/>
     <use xlink:href="#DejaVuSans-61" x="844.287109"/>
     <use xlink:href="#DejaVuSans-20" x="905.566406"/>
     <use xlink:href="#DejaVuSans-63" x="937.353516"/>
     <use xlink:href="#DejaVuSans-6c" x="992.333984"/>
     <use xlink:href="#DejaVuSans-75" x="1020.117188"/>
     <use xlink:href="#DejaVuSans-73" x="1083.496094"/>
     <use xlink:href="#DejaVuSans-74" x="1135.595703"/>
     <use xlink:href="#DejaVuSans-65" x="1174.804688"/>
     <use xlink:href="#DejaVuSans-72" x="1236.328125"/>
     <use xlink:href="#DejaVuSans-69" x="1277.441406"/>
     <use xlink:href="#DejaVuSans-6e" x="1305.224609"/>
     <use xlink:href="#DejaVuSans-67" x="1368.603516"/>
     <use xlink:href="#DejaVuSans-20" x="1432.080078"/>
     <use xlink:href="#DejaVuSans-49" x="1463.867188"/>
     <use xlink:href="#DejaVuSans-41" x="1493.359375"/>
     <use xlink:href="#DejaVuSans-50" x="1561.767578"/>
     <use xlink:href="#DejaVuSans-50" x="1622.070312"/>
     <use xlink:href="#DejaVuSans-20" x="1682.373047"/>
     <use xlink:href="#DejaVuSans-28" x="1714.160156"/>
     <use xlink:href="#DejaVuSans-31" x="1753.173828"/>
     <use xlink:href="#DejaVuSans-38" x="1816.796875"/>
     <use xlink:href="#DejaVuSans-20" x="1880.419922"/>
     <use xlink:href="#DejaVuSans-70" x="1912.207031"/>
     <use xlink:href="#DejaVuSans-61" x="1975.683594"/>
     <use xlink:href="#DejaVuSans-ed" x="2036.962891"/>
     <use xlink:href="#DejaVuSans-73" x="2064.746094"/>
     <use xlink:href="#DejaVuSans-65" x="2116.845703"/>
     <use xlink:href="#DejaVuSans-73" x="2178.369141"/>
     <use xlink:href="#DejaVuSans-29" x="2230.46875"/>
     <use xlink:href="#DejaVuSans-20" x="2269.482422"/>
     <use xlink:href="#DejaVuSans-2b" x="2301.269531"/>
     <use xlink:href="#DejaVuSans-20" x="2385.058594"/>
     <use xlink:href="#DejaVuSans-63" x="2416.845703"/>
     <use xlink:href="#DejaVuSans-6f" x="2471.826172"/>
     <use xlink:href="#DejaVuSans-6e" x="2533.007812"/>
     <use xlink:href="#DejaVuSans-74" x="2596.386719"/>
     <use xlink:href="#DejaVuSans-65" x="2635.595703"/>
     <use xlink:href="#DejaVuSans-6f" x="2697.119141"/>
     <use xlink:href="#DejaVuSans-20" x="2758.300781"/>
     <use xlink:href="#DejaVuSans-64" x="2790.087891"/>
     <use xlink:href="#DejaVuSans-65" x="2853.564453"/>
     <use xlink:href="#DejaVuSans-20" x="2915.087891"/>
     <use xlink:href="#DejaVuSans-69" x="2946.875"/>
     <use xlink:href="#DejaVuSans-6e" x="2974.658203"/>
     <use xlink:href="#DejaVuSans-73" x="3038.037109"/>
     <use xlink:href="#DejaVuSans-74" x="3090.136719"/>
     <use xlink:href="#DejaVuSans-72" x="3129.345703"/>
     <use xlink:href="#DejaVuSans-75" x="3170.458984"/>
     <use xlink:href="#DejaVuSans-6d" x="3233.837891"/>
     <use xlink:href="#DejaVuSans-65" x="3331.25"/>
     <use xlink:href="#DejaVuSans-6e" x="3392.773438"/>
     <use xlink:href="#DejaVuSans-74" x="3456.152344"/>
     <use xlink:href="#DejaVuSans-6f" x="3495.361328"/>
     <use xlink:href="#DejaVuSans-73" x="3556.542969"/>
     <use xlink:href="#DejaVuSans-20" x="3608.642578"/>
     <use xlink:href="#DejaVuSans-72" x="3640.429688"/>
     <use xlink:href="#DejaVuSans-65" x="3679.292969"/>
     <use xlink:href="#DejaVuSans-67" x="3740.816406"/>
     <use xlink:href="#DejaVuSans-75" x="3804.292969"/>
     <use xlink:href="#DejaVuSans-6c" x="3867.671875"/>
     <use xlink:href="#DejaVuSans-61" x="3895.455078"/>
     <use xlink:href="#DejaVuSans-74" x="3956.734375"/>
     <use xlink:href="#DejaVuSans-6f" x="3995.943359"/>
     <use xlink:href="#DejaVuSans-72" x="4057.125"/>
     <use xlink:href="#DejaVuSans-69" x="4098.238281"/>
     <use xlink:href="#DejaVuSans-6f" x="4126.021484"/>
     <use xlink:href="#DejaVuSans-73" x="4187.203125"/>
     <use xlink:href="#DejaVuSans-20" x="4239.302734"/>
     <use xlink:href="#DejaVuSans-64" x="4271.089844"/>
     <use xlink:href="#DejaVuSans-65" x="4334.566406"/>
     <use xlink:href="#DejaVuSans-6c" x="4396.089844"/>
     <use xlink:href="#DejaVuSans-20" x="4423.873047"/>
     <use xlink:href="#DejaVuSans-63" x="4455.660156"/>
     <use xlink:href="#DejaVuSans-6f" x="4510.640625"/>
     <use xlink:href="#DejaVuSans-72" x="4571.822266"/>
     <use xlink:href="#DejaVuSans-70" x="4612.935547"/>
     <use xlink:href="#DejaVuSans-75" x="4676.412109"/>
     <use xlink:href="#DejaVuSans-73" x="4739.791016"/>
     <use xlink:href="#DejaVuSans-20" x="4791.890625"/>
     <use xlink:href="#DejaVuSans-6c" x="4823.677734"/>
     <use xlink:href="#DejaVuSans-65" x="4851.460938"/>
     <use xlink:href="#DejaVuSans-67" x="4912.984375"/>
     <use xlink:href="#DejaVuSans-61" x="4976.460938"/>
     <use xlink:href="#DejaVuSans-6c" x="5037.740234"/>
     <use xlink:href="#DejaVuSans-20" x="5065.523438"/>
     <use xlink:href="#DejaVuSans-70" x="5097.310547"/>
     <use xlink:href="#DejaVuSans-61" x="5160.787109"/>
     <use xlink:href="#DejaVuSans-72" x="5222.066406"/>
     <use xlink:href="#DejaVuSans-61" x="5263.179688"/>
     <use xlink:href="#DejaVuSans-20" x="5324.458984"/>
     <use xlink:href="#DejaVuSans-6c" x="5356.246094"/>
     <use xlink:href="#DejaVuSans-6f" x="5384.029297"/>
     <use xlink:href="#DejaVuSans-73" x="5445.210938"/>
     <use xlink:href="#DejaVuSans-20" x="5497.310547"/>
     <use xlink:href="#DejaVuSans-64" x="5529.097656"/>
     <use xlink:href="#DejaVuSans-65" x="5592.574219"/>
     <use xlink:href="#DejaVuSans-6d" x="5654.097656"/>
     <use xlink:href="#DejaVuSans-e1" x="5751.509766"/>
     <use xlink:href="#DejaVuSans-73" x="5812.789062"/>
     <use xlink:href="#DejaVuSans-20" x="5864.888672"/>
     <use xlink:href="#DejaVuSans-70" x="5896.675781"/>
     <use xlink:href="#DejaVuSans-61" x="5960.152344"/>
     <use xlink:href="#DejaVuSans-ed" x="6021.431641"/>
     <use xlink:href="#DejaVuSans-73" x="6049.214844"/>
     <use xlink:href="#DejaVuSans-65" x="6101.314453"/>
     <use xlink:href="#DejaVuSans-73" x="6162.837891"/>
     <use xlink:href="#DejaVuSans-2e" x="6214.9375"/>
     <use xlink:href="#DejaVuSans-20" x="6246.724609"/>
     <use xlink:href="#DejaVuSans-4e" x="6278.511719"/>
     <use xlink:href="#DejaVuSans-6f" x="6353.316406"/>
     <use xlink:href="#DejaVuSans-20" x="6414.498047"/>
     <use xlink:href="#DejaVuSans-65" x="6446.285156"/>
     <use xlink:href="#DejaVuSans-73" x="6507.808594"/>
     <use xlink:href="#DejaVuSans-20" x="6559.908203"/>
     <use xlink:href="#DejaVuSans-72" x="6591.695312"/>
     <use xlink:href="#DejaVuSans-61" x="6632.808594"/>
     <use xlink:href="#DejaVuSans-6e" x="6694.087891"/>
     <use xlink:href="#DejaVuSans-6b" x="6757.466797"/>
     <use xlink:href="#DejaVuSans-69" x="6815.376953"/>
     <use xlink:href="#DejaVuSans-6e" x="6843.160156"/>
     <use xlink:href="#DejaVuSans-67" x="6906.539062"/>
     <use xlink:href="#DejaVuSans-20" x="6970.015625"/>
     <use xlink:href="#DejaVuSans-6e" x="7001.802734"/>
     <use xlink:href="#DejaVuSans-6f" x="7065.181641"/>
     <use xlink:href="#DejaVuSans-72" x="7126.363281"/>
     <use xlink:href="#DejaVuSans-6d" x="7165.726562"/>
     <use xlink:href="#DejaVuSans-61" x="7263.138672"/>
     <use xlink:href="#DejaVuSans-74" x="7324.417969"/>
     <use xlink:href="#DejaVuSans-69" x="7363.626953"/>
     <use xlink:href="#DejaVuSans-76" x="7391.410156"/>
     <use xlink:href="#DejaVuSans-6f" x="7450.589844"/>
     <use xlink:href="#DejaVuSans-2e" x="7510.021484"/>
     <use xlink:href="#DejaVuSans-20" x="7541.808594"/>
     <use xlink:href="#DejaVuSans-46" x="7573.595703"/>
     <use xlink:href="#DejaVuSans-75" x="7625.615234"/>
     <use xlink:href="#DejaVuSans-65" x="7688.994141"/>
     <use xlink:href="#DejaVuSans-6e" x="7750.517578"/>
     <use xlink:href="#DejaVuSans-74" x="7813.896484"/>
     <use xlink:href="#DejaVuSans-65" x="7853.105469"/>
     <use xlink:href="#DejaVuSans-73" x="7914.628906"/>
     <use xlink:href="#DejaVuSans-3a" x="7966.728516"/>
     <use xlink:href="#DejaVuSans-20" x="8000.419922"/>
     <use xlink:href="#DejaVuSans-7b" x="8032.207031"/>
     <use xlink:href="#DejaVuSans-27" x="8095.830078"/>
     <use xlink:href="#DejaVuSans-54" x="8123.320312"/>
     <use xlink:href="#DejaVuSans-65" x="8167.404297"/>
     <use xlink:href="#DejaVuSans-63" x="8228.927734"/>
     <use xlink:href="#DejaVuSans-68" x="8283.908203"/>
     <use xlink:href="#DejaVuSans-69" x="8347.287109"/>
     <use xlink:href="#DejaVuSans-65" x="8375.070312"/>
     <use xlink:href="#DejaVuSans-72" x="8436.59375"/>
     <use xlink:href="#DejaVuSans-61" x="8477.707031"/>
     <use xlink:href="#DejaVuSans-79" x="8538.986328"/>
     <use xlink:href="#DejaVuSans-5f" x="8598.166016"/>
     <use xlink:href="#DejaVuSans-63" x="8648.166016"/>
     <use xlink:href="#DejaVuSans-6c" x="8703.146484"/>
     <use xlink:href="#DejaVuSans-75" x="8730.929688"/>
     <use xlink:href="#DejaVuSans-73" x="8794.308594"/>
     <use xlink:href="#DejaVuSans-74" x="8846.408203"/>
     <use xlink:href="#DejaVuSans-65" x="8885.617188"/>
     <use xlink:href="#DejaVuSans-72" x="8947.140625"/>
     <use xlink:href="#DejaVuSans-69" x="8988.253906"/>
     <use xlink:href="#DejaVuSans-6e" x="9016.037109"/>
     <use xlink:href="#DejaVuSans-67" x="9079.416016"/>
     <use xlink:href="#DejaVuSans-27" x="9142.892578"/>
     <use xlink:href="#DejaVuSans-3a" x="9170.382812"/>
     <use xlink:href="#DejaVuSans-20" x="9204.074219"/>
     <use xlink:href="#DejaVuSans-34" x="9235.861328"/>
     <use xlink:href="#DejaVuSans-32" x="9299.484375"/>
     <use xlink:href="#DejaVuSans-7d" x="9363.107422"/>
    </g>
   </g>
   <g id="text_17">
    <!-- Q4 — Perfil Regulatorio: 42 países (IAPP + corpus legal) -->
    <g transform="translate(390.00625 16.798125) scale(0.12 -0.12)">
     <defs>
      <path id="DejaVuSans-2014" d="M 313 1978 
L 6088 1978 
L 6088 1528 
L 313 1528 
L 313 1978 
z
" transform="scale(0.015625)"/>
     </defs>
     <use xlink:href="#DejaVuSans-51"/>
     <use xlink:href="#DejaVuSans-34" x="78.710938"/>
     <use xlink:href="#DejaVuSans-20" x="142.333984"/>
     <use xlink:href="#DejaVuSans-2014" x="174.121094"/>
     <use xlink:href="#DejaVuSans-20" x="274.121094"/>
     <use xlink:href="#DejaVuSans-50" x="305.908203"/>
     <use xlink:href="#DejaVuSans-65" x="362.585938"/>
     <use xlink:href="#DejaVuSans-72" x="424.109375"/>
     <use xlink:href="#DejaVuSans-66" x="465.222656"/>
     <use xlink:href="#DejaVuSans-69" x="500.427734"/>
     <use xlink:href="#DejaVuSans-6c" x="528.210938"/>
     <use xlink:href="#DejaVuSans-20" x="555.994141"/>
     <use xlink:href="#DejaVuSans-52" x="587.78125"/>
     <use xlink:href="#DejaVuSans-65" x="652.763672"/>
     <use xlink:href="#DejaVuSans-67" x="714.287109"/>
     <use xlink:href="#DejaVuSans-75" x="777.763672"/>
     <use xlink:href="#DejaVuSans-6c" x="841.142578"/>
     <use xlink:href="#DejaVuSans-61" x="868.925781"/>
     <use xlink:href="#DejaVuSans-74" x="930.205078"/>
     <use xlink:href="#DejaVuSans-6f" x="969.414062"/>
     <use xlink:href="#DejaVuSans-72" x="1030.595703"/>
     <use xlink:href="#DejaVuSans-69" x="1071.708984"/>
     <use xlink:href="#DejaVuSans-6f" x="1099.492188"/>
     <use xlink:href="#DejaVuSans-3a" x="1160.673828"/>
     <use xlink:href="#DejaVuSans-20" x="1194.365234"/>
     <use xlink:href="#DejaVuSans-34" x="1226.152344"/>
     <use xlink:href="#DejaVuSans-32" x="1289.775391"/>
     <use xlink:href="#DejaVuSans-20" x="1353.398438"/>
     <use xlink:href="#DejaVuSans-70" x="1385.185547"/>
     <use xlink:href="#DejaVuSans-61" x="1448.662109"/>
     <use xlink:href="#DejaVuSans-ed" x="1509.941406"/>
     <use xlink:href="#DejaVuSans-73" x="1537.724609"/>
     <use xlink:href="#DejaVuSans-65" x="1589.824219"/>
     <use xlink:href="#DejaVuSans-73" x="1651.347656"/>
     <use xlink:href="#DejaVuSans-20" x="1703.447266"/>
     <use xlink:href="#DejaVuSans-28" x="1735.234375"/>
     <use xlink:href="#DejaVuSans-49" x="1774.248047"/>
     <use xlink:href="#DejaVuSans-41" x="1803.740234"/>
     <use xlink:href="#DejaVuSans-50" x="1872.148438"/>
     <use xlink:href="#DejaVuSans-50" x="1932.451172"/>
     <use xlink:href="#DejaVuSans-20" x="1992.753906"/>
     <use xlink:href="#DejaVuSans-2b" x="2024.541016"/>
     <use xlink:href="#DejaVuSans-20" x="2108.330078"/>
     <use xlink:href="#DejaVuSans-63" x="2140.117188"/>
     <use xlink:href="#DejaVuSans-6f" x="2195.097656"/>
     <use xlink:href="#DejaVuSans-72" x="2256.279297"/>
     <use xlink:href="#DejaVuSans-70" x="2297.392578"/>
     <use xlink:href="#DejaVuSans-75" x="2360.869141"/>
     <use xlink:href="#DejaVuSans-73" x="2424.248047"/>
     <use xlink:href="#DejaVuSans-20" x="2476.347656"/>
     <use xlink:href="#DejaVuSans-6c" x="2508.134766"/>
     <use xlink:href="#DejaVuSans-65" x="2535.917969"/>
     <use xlink:href="#DejaVuSans-67" x="2597.441406"/>
     <use xlink:href="#DejaVuSans-61" x="2660.917969"/>
     <use xlink:href="#DejaVuSans-6c" x="2722.197266"/>
     <use xlink:href="#DejaVuSans-29" x="2749.980469"/>
    </g>
   </g>
  </g>
 </g>
 <defs>
  <clipPath id="p0af333b9e7">
   <rect x="222.545313" y="22.798125" width="669.6" height="277.2"/>
  </clipPath>
 </defs>
</svg>
