<?xml version="1.0" encoding="utf-8" standalone="no"?>
<!DOCTYPE svg PUBLIC "-//W3C//DTD SVG 1.1//EN"
  "http://www.w3.org/Graphics/SVG/1.1/DTD/svg11.dtd">
<svg xmlns:xlink="http://www.w3.org/1999/xlink" width="437.2775pt" height="424.801199pt" viewBox="0 0 437.2775 424.801199" xmlns="http://www.w3.org/2000/svg" version="1.1">
 <metadata>
  <rdf:RDF xmlns:dc="http://purl.org/dc/elements/1.1/" xmlns:cc="http://creativecommons.org/ns#" xmlns:rdf="http://www.w3.org/1999/02/22-rdf-syntax-ns#">
   <cc:Work>
    <dc:type rdf:resource="http://purl.org/dc/dcmitype/StillImage"/>
    <dc:date>2026-05-09T17:13:40.497256</dc:date>
    <dc:format>image/svg+xml</dc:format>
    <dc:creator>
     <cc:Agent>
      <dc:title>Matplotlib v3.6.3, https://matplotlib.org/</dc:title>
     </cc:Agent>
    </dc:creator>
   </cc:Work>
  </rdf:RDF>
 </metadata>
 <defs>
  <style type="text/css">*{stroke-linejoin: round; stroke-linecap: butt}</style>
 </defs>
 <g id="figure_1">
  <g id="patch_1">
   <path d="M 0 424.801199 
L 437.2775 424.801199 
L 437.2775 0 
L 0 0 
z
" style="fill: #ffffff"/>
  </g>
  <g id="axes_1">
   <g id="patch_2">
    <path d="M 351.72 210.737449 
C 351.72 188.896506 347.417811 167.26794 339.059644 147.08954 
C 330.701477 126.91114 318.449878 108.575327 303.006 93.131449 
C 287.562121 77.68757 269.226308 65.435971 249.047908 57.077805 
C 228.869509 48.719638 207.240942 44.417449 185.4 44.417449 
C 163.559058 44.417449 141.930491 48.719638 121.752092 57.077805 
C 101.573692 65.435971 83.237879 77.68757 67.794 93.131449 
C 52.350122 108.575327 40.098523 126.91114 31.740356 147.08954 
C 23.382189 167.26794 19.08 188.896506 19.08 210.737449 
C 19.08 232.578391 23.382189 254.206957 31.740356 274.385357 
C 40.098523 294.563757 52.350122 312.89957 67.794 328.343448 
C 83.237879 343.787327 101.573692 356.038926 121.752092 364.397092 
C 141.930491 372.755259 163.559058 377.057449 185.4 377.057449 
C 207.240942 377.057449 228.869509 372.755259 249.047908 364.397092 
C 269.226308 356.038926 287.562121 343.787327 303.006 328.343448 
C 318.449878 312.89957 330.701477 294.563757 339.059644 274.385357 
C 347.417811 254.206957 351.72 232.578391 351.72 210.737449 
M 185.4 210.737449 
C 185.4 210.737449 185.4 210.737449 185.4 210.737449 
C 185.4 210.737449 185.4 210.737449 185.4 210.737449 
C 185.4 210.737449 185.4 210.737449 185.4 210.737449 
C 185.4 210.737449 185.4 210.737449 185.4 210.737449 
C 185.4 210.737449 185.4 210.737449 185.4 210.737449 
C 185.4 210.737449 185.4 210.737449 185.4 210.737449 
C 185.4 210.737449 185.4 210.737449 185.4 210.737449 
C 185.4 210.737449 185.4 210.737449 185.4 210.737449 
C 185.4 210.737449 185.4 210.737449 185.4 210.737449 
C 185.4 210.737449 185.4 210.737449 185.4 210.737449 
C 185.4 210.737449 185.4 210.737449 185.4 210.737449 
C 185.4 210.737449 185.4 210.737449 185.4 210.737449 
C 185.4 210.737449 185.4 210.737449 185.4 210.737449 
C 185.4 210.737449 185.4 210.737449 185.4 210.737449 
C 185.4 210.737449 185.4 210.737449 185.4 210.737449 
C 185.4 210.737449 185.4 210.737449 185.4 210.737449 
M 351.72 210.737449 
z
" style="fill: #ffffff"/>
   </g>
   <g id="patch_3">
    <path d="M 283.572314 210.737449 
L 224.978394 88.927678 
L 127.099978 168.380003 
L 110.274306 265.31946 
L 216.177661 305.46135 
z
" clip-path="url(#p9092ffcda9)" style="fill: #3498db; opacity: 0.2; stroke: #3498db; stroke-linejoin: miter"/>
   </g>
   <g id="matplotlib.axis_1">
    <g id="xtick_1">
     <g id="line2d_1">
      <path d="M 185.4 210.737449 
L 351.72 210.737449 
" clip-path="url(#p9092ffcda9)" style="fill: none; stroke: #b0b0b0; stroke-width: 0.8; stroke-linecap: square"/>
     </g>
     <g id="text_1">
      <!-- Q1 -->
      <g transform="translate(358.602812 213.496824) scale(0.1 -0.1)">
       <defs>
        <path id="DejaVuSans-51" d="M 2522 4238 
Q 1834 4238 1429 3725 
Q 1025 3213 1025 2328 
Q 1025 1447 1429 934 
Q 1834 422 2522 422 
Q 3209 422 3611 934 
Q 4013 1447 4013 2328 
Q 4013 3213 3611 3725 
Q 3209 4238 2522 4238 
z
M 3406 84 
L 4238 -825 
L 3475 -825 
L 2784 -78 
Q 2681 -84 2626 -87 
Q 2572 -91 2522 -91 
Q 1538 -91 948 567 
Q 359 1225 359 2328 
Q 359 3434 948 4092 
Q 1538 4750 2522 4750 
Q 3503 4750 4090 4092 
Q 4678 3434 4678 2328 
Q 4678 1516 4351 937 
Q 4025 359 3406 84 
z
" transform="scale(0.015625)"/>
        <path id="DejaVuSans-31" d="M 794 531 
L 1825 531 
L 1825 4091 
L 703 3866 
L 703 4441 
L 1819 4666 
L 2450 4666 
L 2450 531 
L 3481 531 
L 3481 0 
L 794 0 
L 794 531 
z
" transform="scale(0.015625)"/>
       </defs>
       <use xlink:href="#DejaVuSans-51"/>
       <use xlink:href="#DejaVuSans-31" x="78.710938"/>
      </g>
     </g>
    </g>
    <g id="xtick_2">
     <g id="line2d_2">
      <path d="M 185.4 210.737449 
L 236.795707 52.557729 
" clip-path="url(#p9092ffcda9)" style="fill: none; stroke: #b0b0b0; stroke-width: 0.8; stroke-linecap: square"/>
     </g>
     <g id="text_2">
      <!-- Q2 -->
      <g transform="translate(234.004757 42.002312) scale(0.1 -0.1)">
       <defs>
        <path id="DejaVuSans-32" d="M 1228 531 
L 3431 531 
L 3431 0 
L 469 0 
L 469 531 
Q 828 903 1448 1529 
Q 2069 2156 2228 2338 
Q 2531 2678 2651 2914 
Q 2772 3150 2772 3378 
Q 2772 3750 2511 3984 
Q 2250 4219 1831 4219 
Q 1534 4219 1204 4116 
Q 875 4013 500 3803 
L 500 4441 
Q 881 4594 1212 4672 
Q 1544 4750 1819 4750 
Q 2544 4750 2975 4387 
Q 3406 4025 3406 3419 
Q 3406 3131 3298 2873 
Q 3191 2616 2906 2266 
Q 2828 2175 2409 1742 
Q 1991 1309 1228 531 
z
" transform="scale(0.015625)"/>
       </defs>
       <use xlink:href="#DejaVuSans-51"/>
       <use xlink:href="#DejaVuSans-32" x="78.710938"/>
      </g>
     </g>
    </g>
    <g id="xtick_3">
     <g id="line2d_3">
      <path d="M 185.4 210.737449 
L 50.844293 112.977005 
" clip-path="url(#p9092ffcda9)" style="fill: none; stroke: #b0b0b0; stroke-width: 0.8; stroke-linecap: square"/>
     </g>
     <g id="text_3">
      <!-- Q3 -->
      <g transform="translate(32.400868 107.507387) scale(0.1 -0.1)">
       <defs>
        <path id="DejaVuSans-33" d="M 2597 2516 
Q 3050 2419 3304 2112 
Q 3559 1806 3559 1356 
Q 3559 666 3084 287 
Q 2609 -91 1734 -91 
Q 1441 -91 1130 -33 
Q 819 25 488 141 
L 488 750 
Q 750 597 1062 519 
Q 1375 441 1716 441 
Q 2309 441 2620 675 
Q 2931 909 2931 1356 
Q 2931 1769 2642 2001 
Q 2353 2234 1838 2234 
L 1294 2234 
L 1294 2753 
L 1863 2753 
Q 2328 2753 2575 2939 
Q 2822 3125 2822 3475 
Q 2822 3834 2567 4026 
Q 2313 4219 1838 4219 
Q 1578 4219 1281 4162 
Q 984 4106 628 3988 
L 628 4550 
Q 988 4650 1302 4700 
Q 1616 4750 1894 4750 
Q 2613 4750 3031 4423 
Q 3450 4097 3450 3541 
Q 3450 3153 3228 2886 
Q 3006 2619 2597 2516 
z
" transform="scale(0.015625)"/>
       </defs>
       <use xlink:href="#DejaVuSans-51"/>
       <use xlink:href="#DejaVuSans-33" x="78.710938"/>
      </g>
     </g>
    </g>
    <g id="xtick_4">
     <g id="line2d_4">
      <path d="M 185.4 210.737449 
L 50.844293 308.497892 
" clip-path="url(#p9092ffcda9)" style="fill: none; stroke: #b0b0b0; stroke-width: 0.8; stroke-linecap: square"/>
     </g>
     <g id="text_4">
      <!-- Q5 -->
      <g transform="translate(32.400868 319.48626) scale(0.1 -0.1)">
       <defs>
        <path id="DejaVuSans-35" d="M 691 4666 
L 3169 4666 
L 3169 4134 
L 1269 4134 
L 1269 2991 
Q 1406 3038 1543 3061 
Q 1681 3084 1819 3084 
Q 2600 3084 3056 2656 
Q 3513 2228 3513 1497 
Q 3513 744 3044 326 
Q 2575 -91 1722 -91 
Q 1428 -91 1123 -41 
Q 819 9 494 109 
L 494 744 
Q 775 591 1075 516 
Q 1375 441 1709 441 
Q 2250 441 2565 725 
Q 2881 1009 2881 1497 
Q 2881 1984 2565 2268 
Q 2250 2553 1709 2553 
Q 1456 2553 1204 2497 
Q 953 2441 691 2322 
L 691 4666 
z
" transform="scale(0.015625)"/>
       </defs>
       <use xlink:href="#DejaVuSans-51"/>
       <use xlink:href="#DejaVuSans-35" x="78.710938"/>
      </g>
     </g>
    </g>
    <g id="xtick_5">
     <g id="line2d_5">
      <path d="M 185.4 210.737449 
L 236.795707 368.917168 
" clip-path="url(#p9092ffcda9)" style="fill: none; stroke: #b0b0b0; stroke-width: 0.8; stroke-linecap: square"/>
     </g>
     <g id="text_5">
      <!-- Q6 -->
      <g transform="translate(234.004757 384.991335) scale(0.1 -0.1)">
       <defs>
        <path id="DejaVuSans-36" d="M 2113 2584 
Q 1688 2584 1439 2293 
Q 1191 2003 1191 1497 
Q 1191 994 1439 701 
Q 1688 409 2113 409 
Q 2538 409 2786 701 
Q 3034 994 3034 1497 
Q 3034 2003 2786 2293 
Q 2538 2584 2113 2584 
z
M 3366 4563 
L 3366 3988 
Q 3128 4100 2886 4159 
Q 2644 4219 2406 4219 
Q 1781 4219 1451 3797 
Q 1122 3375 1075 2522 
Q 1259 2794 1537 2939 
Q 1816 3084 2150 3084 
Q 2853 3084 3261 2657 
Q 3669 2231 3669 1497 
Q 3669 778 3244 343 
Q 2819 -91 2113 -91 
Q 1303 -91 875 529 
Q 447 1150 447 2328 
Q 447 3434 972 4092 
Q 1497 4750 2381 4750 
Q 2619 4750 2861 4703 
Q 3103 4656 3366 4563 
z
" transform="scale(0.015625)"/>
       </defs>
       <use xlink:href="#DejaVuSans-51"/>
       <use xlink:href="#DejaVuSans-36" x="78.710938"/>
      </g>
     </g>
    </g>
   </g>
   <g id="matplotlib.axis_2">
    <g id="ytick_1">
     <g id="line2d_6">
      <path d="M 218.664 210.737449 
C 218.664 206.36926 217.803562 202.043547 216.131929 198.007867 
C 214.460295 193.972187 212.009976 190.305024 208.9212 187.216249 
C 205.832424 184.127473 202.165262 181.677153 198.129582 180.00552 
C 194.093902 178.333886 189.768188 177.473449 185.4 177.473449 
C 181.031812 177.473449 176.706098 178.333886 172.670418 180.00552 
C 168.634738 181.677153 164.967576 184.127473 161.8788 187.216249 
C 158.790024 190.305024 156.339705 193.972187 154.668071 198.007867 
C 152.996438 202.043547 152.136 206.36926 152.136 210.737449 
C 152.136 215.105637 152.996438 219.43135 154.668071 223.46703 
C 156.339705 227.50271 158.790024 231.169873 161.8788 234.258648 
C 164.967576 237.347424 168.634738 239.797744 172.670418 241.469377 
C 176.706098 243.141011 181.031812 244.001449 185.4 244.001449 
C 189.768188 244.001449 194.093902 243.141011 198.129582 241.469377 
C 202.165262 239.797744 205.832424 237.347424 208.9212 234.258648 
C 212.009976 231.169873 214.460295 227.50271 216.131929 223.46703 
C 217.803562 219.43135 218.664 215.105637 218.664 210.737449 
" clip-path="url(#p9092ffcda9)" style="fill: none; stroke: #b0b0b0; stroke-width: 0.8; stroke-linecap: square"/>
     </g>
     <g id="text_6">
      <!-- 0.2 -->
      <g transform="translate(216.131929 195.928179) scale(0.1 -0.1)">
       <defs>
        <path id="DejaVuSans-30" d="M 2034 4250 
Q 1547 4250 1301 3770 
Q 1056 3291 1056 2328 
Q 1056 1369 1301 889 
Q 1547 409 2034 409 
Q 2525 409 2770 889 
Q 3016 1369 3016 2328 
Q 3016 3291 2770 3770 
Q 2525 4250 2034 4250 
z
M 2034 4750 
Q 2819 4750 3233 4129 
Q 3647 3509 3647 2328 
Q 3647 1150 3233 529 
Q 2819 -91 2034 -91 
Q 1250 -91 836 529 
Q 422 1150 422 2328 
Q 422 3509 836 4129 
Q 1250 4750 2034 4750 
z
" transform="scale(0.015625)"/>
        <path id="DejaVuSans-2e" d="M 684 794 
L 1344 794 
L 1344 0 
L 684 0 
L 684 794 
z
" transform="scale(0.015625)"/>
       </defs>
       <use xlink:href="#DejaVuSans-30"/>
       <use xlink:href="#DejaVuSans-2e" x="63.623047"/>
       <use xlink:href="#DejaVuSans-32" x="95.410156"/>
      </g>
     </g>
    </g>
    <g id="ytick_2">
     <g id="line2d_7">
      <path d="M 251.928 210.737449 
C 251.928 202.001072 250.207124 193.349645 246.863858 185.278285 
C 243.520591 177.206925 238.619951 169.8726 232.4424 163.695049 
C 226.264849 157.517497 218.930523 152.616858 210.859163 149.273591 
C 202.787804 145.930324 194.136377 144.209449 185.4 144.209449 
C 176.663623 144.209449 168.012196 145.930324 159.940837 149.273591 
C 151.869477 152.616858 144.535151 157.517497 138.3576 163.695049 
C 132.180049 169.8726 127.279409 177.206925 123.936142 185.278285 
C 120.592876 193.349645 118.872 202.001072 118.872 210.737449 
C 118.872 219.473825 120.592876 228.125252 123.936142 236.196612 
C 127.279409 244.267972 132.180049 251.602297 138.3576 257.779848 
C 144.535151 263.9574 151.869477 268.858039 159.940837 272.201306 
C 168.012196 275.544573 176.663623 277.265449 185.4 277.265449 
C 194.136377 277.265449 202.787804 275.544573 210.859163 272.201306 
C 218.930523 268.858039 226.264849 263.9574 232.4424 257.779848 
C 238.619951 251.602297 243.520591 244.267972 246.863858 236.196612 
C 250.207124 228.125252 251.928 219.473825 251.928 210.737449 
" clip-path="url(#p9092ffcda9)" style="fill: none; stroke: #b0b0b0; stroke-width: 0.8; stroke-linecap: square"/>
     </g>
     <g id="text_7">
      <!-- 0.4 -->
      <g transform="translate(246.863858 183.198598) scale(0.1 -0.1)">
       <defs>
        <path id="DejaVuSans-34" d="M 2419 4116 
L 825 1625 
L 2419 1625 
L 2419 4116 
z
M 2253 4666 
L 3047 4666 
L 3047 1625 
L 3713 1625 
L 3713 1100 
L 3047 1100 
L 3047 0 
L 2419 0 
L 2419 1100 
L 313 1100 
L 313 1709 
L 2253 4666 
z
" transform="scale(0.015625)"/>
       </defs>
       <use xlink:href="#DejaVuSans-30"/>
       <use xlink:href="#DejaVuSans-2e" x="63.623047"/>
       <use xlink:href="#DejaVuSans-34" x="95.410156"/>
      </g>
     </g>
    </g>
    <g id="ytick_3">
     <g id="line2d_8">
      <path d="M 285.192 210.737449 
C 285.192 197.632883 282.610686 184.655743 277.595786 172.548703 
C 272.580886 160.441664 265.229927 149.440176 255.9636 140.173849 
C 246.697273 130.907522 235.695785 123.556562 223.588745 118.541662 
C 211.481705 113.526762 198.504565 110.945449 185.4 110.945449 
C 172.295435 110.945449 159.318295 113.526762 147.211255 118.541662 
C 135.104215 123.556562 124.102727 130.907522 114.8364 140.173849 
C 105.570073 149.440176 98.219114 160.441664 93.204214 172.548703 
C 88.189314 184.655743 85.608 197.632883 85.608 210.737449 
C 85.608 223.842014 88.189314 236.819154 93.204214 248.926194 
C 98.219114 261.033233 105.570073 272.034721 114.8364 281.301048 
C 124.102727 290.567375 135.104215 297.918335 147.211255 302.933235 
C 159.318295 307.948135 172.295435 310.529449 185.4 310.529449 
C 198.504565 310.529449 211.481705 307.948135 223.588745 302.933235 
C 235.695785 297.918335 246.697273 290.567375 255.9636 281.301048 
C 265.229927 272.034721 272.580886 261.033233 277.595786 248.926194 
C 282.610686 236.819154 285.192 223.842014 285.192 210.737449 
" clip-path="url(#p9092ffcda9)" style="fill: none; stroke: #b0b0b0; stroke-width: 0.8; stroke-linecap: square"/>
     </g>
     <g id="text_8">
      <!-- 0.6 -->
      <g transform="translate(277.595786 170.469016) scale(0.1 -0.1)">
       <use xlink:href="#DejaVuSans-30"/>
       <use xlink:href="#DejaVuSans-2e" x="63.623047"/>
       <use xlink:href="#DejaVuSans-36" x="95.410156"/>
      </g>
     </g>
    </g>
    <g id="ytick_4">
     <g id="line2d_9">
      <path d="M 318.456 210.737449 
C 318.456 193.264695 315.014248 175.961841 308.327715 159.819122 
C 301.641182 143.676402 291.839903 129.007751 279.4848 116.652649 
C 267.129697 104.297546 252.461046 94.496267 236.318327 87.809733 
C 220.175607 81.1232 202.872754 77.681449 185.4 77.681449 
C 167.927246 77.681449 150.624393 81.1232 134.481673 87.809733 
C 118.338954 94.496267 103.670303 104.297546 91.3152 116.652649 
C 78.960097 129.007751 69.158818 143.676402 62.472285 159.819122 
C 55.785752 175.961841 52.344 193.264695 52.344 210.737449 
C 52.344 228.210202 55.785752 245.513056 62.472285 261.655775 
C 69.158818 277.798495 78.960097 292.467146 91.3152 304.822248 
C 103.670303 317.177351 118.338954 326.97863 134.481673 333.665164 
C 150.624393 340.351697 167.927246 343.793449 185.4 343.793449 
C 202.872754 343.793449 220.175607 340.351697 236.318327 333.665164 
C 252.461046 326.97863 267.129697 317.177351 279.4848 304.822248 
C 291.839903 292.467146 301.641182 277.798495 308.327715 261.655775 
C 315.014248 245.513056 318.456 228.210202 318.456 210.737449 
" clip-path="url(#p9092ffcda9)" style="fill: none; stroke: #b0b0b0; stroke-width: 0.8; stroke-linecap: square"/>
     </g>
     <g id="text_9">
      <!-- 0.8 -->
      <g transform="translate(308.327715 157.739434) scale(0.1 -0.1)">
       <defs>
        <path id="DejaVuSans-38" d="M 2034 2216 
Q 1584 2216 1326 1975 
Q 1069 1734 1069 1313 
Q 1069 891 1326 650 
Q 1584 409 2034 409 
Q 2484 409 2743 651 
Q 3003 894 3003 1313 
Q 3003 1734 2745 1975 
Q 2488 2216 2034 2216 
z
M 1403 2484 
Q 997 2584 770 2862 
Q 544 3141 544 3541 
Q 544 4100 942 4425 
Q 1341 4750 2034 4750 
Q 2731 4750 3128 4425 
Q 3525 4100 3525 3541 
Q 3525 3141 3298 2862 
Q 3072 2584 2669 2484 
Q 3125 2378 3379 2068 
Q 3634 1759 3634 1313 
Q 3634 634 3220 271 
Q 2806 -91 2034 -91 
Q 1263 -91 848 271 
Q 434 634 434 1313 
Q 434 1759 690 2068 
Q 947 2378 1403 2484 
z
M 1172 3481 
Q 1172 3119 1398 2916 
Q 1625 2713 2034 2713 
Q 2441 2713 2670 2916 
Q 2900 3119 2900 3481 
Q 2900 3844 2670 4047 
Q 2441 4250 2034 4250 
Q 1625 4250 1398 4047 
Q 1172 3844 1172 3481 
z
" transform="scale(0.015625)"/>
       </defs>
       <use xlink:href="#DejaVuSans-30"/>
       <use xlink:href="#DejaVuSans-2e" x="63.623047"/>
       <use xlink:href="#DejaVuSans-38" x="95.410156"/>
      </g>
     </g>
    </g>
    <g id="ytick_5">
     <g id="line2d_10">
      <path d="M 351.72 210.737449 
C 351.72 188.896506 347.417811 167.26794 339.059644 147.08954 
C 330.701477 126.91114 318.449878 108.575327 303.006 93.131449 
C 287.562121 77.68757 269.226308 65.435971 249.047908 57.077805 
C 228.869509 48.719638 207.240942 44.417449 185.4 44.417449 
C 163.559058 44.417449 141.930491 48.719638 121.752092 57.077805 
C 101.573692 65.435971 83.237879 77.68757 67.794 93.131449 
C 52.350122 108.575327 40.098523 126.91114 31.740356 147.08954 
C 23.382189 167.26794 19.08 188.896506 19.08 210.737449 
C 19.08 232.578391 23.382189 254.206957 31.740356 274.385357 
C 40.098523 294.563757 52.350122 312.89957 67.794 328.343448 
C 83.237879 343.787327 101.573692 356.038926 121.752092 364.397092 
C 141.930491 372.755259 163.559058 377.057449 185.4 377.057449 
C 207.240942 377.057449 228.869509 372.755259 249.047908 364.397092 
C 269.226308 356.038926 287.562121 343.787327 303.006 328.343448 
C 318.449878 312.89957 330.701477 294.563757 339.059644 274.385357 
C 347.417811 254.206957 351.72 232.578391 351.72 210.737449 
" clip-path="url(#p9092ffcda9)" style="fill: none; stroke: #b0b0b0; stroke-width: 0.8; stroke-linecap: square"/>
     </g>
     <g id="text_10">
      <!-- 1.0 -->
      <g transform="translate(339.059644 145.009853) scale(0.1 -0.1)">
       <use xlink:href="#DejaVuSans-31"/>
       <use xlink:href="#DejaVuSans-2e" x="63.623047"/>
       <use xlink:href="#DejaVuSans-30" x="95.410156"/>
      </g>
     </g>
    </g>
   </g>
   <g id="line2d_11">
    <path d="M 283.572314 210.737449 
L 224.978394 88.927678 
L 127.099978 168.380003 
L 110.274306 265.31946 
L 216.177661 305.46135 
L 283.572314 210.737449 
" clip-path="url(#p9092ffcda9)" style="fill: none; stroke: #2c3e50; stroke-width: 2; stroke-linecap: square"/>
   </g>
   <g id="patch_4">
    <path d="M 351.72 210.737449 
C 351.72 188.896506 347.417811 167.26794 339.059644 147.08954 
C 330.701477 126.91114 318.449878 108.575327 303.006 93.131449 
C 287.562121 77.68757 269.226308 65.435971 249.047908 57.077805 
C 228.869509 48.719638 207.240942 44.417449 185.4 44.417449 
C 163.559058 44.417449 141.930491 48.719638 121.752092 57.077805 
C 101.573692 65.435971 83.237879 77.68757 67.794 93.131449 
C 52.350122 108.575327 40.098523 126.91114 31.740356 147.08954 
C 23.382189 167.26794 19.08 188.896506 19.08 210.737449 
C 19.08 232.578391 23.382189 254.206957 31.740356 274.385357 
C 40.098523 294.563757 52.350122 312.89957 67.794 328.343448 
C 83.237879 343.787327 101.573692 356.038926 121.752092 364.397092 
C 141.930491 372.755259 163.559058 377.057449 185.4 377.057449 
C 207.240942 377.057449 228.869509 372.755259 249.047908 364.397092 
C 269.226308 356.038926 287.562121 343.787327 303.006 328.343448 
C 318.449878 312.89957 330.701477 294.563757 339.059644 274.385357 
C 347.417811 254.206957 351.72 232.578391 351.72 210.737449 
" style="fill: none; stroke: #000000; stroke-width: 0.8; stroke-linejoin: miter; stroke-linecap: square"/>
   </g>
   <g id="text_11">
    <!-- ARE — perfil Q1–Q6 -->
    <g transform="translate(131.06 15.558281) scale(0.11 -0.11)">
     <defs>
      <path id="DejaVuSans-41" d="M 2188 4044 
L 1331 1722 
L 3047 1722 
L 2188 4044 
z
M 1831 4666 
L 2547 4666 
L 4325 0 
L 3669 0 
L 3244 1197 
L 1141 1197 
L 716 0 
L 50 0 
L 1831 4666 
z
" transform="scale(0.015625)"/>
      <path id="DejaVuSans-52" d="M 2841 2188 
Q 3044 2119 3236 1894 
Q 3428 1669 3622 1275 
L 4263 0 
L 3584 0 
L 2988 1197 
Q 2756 1666 2539 1819 
Q 2322 1972 1947 1972 
L 1259 1972 
L 1259 0 
L 628 0 
L 628 4666 
L 2053 4666 
Q 2853 4666 3247 4331 
Q 3641 3997 3641 3322 
Q 3641 2881 3436 2590 
Q 3231 2300 2841 2188 
z
M 1259 4147 
L 1259 2491 
L 2053 2491 
Q 2509 2491 2742 2702 
Q 2975 2913 2975 3322 
Q 2975 3731 2742 3939 
Q 2509 4147 2053 4147 
L 1259 4147 
z
" transform="scale(0.015625)"/>
      <path id="DejaVuSans-45" d="M 628 4666 
L 3578 4666 
L 3578 4134 
L 1259 4134 
L 1259 2753 
L 3481 2753 
L 3481 2222 
L 1259 2222 
L 1259 531 
L 3634 531 
L 3634 0 
L 628 0 
L 628 4666 
z
" transform="scale(0.015625)"/>
      <path id="DejaVuSans-20" transform="scale(0.015625)"/>
      <path id="DejaVuSans-2014" d="M 313 1978 
L 6088 1978 
L 6088 1528 
L 313 1528 
L 313 1978 
z
" transform="scale(0.015625)"/>
      <path id="DejaVuSans-70" d="M 1159 525 
L 1159 -1331 
L 581 -1331 
L 581 3500 
L 1159 3500 
L 1159 2969 
Q 1341 3281 1617 3432 
Q 1894 3584 2278 3584 
Q 2916 3584 3314 3078 
Q 3713 2572 3713 1747 
Q 3713 922 3314 415 
Q 2916 -91 2278 -91 
Q 1894 -91 1617 61 
Q 1341 213 1159 525 
z
M 3116 1747 
Q 3116 2381 2855 2742 
Q 2594 3103 2138 3103 
Q 1681 3103 1420 2742 
Q 1159 2381 1159 1747 
Q 1159 1113 1420 752 
Q 1681 391 2138 391 
Q 2594 391 2855 752 
Q 3116 1113 3116 1747 
z
" transform="scale(0.015625)"/>
      <path id="DejaVuSans-65" d="M 3597 1894 
L 3597 1613 
L 953 1613 
Q 991 1019 1311 708 
Q 1631 397 2203 397 
Q 2534 397 2845 478 
Q 3156 559 3463 722 
L 3463 178 
Q 3153 47 2828 -22 
Q 2503 -91 2169 -91 
Q 1331 -91 842 396 
Q 353 884 353 1716 
Q 353 2575 817 3079 
Q 1281 3584 2069 3584 
Q 2775 3584 3186 3129 
Q 3597 2675 3597 1894 
z
M 3022 2063 
Q 3016 2534 2758 2815 
Q 2500 3097 2075 3097 
Q 1594 3097 1305 2825 
Q 1016 2553 972 2059 
L 3022 2063 
z
" transform="scale(0.015625)"/>
      <path id="DejaVuSans-72" d="M 2631 2963 
Q 2534 3019 2420 3045 
Q 2306 3072 2169 3072 
Q 1681 3072 1420 2755 
Q 1159 2438 1159 1844 
L 1159 0 
L 581 0 
L 581 3500 
L 1159 3500 
L 1159 2956 
Q 1341 3275 1631 3429 
Q 1922 3584 2338 3584 
Q 2397 3584 2469 3576 
Q 2541 3569 2628 3553 
L 2631 2963 
z
" transform="scale(0.015625)"/>
      <path id="DejaVuSans-66" d="M 2375 4863 
L 2375 4384 
L 1825 4384 
Q 1516 4384 1395 4259 
Q 1275 4134 1275 3809 
L 1275 3500 
L 2222 3500 
L 2222 3053 
L 1275 3053 
L 1275 0 
L 697 0 
L 697 3053 
L 147 3053 
L 147 3500 
L 697 3500 
L 697 3744 
Q 697 4328 969 4595 
Q 1241 4863 1831 4863 
L 2375 4863 
z
" transform="scale(0.015625)"/>
      <path id="DejaVuSans-69" d="M 603 3500 
L 1178 3500 
L 1178 0 
L 603 0 
L 603 3500 
z
M 603 4863 
L 1178 4863 
L 1178 4134 
L 603 4134 
L 603 4863 
z
" transform="scale(0.015625)"/>
      <path id="DejaVuSans-6c" d="M 603 4863 
L 1178 4863 
L 1178 0 
L 603 0 
L 603 4863 
z
" transform="scale(0.015625)"/>
      <path id="DejaVuSans-2013" d="M 313 1978 
L 2888 1978 
L 2888 1528 
L 313 1528 
L 313 1978 
z
" transform="scale(0.015625)"/>
     </defs>
     <use xlink:href="#DejaVuSans-41"/>
     <use xlink:href="#DejaVuSans-52" x="68.408203"/>
     <use xlink:href="#DejaVuSans-45" x="137.890625"/>
     <use xlink:href="#DejaVuSans-20" x="201.074219"/>
     <use xlink:href="#DejaVuSans-2014" x="232.861328"/>
     <use xlink:href="#DejaVuSans-20" x="332.861328"/>
     <use xlink:href="#DejaVuSans-70" x="364.648438"/>
     <use xlink:href="#DejaVuSans-65" x="428.125"/>
     <use xlink:href="#DejaVuSans-72" x="489.648438"/>
     <use xlink:href="#DejaVuSans-66" x="530.761719"/>
     <use xlink:href="#DejaVuSans-69" x="565.966797"/>
     <use xlink:href="#DejaVuSans-6c" x="593.75"/>
     <use xlink:href="#DejaVuSans-20" x="621.533203"/>
     <use xlink:href="#DejaVuSans-51" x="653.320312"/>
     <use xlink:href="#DejaVuSans-31" x="732.03125"/>
     <use xlink:href="#DejaVuSans-2013" x="795.654297"/>
     <use xlink:href="#DejaVuSans-51" x="845.654297"/>
     <use xlink:href="#DejaVuSans-36" x="924.365234"/>
    </g>
    <!-- Q4: Cluster 1: proyecto de ley IA en curso (pragmático) -->
    <g transform="translate(32.927109 28.403875) scale(0.11 -0.11)">
     <defs>
      <path id="DejaVuSans-3a" d="M 750 794 
L 1409 794 
L 1409 0 
L 750 0 
L 750 794 
z
M 750 3309 
L 1409 3309 
L 1409 2516 
L 750 2516 
L 750 3309 
z
" transform="scale(0.015625)"/>
      <path id="DejaVuSans-43" d="M 4122 4306 
L 4122 3641 
Q 3803 3938 3442 4084 
Q 3081 4231 2675 4231 
Q 1875 4231 1450 3742 
Q 1025 3253 1025 2328 
Q 1025 1406 1450 917 
Q 1875 428 2675 428 
Q 3081 428 3442 575 
Q 3803 722 4122 1019 
L 4122 359 
Q 3791 134 3420 21 
Q 3050 -91 2638 -91 
Q 1578 -91 968 557 
Q 359 1206 359 2328 
Q 359 3453 968 4101 
Q 1578 4750 2638 4750 
Q 3056 4750 3426 4639 
Q 3797 4528 4122 4306 
z
" transform="scale(0.015625)"/>
      <path id="DejaVuSans-75" d="M 544 1381 
L 544 3500 
L 1119 3500 
L 1119 1403 
Q 1119 906 1312 657 
Q 1506 409 1894 409 
Q 2359 409 2629 706 
Q 2900 1003 2900 1516 
L 2900 3500 
L 3475 3500 
L 3475 0 
L 2900 0 
L 2900 538 
Q 2691 219 2414 64 
Q 2138 -91 1772 -91 
Q 1169 -91 856 284 
Q 544 659 544 1381 
z
M 1991 3584 
L 1991 3584 
z
" transform="scale(0.015625)"/>
      <path id="DejaVuSans-73" d="M 2834 3397 
L 2834 2853 
Q 2591 2978 2328 3040 
Q 2066 3103 1784 3103 
Q 1356 3103 1142 2972 
Q 928 2841 928 2578 
Q 928 2378 1081 2264 
Q 1234 2150 1697 2047 
L 1894 2003 
Q 2506 1872 2764 1633 
Q 3022 1394 3022 966 
Q 3022 478 2636 193 
Q 2250 -91 1575 -91 
Q 1294 -91 989 -36 
Q 684 19 347 128 
L 347 722 
Q 666 556 975 473 
Q 1284 391 1588 391 
Q 1994 391 2212 530 
Q 2431 669 2431 922 
Q 2431 1156 2273 1281 
Q 2116 1406 1581 1522 
L 1381 1569 
Q 847 1681 609 1914 
Q 372 2147 372 2553 
Q 372 3047 722 3315 
Q 1072 3584 1716 3584 
Q 2034 3584 2315 3537 
Q 2597 3491 2834 3397 
z
" transform="scale(0.015625)"/>
      <path id="DejaVuSans-74" d="M 1172 4494 
L 1172 3500 
L 2356 3500 
L 2356 3053 
L 1172 3053 
L 1172 1153 
Q 1172 725 1289 603 
Q 1406 481 1766 481 
L 2356 481 
L 2356 0 
L 1766 0 
Q 1100 0 847 248 
Q 594 497 594 1153 
L 594 3053 
L 172 3053 
L 172 3500 
L 594 3500 
L 594 4494 
L 1172 4494 
z
" transform="scale(0.015625)"/>
      <path id="DejaVuSans-6f" d="M 1959 3097 
Q 1497 3097 1228 2736 
Q 959 2375 959 1747 
Q 959 1119 1226 758 
Q 1494 397 1959 397 
Q 2419 397 2687 759 
Q 2956 1122 2956 1747 
Q 2956 2369 2687 2733 
Q 2419 3097 1959 3097 
z
M 1959 3584 
Q 2709 3584 3137 3096 
Q 3566 2609 3566 1747 
Q 3566 888 3137 398 
Q 2709 -91 1959 -91 
Q 1206 -91 779 398 
Q 353 888 353 1747 
Q 353 2609 779 3096 
Q 1206 3584 1959 3584 
z
" transform="scale(0.015625)"/>
      <path id="DejaVuSans-79" d="M 2059 -325 
Q 1816 -950 1584 -1140 
Q 1353 -1331 966 -1331 
L 506 -1331 
L 506 -850 
L 844 -850 
Q 1081 -850 1212 -737 
Q 1344 -625 1503 -206 
L 1606 56 
L 191 3500 
L 800 3500 
L 1894 763 
L 2988 3500 
L 3597 3500 
L 2059 -325 
z
" transform="scale(0.015625)"/>
      <path id="DejaVuSans-63" d="M 3122 3366 
L 3122 2828 
Q 2878 2963 2633 3030 
Q 2388 3097 2138 3097 
Q 1578 3097 1268 2742 
Q 959 2388 959 1747 
Q 959 1106 1268 751 
Q 1578 397 2138 397 
Q 2388 397 2633 464 
Q 2878 531 3122 666 
L 3122 134 
Q 2881 22 2623 -34 
Q 2366 -91 2075 -91 
Q 1284 -91 818 406 
Q 353 903 353 1747 
Q 353 2603 823 3093 
Q 1294 3584 2113 3584 
Q 2378 3584 2631 3529 
Q 2884 3475 3122 3366 
z
" transform="scale(0.015625)"/>
      <path id="DejaVuSans-64" d="M 2906 2969 
L 2906 4863 
L 3481 4863 
L 3481 0 
L 2906 0 
L 2906 525 
Q 2725 213 2448 61 
Q 2172 -91 1784 -91 
Q 1150 -91 751 415 
Q 353 922 353 1747 
Q 353 2572 751 3078 
Q 1150 3584 1784 3584 
Q 2172 3584 2448 3432 
Q 2725 3281 2906 2969 
z
M 947 1747 
Q 947 1113 1208 752 
Q 1469 391 1925 391 
Q 2381 391 2643 752 
Q 2906 1113 2906 1747 
Q 2906 2381 2643 2742 
Q 2381 3103 1925 3103 
Q 1469 3103 1208 2742 
Q 947 2381 947 1747 
z
" transform="scale(0.015625)"/>
      <path id="DejaVuSans-49" d="M 628 4666 
L 1259 4666 
L 1259 0 
L 628 0 
L 628 4666 
z
" transform="scale(0.015625)"/>
      <path id="DejaVuSans-6e" d="M 3513 2113 
L 3513 0 
L 2938 0 
L 2938 2094 
Q 2938 2591 2744 2837 
Q 2550 3084 2163 3084 
Q 1697 3084 1428 2787 
Q 1159 2491 1159 1978 
L 1159 0 
L 581 0 
L 581 3500 
L 1159 3500 
L 1159 2956 
Q 1366 3272 1645 3428 
Q 1925 3584 2291 3584 
Q 2894 3584 3203 3211 
Q 3513 2838 3513 2113 
z
" transform="scale(0.015625)"/>
      <path id="DejaVuSans-28" d="M 1984 4856 
Q 1566 4138 1362 3434 
Q 1159 2731 1159 2009 
Q 1159 1288 1364 580 
Q 1569 -128 1984 -844 
L 1484 -844 
Q 1016 -109 783 600 
Q 550 1309 550 2009 
Q 550 2706 781 3412 
Q 1013 4119 1484 4856 
L 1984 4856 
z
" transform="scale(0.015625)"/>
      <path id="DejaVuSans-61" d="M 2194 1759 
Q 1497 1759 1228 1600 
Q 959 1441 959 1056 
Q 959 750 1161 570 
Q 1363 391 1709 391 
Q 2188 391 2477 730 
Q 2766 1069 2766 1631 
L 2766 1759 
L 2194 1759 
z
M 3341 1997 
L 3341 0 
L 2766 0 
L 2766 531 
Q 2569 213 2275 61 
Q 1981 -91 1556 -91 
Q 1019 -91 701 211 
Q 384 513 384 1019 
Q 384 1609 779 1909 
Q 1175 2209 1959 2209 
L 2766 2209 
L 2766 2266 
Q 2766 2663 2505 2880 
Q 2244 3097 1772 3097 
Q 1472 3097 1187 3025 
Q 903 2953 641 2809 
L 641 3341 
Q 956 3463 1253 3523 
Q 1550 3584 1831 3584 
Q 2591 3584 2966 3190 
Q 3341 2797 3341 1997 
z
" transform="scale(0.015625)"/>
      <path id="DejaVuSans-67" d="M 2906 1791 
Q 2906 2416 2648 2759 
Q 2391 3103 1925 3103 
Q 1463 3103 1205 2759 
Q 947 2416 947 1791 
Q 947 1169 1205 825 
Q 1463 481 1925 481 
Q 2391 481 2648 825 
Q 2906 1169 2906 1791 
z
M 3481 434 
Q 3481 -459 3084 -895 
Q 2688 -1331 1869 -1331 
Q 1566 -1331 1297 -1286 
Q 1028 -1241 775 -1147 
L 775 -588 
Q 1028 -725 1275 -790 
Q 1522 -856 1778 -856 
Q 2344 -856 2625 -561 
Q 2906 -266 2906 331 
L 2906 616 
Q 2728 306 2450 153 
Q 2172 0 1784 0 
Q 1141 0 747 490 
Q 353 981 353 1791 
Q 353 2603 747 3093 
Q 1141 3584 1784 3584 
Q 2172 3584 2450 3431 
Q 2728 3278 2906 2969 
L 2906 3500 
L 3481 3500 
L 3481 434 
z
" transform="scale(0.015625)"/>
      <path id="DejaVuSans-6d" d="M 3328 2828 
Q 3544 3216 3844 3400 
Q 4144 3584 4550 3584 
Q 5097 3584 5394 3201 
Q 5691 2819 5691 2113 
L 5691 0 
L 5113 0 
L 5113 2094 
Q 5113 2597 4934 2840 
Q 4756 3084 4391 3084 
Q 3944 3084 3684 2787 
Q 3425 2491 3425 1978 
L 3425 0 
L 2847 0 
L 2847 2094 
Q 2847 2600 2669 2842 
Q 2491 3084 2119 3084 
Q 1678 3084 1418 2786 
Q 1159 2488 1159 1978 
L 1159 0 
L 581 0 
L 581 3500 
L 1159 3500 
L 1159 2956 
Q 1356 3278 1631 3431 
Q 1906 3584 2284 3584 
Q 2666 3584 2933 3390 
Q 3200 3197 3328 2828 
z
" transform="scale(0.015625)"/>
      <path id="DejaVuSans-e1" d="M 2194 1759 
Q 1497 1759 1228 1600 
Q 959 1441 959 1056 
Q 959 750 1161 570 
Q 1363 391 1709 391 
Q 2188 391 2477 730 
Q 2766 1069 2766 1631 
L 2766 1759 
L 2194 1759 
z
M 3341 1997 
L 3341 0 
L 2766 0 
L 2766 531 
Q 2569 213 2275 61 
Q 1981 -91 1556 -91 
Q 1019 -91 701 211 
Q 384 513 384 1019 
Q 384 1609 779 1909 
Q 1175 2209 1959 2209 
L 2766 2209 
L 2766 2266 
Q 2766 2663 2505 2880 
Q 2244 3097 1772 3097 
Q 1472 3097 1187 3025 
Q 903 2953 641 2809 
L 641 3341 
Q 956 3463 1253 3523 
Q 1550 3584 1831 3584 
Q 2591 3584 2966 3190 
Q 3341 2797 3341 1997 
z
M 2291 5119 
L 2913 5119 
L 1894 3944 
L 1416 3944 
L 2291 5119 
z
" transform="scale(0.015625)"/>
      <path id="DejaVuSans-29" d="M 513 4856 
L 1013 4856 
Q 1481 4119 1714 3412 
Q 1947 2706 1947 2009 
Q 1947 1309 1714 600 
Q 1481 -109 1013 -844 
L 513 -844 
Q 928 -128 1133 580 
Q 1338 1288 1338 2009 
Q 1338 2731 1133 3434 
Q 928 4138 513 4856 
z
" transform="scale(0.015625)"/>
     </defs>
     <use xlink:href="#DejaVuSans-51"/>
     <use xlink:href="#DejaVuSans-34" x="78.710938"/>
     <use xlink:href="#DejaVuSans-3a" x="142.333984"/>
     <use xlink:href="#DejaVuSans-20" x="176.025391"/>
     <use xlink:href="#DejaVuSans-43" x="207.8125"/>
     <use xlink:href="#DejaVuSans-6c" x="277.636719"/>
     <use xlink:href="#DejaVuSans-75" x="305.419922"/>
     <use xlink:href="#DejaVuSans-73" x="368.798828"/>
     <use xlink:href="#DejaVuSans-74" x="420.898438"/>
     <use xlink:href="#DejaVuSans-65" x="460.107422"/>
     <use xlink:href="#DejaVuSans-72" x="521.630859"/>
     <use xlink:href="#DejaVuSans-20" x="562.744141"/>
     <use xlink:href="#DejaVuSans-31" x="594.53125"/>
     <use xlink:href="#DejaVuSans-3a" x="658.154297"/>
     <use xlink:href="#DejaVuSans-20" x="691.845703"/>
     <use xlink:href="#DejaVuSans-70" x="723.632812"/>
     <use xlink:href="#DejaVuSans-72" x="787.109375"/>
     <use xlink:href="#DejaVuSans-6f" x="825.972656"/>
     <use xlink:href="#DejaVuSans-79" x="887.154297"/>
     <use xlink:href="#DejaVuSans-65" x="946.333984"/>
     <use xlink:href="#DejaVuSans-63" x="1007.857422"/>
     <use xlink:href="#DejaVuSans-74" x="1062.837891"/>
     <use xlink:href="#DejaVuSans-6f" x="1102.046875"/>
     <use xlink:href="#DejaVuSans-20" x="1163.228516"/>
     <use xlink:href="#DejaVuSans-64" x="1195.015625"/>
     <use xlink:href="#DejaVuSans-65" x="1258.492188"/>
     <use xlink:href="#DejaVuSans-20" x="1320.015625"/>
     <use xlink:href="#DejaVuSans-6c" x="1351.802734"/>
     <use xlink:href="#DejaVuSans-65" x="1379.585938"/>
     <use xlink:href="#DejaVuSans-79" x="1441.109375"/>
     <use xlink:href="#DejaVuSans-20" x="1500.289062"/>
     <use xlink:href="#DejaVuSans-49" x="1532.076172"/>
     <use xlink:href="#DejaVuSans-41" x="1561.568359"/>
     <use xlink:href="#DejaVuSans-20" x="1629.976562"/>
     <use xlink:href="#DejaVuSans-65" x="1661.763672"/>
     <use xlink:href="#DejaVuSans-6e" x="1723.287109"/>
     <use xlink:href="#DejaVuSans-20" x="1786.666016"/>
     <use xlink:href="#DejaVuSans-63" x="1818.453125"/>
     <use xlink:href="#DejaVuSans-75" x="1873.433594"/>
     <use xlink:href="#DejaVuSans-72" x="1936.8125"/>
     <use xlink:href="#DejaVuSans-73" x="1977.925781"/>
     <use xlink:href="#DejaVuSans-6f" x="2030.025391"/>
     <use xlink:href="#DejaVuSans-20" x="2091.207031"/>
     <use xlink:href="#DejaVuSans-28" x="2122.994141"/>
     <use xlink:href="#DejaVuSans-70" x="2162.007812"/>
     <use xlink:href="#DejaVuSans-72" x="2225.484375"/>
     <use xlink:href="#DejaVuSans-61" x="2266.597656"/>
     <use xlink:href="#DejaVuSans-67" x="2327.876953"/>
     <use xlink:href="#DejaVuSans-6d" x="2391.353516"/>
     <use xlink:href="#DejaVuSans-e1" x="2488.765625"/>
     <use xlink:href="#DejaVuSans-74" x="2550.044922"/>
     <use xlink:href="#DejaVuSans-69" x="2589.253906"/>
     <use xlink:href="#DejaVuSans-63" x="2617.037109"/>
     <use xlink:href="#DejaVuSans-6f" x="2672.017578"/>
     <use xlink:href="#DejaVuSans-29" x="2733.199219"/>
    </g>
   </g>
  </g>
  <g id="text_12">
   <!-- Nota: percentiles descriptivos in-sample; no causalidad. Q4 es tipología de cluster, no ranking normativo. -->
   <g transform="translate(7.2 415.937449) scale(0.08 -0.08)">
    <defs>
     <path id="DejaVuSans-4e" d="M 628 4666 
L 1478 4666 
L 3547 763 
L 3547 4666 
L 4159 4666 
L 4159 0 
L 3309 0 
L 1241 3903 
L 1241 0 
L 628 0 
L 628 4666 
z
" transform="scale(0.015625)"/>
     <path id="DejaVuSans-76" d="M 191 3500 
L 800 3500 
L 1894 563 
L 2988 3500 
L 3597 3500 
L 2284 0 
L 1503 0 
L 191 3500 
z
" transform="scale(0.015625)"/>
     <path id="DejaVuSans-2d" d="M 313 2009 
L 1997 2009 
L 1997 1497 
L 313 1497 
L 313 2009 
z
" transform="scale(0.015625)"/>
     <path id="DejaVuSans-3b" d="M 750 3309 
L 1409 3309 
L 1409 2516 
L 750 2516 
L 750 3309 
z
M 750 794 
L 1409 794 
L 1409 256 
L 897 -744 
L 494 -744 
L 750 256 
L 750 794 
z
" transform="scale(0.015625)"/>
     <path id="DejaVuSans-ed" d="M 1325 5119 
L 1947 5119 
L 928 3944 
L 450 3944 
L 1325 5119 
z
M 603 3500 
L 1178 3500 
L 1178 0 
L 603 0 
L 603 3500 
z
M 891 3584 
L 891 3584 
z
" transform="scale(0.015625)"/>
     <path id="DejaVuSans-2c" d="M 750 794 
L 1409 794 
L 1409 256 
L 897 -744 
L 494 -744 
L 750 256 
L 750 794 
z
" transform="scale(0.015625)"/>
     <path id="DejaVuSans-6b" d="M 581 4863 
L 1159 4863 
L 1159 1991 
L 2875 3500 
L 3609 3500 
L 1753 1863 
L 3688 0 
L 2938 0 
L 1159 1709 
L 1159 0 
L 581 0 
L 581 4863 
z
" transform="scale(0.015625)"/>
    </defs>
    <use xlink:href="#DejaVuSans-4e"/>
    <use xlink:href="#DejaVuSans-6f" x="74.804688"/>
    <use xlink:href="#DejaVuSans-74" x="135.986328"/>
    <use xlink:href="#DejaVuSans-61" x="175.195312"/>
    <use xlink:href="#DejaVuSans-3a" x="236.474609"/>
    <use xlink:href="#DejaVuSans-20" x="270.166016"/>
    <use xlink:href="#DejaVuSans-70" x="301.953125"/>
    <use xlink:href="#DejaVuSans-65" x="365.429688"/>
    <use xlink:href="#DejaVuSans-72" x="426.953125"/>
    <use xlink:href="#DejaVuSans-63" x="465.816406"/>
    <use xlink:href="#DejaVuSans-65" x="520.796875"/>
    <use xlink:href="#DejaVuSans-6e" x="582.320312"/>
    <use xlink:href="#DejaVuSans-74" x="645.699219"/>
    <use xlink:href="#DejaVuSans-69" x="684.908203"/>
    <use xlink:href="#DejaVuSans-6c" x="712.691406"/>
    <use xlink:href="#DejaVuSans-65" x="740.474609"/>
    <use xlink:href="#DejaVuSans-73" x="801.998047"/>
    <use xlink:href="#DejaVuSans-20" x="854.097656"/>
    <use xlink:href="#DejaVuSans-64" x="885.884766"/>
    <use xlink:href="#DejaVuSans-65" x="949.361328"/>
    <use xlink:href="#DejaVuSans-73" x="1010.884766"/>
    <use xlink:href="#DejaVuSans-63" x="1062.984375"/>
    <use xlink:href="#DejaVuSans-72" x="1117.964844"/>
    <use xlink:href="#DejaVuSans-69" x="1159.078125"/>
    <use xlink:href="#DejaVuSans-70" x="1186.861328"/>
    <use xlink:href="#DejaVuSans-74" x="1250.337891"/>
    <use xlink:href="#DejaVuSans-69" x="1289.546875"/>
    <use xlink:href="#DejaVuSans-76" x="1317.330078"/>
    <use xlink:href="#DejaVuSans-6f" x="1376.509766"/>
    <use xlink:href="#DejaVuSans-73" x="1437.691406"/>
    <use xlink:href="#DejaVuSans-20" x="1489.791016"/>
    <use xlink:href="#DejaVuSans-69" x="1521.578125"/>
    <use xlink:href="#DejaVuSans-6e" x="1549.361328"/>
    <use xlink:href="#DejaVuSans-2d" x="1612.740234"/>
    <use xlink:href="#DejaVuSans-73" x="1648.824219"/>
    <use xlink:href="#DejaVuSans-61" x="1700.923828"/>
    <use xlink:href="#DejaVuSans-6d" x="1762.203125"/>
    <use xlink:href="#DejaVuSans-70" x="1859.615234"/>
    <use xlink:href="#DejaVuSans-6c" x="1923.091797"/>
    <use xlink:href="#DejaVuSans-65" x="1950.875"/>
    <use xlink:href="#DejaVuSans-3b" x="2012.398438"/>
    <use xlink:href="#DejaVuSans-20" x="2046.089844"/>
    <use xlink:href="#DejaVuSans-6e" x="2077.876953"/>
    <use xlink:href="#DejaVuSans-6f" x="2141.255859"/>
    <use xlink:href="#DejaVuSans-20" x="2202.4375"/>
    <use xlink:href="#DejaVuSans-63" x="2234.224609"/>
    <use xlink:href="#DejaVuSans-61" x="2289.205078"/>
    <use xlink:href="#DejaVuSans-75" x="2350.484375"/>
    <use xlink:href="#DejaVuSans-73" x="2413.863281"/>
    <use xlink:href="#DejaVuSans-61" x="2465.962891"/>
    <use xlink:href="#DejaVuSans-6c" x="2527.242188"/>
    <use xlink:href="#DejaVuSans-69" x="2555.025391"/>
    <use xlink:href="#DejaVuSans-64" x="2582.808594"/>
    <use xlink:href="#DejaVuSans-61" x="2646.285156"/>
    <use xlink:href="#DejaVuSans-64" x="2707.564453"/>
    <use xlink:href="#DejaVuSans-2e" x="2771.041016"/>
    <use xlink:href="#DejaVuSans-20" x="2802.828125"/>
    <use xlink:href="#DejaVuSans-51" x="2834.615234"/>
    <use xlink:href="#DejaVuSans-34" x="2913.326172"/>
    <use xlink:href="#DejaVuSans-20" x="2976.949219"/>
    <use xlink:href="#DejaVuSans-65" x="3008.736328"/>
    <use xlink:href="#DejaVuSans-73" x="3070.259766"/>
    <use xlink:href="#DejaVuSans-20" x="3122.359375"/>
    <use xlink:href="#DejaVuSans-74" x="3154.146484"/>
    <use xlink:href="#DejaVuSans-69" x="3193.355469"/>
    <use xlink:href="#DejaVuSans-70" x="3221.138672"/>
    <use xlink:href="#DejaVuSans-6f" x="3284.615234"/>
    <use xlink:href="#DejaVuSans-6c" x="3345.796875"/>
    <use xlink:href="#DejaVuSans-6f" x="3373.580078"/>
    <use xlink:href="#DejaVuSans-67" x="3434.761719"/>
    <use xlink:href="#DejaVuSans-ed" x="3498.238281"/>
    <use xlink:href="#DejaVuSans-61" x="3526.021484"/>
    <use xlink:href="#DejaVuSans-20" x="3587.300781"/>
    <use xlink:href="#DejaVuSans-64" x="3619.087891"/>
    <use xlink:href="#DejaVuSans-65" x="3682.564453"/>
    <use xlink:href="#DejaVuSans-20" x="3744.087891"/>
    <use xlink:href="#DejaVuSans-63" x="3775.875"/>
    <use xlink:href="#DejaVuSans-6c" x="3830.855469"/>
    <use xlink:href="#DejaVuSans-75" x="3858.638672"/>
    <use xlink:href="#DejaVuSans-73" x="3922.017578"/>
    <use xlink:href="#DejaVuSans-74" x="3974.117188"/>
    <use xlink:href="#DejaVuSans-65" x="4013.326172"/>
    <use xlink:href="#DejaVuSans-72" x="4074.849609"/>
    <use xlink:href="#DejaVuSans-2c" x="4115.962891"/>
    <use xlink:href="#DejaVuSans-20" x="4147.75"/>
    <use xlink:href="#DejaVuSans-6e" x="4179.537109"/>
    <use xlink:href="#DejaVuSans-6f" x="4242.916016"/>
    <use xlink:href="#DejaVuSans-20" x="4304.097656"/>
    <use xlink:href="#DejaVuSans-72" x="4335.884766"/>
    <use xlink:href="#DejaVuSans-61" x="4376.998047"/>
    <use xlink:href="#DejaVuSans-6e" x="4438.277344"/>
    <use xlink:href="#DejaVuSans-6b" x="4501.65625"/>
    <use xlink:href="#DejaVuSans-69" x="4559.566406"/>
    <use xlink:href="#DejaVuSans-6e" x="4587.349609"/>
    <use xlink:href="#DejaVuSans-67" x="4650.728516"/>
    <use xlink:href="#DejaVuSans-20" x="4714.205078"/>
    <use xlink:href="#DejaVuSans-6e" x="4745.992188"/>
    <use xlink:href="#DejaVuSans-6f" x="4809.371094"/>
    <use xlink:href="#DejaVuSans-72" x="4870.552734"/>
    <use xlink:href="#DejaVuSans-6d" x="4909.916016"/>
    <use xlink:href="#DejaVuSans-61" x="5007.328125"/>
    <use xlink:href="#DejaVuSans-74" x="5068.607422"/>
    <use xlink:href="#DejaVuSans-69" x="5107.816406"/>
    <use xlink:href="#DejaVuSans-76" x="5135.599609"/>
    <use xlink:href="#DejaVuSans-6f" x="5194.779297"/>
    <use xlink:href="#DejaVuSans-2e" x="5254.210938"/>
   </g>
  </g>
 </g>
 <defs>
  <clipPath id="p9092ffcda9">
   <path d="M 351.72 210.737449 
C 351.72 188.896506 347.417811 167.26794 339.059644 147.08954 
C 330.701477 126.91114 318.449878 108.575327 303.006 93.131449 
C 287.562121 77.68757 269.226308 65.435971 249.047908 57.077805 
C 228.869509 48.719638 207.240942 44.417449 185.4 44.417449 
C 163.559058 44.417449 141.930491 48.719638 121.752092 57.077805 
C 101.573692 65.435971 83.237879 77.68757 67.794 93.131449 
C 52.350122 108.575327 40.098523 126.91114 31.740356 147.08954 
C 23.382189 167.26794 19.08 188.896506 19.08 210.737449 
C 19.08 232.578391 23.382189 254.206957 31.740356 274.385357 
C 40.098523 294.563757 52.350122 312.89957 67.794 328.343448 
C 83.237879 343.787327 101.573692 356.038926 121.752092 364.397092 
C 141.930491 372.755259 163.559058 377.057449 185.4 377.057449 
C 207.240942 377.057449 228.869509 372.755259 249.047908 364.397092 
C 269.226308 356.038926 287.562121 343.787327 303.006 328.343448 
C 318.449878 312.89957 330.701477 294.563757 339.059644 274.385357 
C 347.417811 254.206957 351.72 232.578391 351.72 210.737449 
M 185.4 210.737449 
C 185.4 210.737449 185.4 210.737449 185.4 210.737449 
C 185.4 210.737449 185.4 210.737449 185.4 210.737449 
C 185.4 210.737449 185.4 210.737449 185.4 210.737449 
C 185.4 210.737449 185.4 210.737449 185.4 210.737449 
C 185.4 210.737449 185.4 210.737449 185.4 210.737449 
C 185.4 210.737449 185.4 210.737449 185.4 210.737449 
C 185.4 210.737449 185.4 210.737449 185.4 210.737449 
C 185.4 210.737449 185.4 210.737449 185.4 210.737449 
C 185.4 210.737449 185.4 210.737449 185.4 210.737449 
C 185.4 210.737449 185.4 210.737449 185.4 210.737449 
C 185.4 210.737449 185.4 210.737449 185.4 210.737449 
C 185.4 210.737449 185.4 210.737449 185.4 210.737449 
C 185.4 210.737449 185.4 210.737449 185.4 210.737449 
C 185.4 210.737449 185.4 210.737449 185.4 210.737449 
C 185.4 210.737449 185.4 210.737449 185.4 210.737449 
C 185.4 210.737449 185.4 210.737449 185.4 210.737449 
M 351.72 210.737449 
z
"/>
  </clipPath>
 </defs>
</svg>
