<?xml version="1.0" encoding="utf-8" standalone="no"?>
<!DOCTYPE svg PUBLIC "-//W3C//DTD SVG 1.1//EN"
  "http://www.w3.org/Graphics/SVG/1.1/DTD/svg11.dtd">
<svg xmlns:xlink="http://www.w3.org/1999/xlink" width="561.252969pt" height="424.801199pt" viewBox="0 0 561.252969 424.801199" xmlns="http://www.w3.org/2000/svg" version="1.1">
 <metadata>
  <rdf:RDF xmlns:dc="http://purl.org/dc/elements/1.1/" xmlns:cc="http://creativecommons.org/ns#" xmlns:rdf="http://www.w3.org/1999/02/22-rdf-syntax-ns#">
   <cc:Work>
    <dc:type rdf:resource="http://purl.org/dc/dcmitype/StillImage"/>
    <dc:date>2026-05-08T14:17:06.795508</dc:date>
    <dc:format>image/svg+xml</dc:format>
    <dc:creator>
     <cc:Agent>
      <dc:title>Matplotlib v3.6.3, https://matplotlib.org/</dc:title>
     </cc:Agent>
    </dc:creator>
   </cc:Work>
  </rdf:RDF>
 </metadata>
 <defs>
  <style type="text/css">*{stroke-linejoin: round; stroke-linecap: butt}</style>
 </defs>
 <g id="figure_1">
  <g id="patch_1">
   <path d="M 0 424.801199 
L 561.252969 424.801199 
L 561.252969 0 
L 0 0 
z
" style="fill: #ffffff"/>
  </g>
  <g id="axes_1">
   <g id="patch_2">
    <path d="M 446.946484 210.737449 
C 446.946484 188.896506 442.644295 167.26794 434.286128 147.08954 
C 425.927961 126.91114 413.676363 108.575327 398.232484 93.131449 
C 382.788606 77.68757 364.452792 65.435971 344.274393 57.077805 
C 324.095993 48.719638 302.467427 44.417449 280.626484 44.417449 
C 258.785542 44.417449 237.156975 48.719638 216.978576 57.077805 
C 196.800176 65.435971 178.464363 77.68757 163.020485 93.131449 
C 147.576606 108.575327 135.325007 126.91114 126.966841 147.08954 
C 118.608674 167.26794 114.306484 188.896506 114.306484 210.737449 
C 114.306484 232.578391 118.608674 254.206957 126.966841 274.385357 
C 135.325007 294.563757 147.576606 312.89957 163.020485 328.343448 
C 178.464363 343.787327 196.800176 356.038926 216.978576 364.397092 
C 237.156975 372.755259 258.785542 377.057449 280.626484 377.057449 
C 302.467427 377.057449 324.095993 372.755259 344.274393 364.397092 
C 364.452792 356.038926 382.788606 343.787327 398.232484 328.343448 
C 413.676363 312.89957 425.927961 294.563757 434.286128 274.385357 
C 442.644295 254.206957 446.946484 232.578391 446.946484 210.737449 
M 280.626484 210.737449 
C 280.626484 210.737449 280.626484 210.737449 280.626484 210.737449 
C 280.626484 210.737449 280.626484 210.737449 280.626484 210.737449 
C 280.626484 210.737449 280.626484 210.737449 280.626484 210.737449 
C 280.626484 210.737449 280.626484 210.737449 280.626484 210.737449 
C 280.626484 210.737449 280.626484 210.737449 280.626484 210.737449 
C 280.626484 210.737449 280.626484 210.737449 280.626484 210.737449 
C 280.626484 210.737449 280.626484 210.737449 280.626484 210.737449 
C 280.626484 210.737449 280.626484 210.737449 280.626484 210.737449 
C 280.626484 210.737449 280.626484 210.737449 280.626484 210.737449 
C 280.626484 210.737449 280.626484 210.737449 280.626484 210.737449 
C 280.626484 210.737449 280.626484 210.737449 280.626484 210.737449 
C 280.626484 210.737449 280.626484 210.737449 280.626484 210.737449 
C 280.626484 210.737449 280.626484 210.737449 280.626484 210.737449 
C 280.626484 210.737449 280.626484 210.737449 280.626484 210.737449 
C 280.626484 210.737449 280.626484 210.737449 280.626484 210.737449 
C 280.626484 210.737449 280.626484 210.737449 280.626484 210.737449 
M 446.946484 210.737449 
z
" style="fill: #ffffff"/>
   </g>
   <g id="patch_3">
    <path d="M 408.46081 210.737449 
L 310.683278 118.232148 
L 198.224152 150.86865 
L 226.759499 249.874104 
L 325.255539 348.091556 
z
" clip-path="url(#p312b7707b1)" style="fill: #3498db; opacity: 0.2; stroke: #3498db; stroke-linejoin: miter"/>
   </g>
   <g id="matplotlib.axis_1">
    <g id="xtick_1">
     <g id="line2d_1">
      <path d="M 280.626484 210.737449 
L 446.946484 210.737449 
" clip-path="url(#p312b7707b1)" style="fill: none; stroke: #b0b0b0; stroke-width: 0.8; stroke-linecap: square"/>
     </g>
     <g id="text_1">
      <!-- Q1 -->
      <g transform="translate(453.829297 213.496824) scale(0.1 -0.1)">
       <defs>
        <path id="DejaVuSans-51" d="M 2522 4238 
Q 1834 4238 1429 3725 
Q 1025 3213 1025 2328 
Q 1025 1447 1429 934 
Q 1834 422 2522 422 
Q 3209 422 3611 934 
Q 4013 1447 4013 2328 
Q 4013 3213 3611 3725 
Q 3209 4238 2522 4238 
z
M 3406 84 
L 4238 -825 
L 3475 -825 
L 2784 -78 
Q 2681 -84 2626 -87 
Q 2572 -91 2522 -91 
Q 1538 -91 948 567 
Q 359 1225 359 2328 
Q 359 3434 948 4092 
Q 1538 4750 2522 4750 
Q 3503 4750 4090 4092 
Q 4678 3434 4678 2328 
Q 4678 1516 4351 937 
Q 4025 359 3406 84 
z
" transform="scale(0.015625)"/>
        <path id="DejaVuSans-31" d="M 794 531 
L 1825 531 
L 1825 4091 
L 703 3866 
L 703 4441 
L 1819 4666 
L 2450 4666 
L 2450 531 
L 3481 531 
L 3481 0 
L 794 0 
L 794 531 
z
" transform="scale(0.015625)"/>
       </defs>
       <use xlink:href="#DejaVuSans-51"/>
       <use xlink:href="#DejaVuSans-31" x="78.710938"/>
      </g>
     </g>
    </g>
    <g id="xtick_2">
     <g id="line2d_2">
      <path d="M 280.626484 210.737449 
L 332.022191 52.557729 
" clip-path="url(#p312b7707b1)" style="fill: none; stroke: #b0b0b0; stroke-width: 0.8; stroke-linecap: square"/>
     </g>
     <g id="text_2">
      <!-- Q2 -->
      <g transform="translate(329.231241 42.002312) scale(0.1 -0.1)">
       <defs>
        <path id="DejaVuSans-32" d="M 1228 531 
L 3431 531 
L 3431 0 
L 469 0 
L 469 531 
Q 828 903 1448 1529 
Q 2069 2156 2228 2338 
Q 2531 2678 2651 2914 
Q 2772 3150 2772 3378 
Q 2772 3750 2511 3984 
Q 2250 4219 1831 4219 
Q 1534 4219 1204 4116 
Q 875 4013 500 3803 
L 500 4441 
Q 881 4594 1212 4672 
Q 1544 4750 1819 4750 
Q 2544 4750 2975 4387 
Q 3406 4025 3406 3419 
Q 3406 3131 3298 2873 
Q 3191 2616 2906 2266 
Q 2828 2175 2409 1742 
Q 1991 1309 1228 531 
z
" transform="scale(0.015625)"/>
       </defs>
       <use xlink:href="#DejaVuSans-51"/>
       <use xlink:href="#DejaVuSans-32" x="78.710938"/>
      </g>
     </g>
    </g>
    <g id="xtick_3">
     <g id="line2d_3">
      <path d="M 280.626484 210.737449 
L 146.070778 112.977005 
" clip-path="url(#p312b7707b1)" style="fill: none; stroke: #b0b0b0; stroke-width: 0.8; stroke-linecap: square"/>
     </g>
     <g id="text_3">
      <!-- Q3 -->
      <g transform="translate(127.627352 107.507387) scale(0.1 -0.1)">
       <defs>
        <path id="DejaVuSans-33" d="M 2597 2516 
Q 3050 2419 3304 2112 
Q 3559 1806 3559 1356 
Q 3559 666 3084 287 
Q 2609 -91 1734 -91 
Q 1441 -91 1130 -33 
Q 819 25 488 141 
L 488 750 
Q 750 597 1062 519 
Q 1375 441 1716 441 
Q 2309 441 2620 675 
Q 2931 909 2931 1356 
Q 2931 1769 2642 2001 
Q 2353 2234 1838 2234 
L 1294 2234 
L 1294 2753 
L 1863 2753 
Q 2328 2753 2575 2939 
Q 2822 3125 2822 3475 
Q 2822 3834 2567 4026 
Q 2313 4219 1838 4219 
Q 1578 4219 1281 4162 
Q 984 4106 628 3988 
L 628 4550 
Q 988 4650 1302 4700 
Q 1616 4750 1894 4750 
Q 2613 4750 3031 4423 
Q 3450 4097 3450 3541 
Q 3450 3153 3228 2886 
Q 3006 2619 2597 2516 
z
" transform="scale(0.015625)"/>
       </defs>
       <use xlink:href="#DejaVuSans-51"/>
       <use xlink:href="#DejaVuSans-33" x="78.710938"/>
      </g>
     </g>
    </g>
    <g id="xtick_4">
     <g id="line2d_4">
      <path d="M 280.626484 210.737449 
L 146.070778 308.497892 
" clip-path="url(#p312b7707b1)" style="fill: none; stroke: #b0b0b0; stroke-width: 0.8; stroke-linecap: square"/>
     </g>
     <g id="text_4">
      <!-- Q5 -->
      <g transform="translate(127.627352 319.48626) scale(0.1 -0.1)">
       <defs>
        <path id="DejaVuSans-35" d="M 691 4666 
L 3169 4666 
L 3169 4134 
L 1269 4134 
L 1269 2991 
Q 1406 3038 1543 3061 
Q 1681 3084 1819 3084 
Q 2600 3084 3056 2656 
Q 3513 2228 3513 1497 
Q 3513 744 3044 326 
Q 2575 -91 1722 -91 
Q 1428 -91 1123 -41 
Q 819 9 494 109 
L 494 744 
Q 775 591 1075 516 
Q 1375 441 1709 441 
Q 2250 441 2565 725 
Q 2881 1009 2881 1497 
Q 2881 1984 2565 2268 
Q 2250 2553 1709 2553 
Q 1456 2553 1204 2497 
Q 953 2441 691 2322 
L 691 4666 
z
" transform="scale(0.015625)"/>
       </defs>
       <use xlink:href="#DejaVuSans-51"/>
       <use xlink:href="#DejaVuSans-35" x="78.710938"/>
      </g>
     </g>
    </g>
    <g id="xtick_5">
     <g id="line2d_5">
      <path d="M 280.626484 210.737449 
L 332.022191 368.917168 
" clip-path="url(#p312b7707b1)" style="fill: none; stroke: #b0b0b0; stroke-width: 0.8; stroke-linecap: square"/>
     </g>
     <g id="text_5">
      <!-- Q6 -->
      <g transform="translate(329.231241 384.991335) scale(0.1 -0.1)">
       <defs>
        <path id="DejaVuSans-36" d="M 2113 2584 
Q 1688 2584 1439 2293 
Q 1191 2003 1191 1497 
Q 1191 994 1439 701 
Q 1688 409 2113 409 
Q 2538 409 2786 701 
Q 3034 994 3034 1497 
Q 3034 2003 2786 2293 
Q 2538 2584 2113 2584 
z
M 3366 4563 
L 3366 3988 
Q 3128 4100 2886 4159 
Q 2644 4219 2406 4219 
Q 1781 4219 1451 3797 
Q 1122 3375 1075 2522 
Q 1259 2794 1537 2939 
Q 1816 3084 2150 3084 
Q 2853 3084 3261 2657 
Q 3669 2231 3669 1497 
Q 3669 778 3244 343 
Q 2819 -91 2113 -91 
Q 1303 -91 875 529 
Q 447 1150 447 2328 
Q 447 3434 972 4092 
Q 1497 4750 2381 4750 
Q 2619 4750 2861 4703 
Q 3103 4656 3366 4563 
z
" transform="scale(0.015625)"/>
       </defs>
       <use xlink:href="#DejaVuSans-51"/>
       <use xlink:href="#DejaVuSans-36" x="78.710938"/>
      </g>
     </g>
    </g>
   </g>
   <g id="matplotlib.axis_2">
    <g id="ytick_1">
     <g id="line2d_6">
      <path d="M 313.890484 210.737449 
C 313.890484 206.36926 313.030046 202.043547 311.358413 198.007867 
C 309.68678 193.972187 307.23646 190.305024 304.147684 187.216249 
C 301.058909 184.127473 297.391746 181.677153 293.356066 180.00552 
C 289.320386 178.333886 284.994673 177.473449 280.626484 177.473449 
C 276.258296 177.473449 271.932583 178.333886 267.896903 180.00552 
C 263.861223 181.677153 260.19406 184.127473 257.105284 187.216249 
C 254.016509 190.305024 251.566189 193.972187 249.894556 198.007867 
C 248.222922 202.043547 247.362484 206.36926 247.362484 210.737449 
C 247.362484 215.105637 248.222922 219.43135 249.894556 223.46703 
C 251.566189 227.50271 254.016509 231.169873 257.105284 234.258648 
C 260.19406 237.347424 263.861223 239.797744 267.896903 241.469377 
C 271.932583 243.141011 276.258296 244.001449 280.626484 244.001449 
C 284.994673 244.001449 289.320386 243.141011 293.356066 241.469377 
C 297.391746 239.797744 301.058909 237.347424 304.147684 234.258648 
C 307.23646 231.169873 309.68678 227.50271 311.358413 223.46703 
C 313.030046 219.43135 313.890484 215.105637 313.890484 210.737449 
" clip-path="url(#p312b7707b1)" style="fill: none; stroke: #b0b0b0; stroke-width: 0.8; stroke-linecap: square"/>
     </g>
     <g id="text_6">
      <!-- 0.2 -->
      <g transform="translate(311.358413 195.928179) scale(0.1 -0.1)">
       <defs>
        <path id="DejaVuSans-30" d="M 2034 4250 
Q 1547 4250 1301 3770 
Q 1056 3291 1056 2328 
Q 1056 1369 1301 889 
Q 1547 409 2034 409 
Q 2525 409 2770 889 
Q 3016 1369 3016 2328 
Q 3016 3291 2770 3770 
Q 2525 4250 2034 4250 
z
M 2034 4750 
Q 2819 4750 3233 4129 
Q 3647 3509 3647 2328 
Q 3647 1150 3233 529 
Q 2819 -91 2034 -91 
Q 1250 -91 836 529 
Q 422 1150 422 2328 
Q 422 3509 836 4129 
Q 1250 4750 2034 4750 
z
" transform="scale(0.015625)"/>
        <path id="DejaVuSans-2e" d="M 684 794 
L 1344 794 
L 1344 0 
L 684 0 
L 684 794 
z
" transform="scale(0.015625)"/>
       </defs>
       <use xlink:href="#DejaVuSans-30"/>
       <use xlink:href="#DejaVuSans-2e" x="63.623047"/>
       <use xlink:href="#DejaVuSans-32" x="95.410156"/>
      </g>
     </g>
    </g>
    <g id="ytick_2">
     <g id="line2d_7">
      <path d="M 347.154484 210.737449 
C 347.154484 202.001072 345.433609 193.349645 342.090342 185.278285 
C 338.747075 177.206925 333.846436 169.8726 327.668884 163.695049 
C 321.491333 157.517497 314.157008 152.616858 306.085648 149.273591 
C 298.014288 145.930324 289.362861 144.209449 280.626484 144.209449 
C 271.890107 144.209449 263.238681 145.930324 255.167321 149.273591 
C 247.095961 152.616858 239.761636 157.517497 233.584084 163.695049 
C 227.406533 169.8726 222.505894 177.206925 219.162627 185.278285 
C 215.81936 193.349645 214.098484 202.001072 214.098484 210.737449 
C 214.098484 219.473825 215.81936 228.125252 219.162627 236.196612 
C 222.505894 244.267972 227.406533 251.602297 233.584084 257.779848 
C 239.761636 263.9574 247.095961 268.858039 255.167321 272.201306 
C 263.238681 275.544573 271.890107 277.265449 280.626484 277.265449 
C 289.362861 277.265449 298.014288 275.544573 306.085648 272.201306 
C 314.157008 268.858039 321.491333 263.9574 327.668884 257.779848 
C 333.846436 251.602297 338.747075 244.267972 342.090342 236.196612 
C 345.433609 228.125252 347.154484 219.473825 347.154484 210.737449 
" clip-path="url(#p312b7707b1)" style="fill: none; stroke: #b0b0b0; stroke-width: 0.8; stroke-linecap: square"/>
     </g>
     <g id="text_7">
      <!-- 0.4 -->
      <g transform="translate(342.090342 183.198598) scale(0.1 -0.1)">
       <defs>
        <path id="DejaVuSans-34" d="M 2419 4116 
L 825 1625 
L 2419 1625 
L 2419 4116 
z
M 2253 4666 
L 3047 4666 
L 3047 1625 
L 3713 1625 
L 3713 1100 
L 3047 1100 
L 3047 0 
L 2419 0 
L 2419 1100 
L 313 1100 
L 313 1709 
L 2253 4666 
z
" transform="scale(0.015625)"/>
       </defs>
       <use xlink:href="#DejaVuSans-30"/>
       <use xlink:href="#DejaVuSans-2e" x="63.623047"/>
       <use xlink:href="#DejaVuSans-34" x="95.410156"/>
      </g>
     </g>
    </g>
    <g id="ytick_3">
     <g id="line2d_8">
      <path d="M 380.418484 210.737449 
C 380.418484 197.632883 377.837171 184.655743 372.822271 172.548703 
C 367.807371 160.441664 360.456411 149.440176 351.190084 140.173849 
C 341.923757 130.907522 330.922269 123.556562 318.815229 118.541662 
C 306.70819 113.526762 293.73105 110.945449 280.626484 110.945449 
C 267.521919 110.945449 254.544779 113.526762 242.437739 118.541662 
C 230.3307 123.556562 219.329212 130.907522 210.062884 140.173849 
C 200.796557 149.440176 193.445598 160.441664 188.430698 172.548703 
C 183.415798 184.655743 180.834484 197.632883 180.834484 210.737449 
C 180.834484 223.842014 183.415798 236.819154 188.430698 248.926194 
C 193.445598 261.033233 200.796557 272.034721 210.062884 281.301048 
C 219.329212 290.567375 230.3307 297.918335 242.437739 302.933235 
C 254.544779 307.948135 267.521919 310.529449 280.626484 310.529449 
C 293.73105 310.529449 306.70819 307.948135 318.815229 302.933235 
C 330.922269 297.918335 341.923757 290.567375 351.190084 281.301048 
C 360.456411 272.034721 367.807371 261.033233 372.822271 248.926194 
C 377.837171 236.819154 380.418484 223.842014 380.418484 210.737449 
" clip-path="url(#p312b7707b1)" style="fill: none; stroke: #b0b0b0; stroke-width: 0.8; stroke-linecap: square"/>
     </g>
     <g id="text_8">
      <!-- 0.6 -->
      <g transform="translate(372.822271 170.469016) scale(0.1 -0.1)">
       <use xlink:href="#DejaVuSans-30"/>
       <use xlink:href="#DejaVuSans-2e" x="63.623047"/>
       <use xlink:href="#DejaVuSans-36" x="95.410156"/>
      </g>
     </g>
    </g>
    <g id="ytick_4">
     <g id="line2d_9">
      <path d="M 413.682484 210.737449 
C 413.682484 193.264695 410.240733 175.961841 403.554199 159.819122 
C 396.867666 143.676402 387.066387 129.007751 374.711284 116.652649 
C 362.356182 104.297546 347.687531 94.496267 331.544811 87.809733 
C 315.402092 81.1232 298.099238 77.681449 280.626484 77.681449 
C 263.153731 77.681449 245.850877 81.1232 229.708158 87.809733 
C 213.565438 94.496267 198.896787 104.297546 186.541684 116.652649 
C 174.186582 129.007751 164.385303 143.676402 157.698769 159.819122 
C 151.012236 175.961841 147.570484 193.264695 147.570484 210.737449 
C 147.570484 228.210202 151.012236 245.513056 157.698769 261.655775 
C 164.385303 277.798495 174.186582 292.467146 186.541684 304.822248 
C 198.896787 317.177351 213.565438 326.97863 229.708158 333.665164 
C 245.850877 340.351697 263.153731 343.793449 280.626484 343.793449 
C 298.099238 343.793449 315.402092 340.351697 331.544811 333.665164 
C 347.687531 326.97863 362.356182 317.177351 374.711284 304.822248 
C 387.066387 292.467146 396.867666 277.798495 403.554199 261.655775 
C 410.240733 245.513056 413.682484 228.210202 413.682484 210.737449 
" clip-path="url(#p312b7707b1)" style="fill: none; stroke: #b0b0b0; stroke-width: 0.8; stroke-linecap: square"/>
     </g>
     <g id="text_9">
      <!-- 0.8 -->
      <g transform="translate(403.554199 157.739434) scale(0.1 -0.1)">
       <defs>
        <path id="DejaVuSans-38" d="M 2034 2216 
Q 1584 2216 1326 1975 
Q 1069 1734 1069 1313 
Q 1069 891 1326 650 
Q 1584 409 2034 409 
Q 2484 409 2743 651 
Q 3003 894 3003 1313 
Q 3003 1734 2745 1975 
Q 2488 2216 2034 2216 
z
M 1403 2484 
Q 997 2584 770 2862 
Q 544 3141 544 3541 
Q 544 4100 942 4425 
Q 1341 4750 2034 4750 
Q 2731 4750 3128 4425 
Q 3525 4100 3525 3541 
Q 3525 3141 3298 2862 
Q 3072 2584 2669 2484 
Q 3125 2378 3379 2068 
Q 3634 1759 3634 1313 
Q 3634 634 3220 271 
Q 2806 -91 2034 -91 
Q 1263 -91 848 271 
Q 434 634 434 1313 
Q 434 1759 690 2068 
Q 947 2378 1403 2484 
z
M 1172 3481 
Q 1172 3119 1398 2916 
Q 1625 2713 2034 2713 
Q 2441 2713 2670 2916 
Q 2900 3119 2900 3481 
Q 2900 3844 2670 4047 
Q 2441 4250 2034 4250 
Q 1625 4250 1398 4047 
Q 1172 3844 1172 3481 
z
" transform="scale(0.015625)"/>
       </defs>
       <use xlink:href="#DejaVuSans-30"/>
       <use xlink:href="#DejaVuSans-2e" x="63.623047"/>
       <use xlink:href="#DejaVuSans-38" x="95.410156"/>
      </g>
     </g>
    </g>
    <g id="ytick_5">
     <g id="line2d_10">
      <path d="M 446.946484 210.737449 
C 446.946484 188.896506 442.644295 167.26794 434.286128 147.08954 
C 425.927961 126.91114 413.676363 108.575327 398.232484 93.131449 
C 382.788606 77.68757 364.452792 65.435971 344.274393 57.077805 
C 324.095993 48.719638 302.467427 44.417449 280.626484 44.417449 
C 258.785542 44.417449 237.156975 48.719638 216.978576 57.077805 
C 196.800176 65.435971 178.464363 77.68757 163.020485 93.131449 
C 147.576606 108.575327 135.325007 126.91114 126.966841 147.08954 
C 118.608674 167.26794 114.306484 188.896506 114.306484 210.737449 
C 114.306484 232.578391 118.608674 254.206957 126.966841 274.385357 
C 135.325007 294.563757 147.576606 312.89957 163.020485 328.343448 
C 178.464363 343.787327 196.800176 356.038926 216.978576 364.397092 
C 237.156975 372.755259 258.785542 377.057449 280.626484 377.057449 
C 302.467427 377.057449 324.095993 372.755259 344.274393 364.397092 
C 364.452792 356.038926 382.788606 343.787327 398.232484 328.343448 
C 413.676363 312.89957 425.927961 294.563757 434.286128 274.385357 
C 442.644295 254.206957 446.946484 232.578391 446.946484 210.737449 
" clip-path="url(#p312b7707b1)" style="fill: none; stroke: #b0b0b0; stroke-width: 0.8; stroke-linecap: square"/>
     </g>
     <g id="text_10">
      <!-- 1.0 -->
      <g transform="translate(434.286128 145.009853) scale(0.1 -0.1)">
       <use xlink:href="#DejaVuSans-31"/>
       <use xlink:href="#DejaVuSans-2e" x="63.623047"/>
       <use xlink:href="#DejaVuSans-30" x="95.410156"/>
      </g>
     </g>
    </g>
   </g>
   <g id="line2d_11">
    <path d="M 408.46081 210.737449 
L 310.683278 118.232148 
L 198.224152 150.86865 
L 226.759499 249.874104 
L 325.255539 348.091556 
L 408.46081 210.737449 
" clip-path="url(#p312b7707b1)" style="fill: none; stroke: #2c3e50; stroke-width: 2; stroke-linecap: square"/>
   </g>
   <g id="patch_4">
    <path d="M 446.946484 210.737449 
C 446.946484 188.896506 442.644295 167.26794 434.286128 147.08954 
C 425.927961 126.91114 413.676363 108.575327 398.232484 93.131449 
C 382.788606 77.68757 364.452792 65.435971 344.274393 57.077805 
C 324.095993 48.719638 302.467427 44.417449 280.626484 44.417449 
C 258.785542 44.417449 237.156975 48.719638 216.978576 57.077805 
C 196.800176 65.435971 178.464363 77.68757 163.020485 93.131449 
C 147.576606 108.575327 135.325007 126.91114 126.966841 147.08954 
C 118.608674 167.26794 114.306484 188.896506 114.306484 210.737449 
C 114.306484 232.578391 118.608674 254.206957 126.966841 274.385357 
C 135.325007 294.563757 147.576606 312.89957 163.020485 328.343448 
C 178.464363 343.787327 196.800176 356.038926 216.978576 364.397092 
C 237.156975 372.755259 258.785542 377.057449 280.626484 377.057449 
C 302.467427 377.057449 324.095993 372.755259 344.274393 364.397092 
C 364.452792 356.038926 382.788606 343.787327 398.232484 328.343448 
C 413.676363 312.89957 425.927961 294.563757 434.286128 274.385357 
C 442.644295 254.206957 446.946484 232.578391 446.946484 210.737449 
" style="fill: none; stroke: #000000; stroke-width: 0.8; stroke-linejoin: miter; stroke-linecap: square"/>
   </g>
   <g id="text_11">
    <!-- EST — perfil Q1–Q6 -->
    <g transform="translate(227.019531 15.558281) scale(0.11 -0.11)">
     <defs>
      <path id="DejaVuSans-45" d="M 628 4666 
L 3578 4666 
L 3578 4134 
L 1259 4134 
L 1259 2753 
L 3481 2753 
L 3481 2222 
L 1259 2222 
L 1259 531 
L 3634 531 
L 3634 0 
L 628 0 
L 628 4666 
z
" transform="scale(0.015625)"/>
      <path id="DejaVuSans-53" d="M 3425 4513 
L 3425 3897 
Q 3066 4069 2747 4153 
Q 2428 4238 2131 4238 
Q 1616 4238 1336 4038 
Q 1056 3838 1056 3469 
Q 1056 3159 1242 3001 
Q 1428 2844 1947 2747 
L 2328 2669 
Q 3034 2534 3370 2195 
Q 3706 1856 3706 1288 
Q 3706 609 3251 259 
Q 2797 -91 1919 -91 
Q 1588 -91 1214 -16 
Q 841 59 441 206 
L 441 856 
Q 825 641 1194 531 
Q 1563 422 1919 422 
Q 2459 422 2753 634 
Q 3047 847 3047 1241 
Q 3047 1584 2836 1778 
Q 2625 1972 2144 2069 
L 1759 2144 
Q 1053 2284 737 2584 
Q 422 2884 422 3419 
Q 422 4038 858 4394 
Q 1294 4750 2059 4750 
Q 2388 4750 2728 4690 
Q 3069 4631 3425 4513 
z
" transform="scale(0.015625)"/>
      <path id="DejaVuSans-54" d="M -19 4666 
L 3928 4666 
L 3928 4134 
L 2272 4134 
L 2272 0 
L 1638 0 
L 1638 4134 
L -19 4134 
L -19 4666 
z
" transform="scale(0.015625)"/>
      <path id="DejaVuSans-20" transform="scale(0.015625)"/>
      <path id="DejaVuSans-2014" d="M 313 1978 
L 6088 1978 
L 6088 1528 
L 313 1528 
L 313 1978 
z
" transform="scale(0.015625)"/>
      <path id="DejaVuSans-70" d="M 1159 525 
L 1159 -1331 
L 581 -1331 
L 581 3500 
L 1159 3500 
L 1159 2969 
Q 1341 3281 1617 3432 
Q 1894 3584 2278 3584 
Q 2916 3584 3314 3078 
Q 3713 2572 3713 1747 
Q 3713 922 3314 415 
Q 2916 -91 2278 -91 
Q 1894 -91 1617 61 
Q 1341 213 1159 525 
z
M 3116 1747 
Q 3116 2381 2855 2742 
Q 2594 3103 2138 3103 
Q 1681 3103 1420 2742 
Q 1159 2381 1159 1747 
Q 1159 1113 1420 752 
Q 1681 391 2138 391 
Q 2594 391 2855 752 
Q 3116 1113 3116 1747 
z
" transform="scale(0.015625)"/>
      <path id="DejaVuSans-65" d="M 3597 1894 
L 3597 1613 
L 953 1613 
Q 991 1019 1311 708 
Q 1631 397 2203 397 
Q 2534 397 2845 478 
Q 3156 559 3463 722 
L 3463 178 
Q 3153 47 2828 -22 
Q 2503 -91 2169 -91 
Q 1331 -91 842 396 
Q 353 884 353 1716 
Q 353 2575 817 3079 
Q 1281 3584 2069 3584 
Q 2775 3584 3186 3129 
Q 3597 2675 3597 1894 
z
M 3022 2063 
Q 3016 2534 2758 2815 
Q 2500 3097 2075 3097 
Q 1594 3097 1305 2825 
Q 1016 2553 972 2059 
L 3022 2063 
z
" transform="scale(0.015625)"/>
      <path id="DejaVuSans-72" d="M 2631 2963 
Q 2534 3019 2420 3045 
Q 2306 3072 2169 3072 
Q 1681 3072 1420 2755 
Q 1159 2438 1159 1844 
L 1159 0 
L 581 0 
L 581 3500 
L 1159 3500 
L 1159 2956 
Q 1341 3275 1631 3429 
Q 1922 3584 2338 3584 
Q 2397 3584 2469 3576 
Q 2541 3569 2628 3553 
L 2631 2963 
z
" transform="scale(0.015625)"/>
      <path id="DejaVuSans-66" d="M 2375 4863 
L 2375 4384 
L 1825 4384 
Q 1516 4384 1395 4259 
Q 1275 4134 1275 3809 
L 1275 3500 
L 2222 3500 
L 2222 3053 
L 1275 3053 
L 1275 0 
L 697 0 
L 697 3053 
L 147 3053 
L 147 3500 
L 697 3500 
L 697 3744 
Q 697 4328 969 4595 
Q 1241 4863 1831 4863 
L 2375 4863 
z
" transform="scale(0.015625)"/>
      <path id="DejaVuSans-69" d="M 603 3500 
L 1178 3500 
L 1178 0 
L 603 0 
L 603 3500 
z
M 603 4863 
L 1178 4863 
L 1178 4134 
L 603 4134 
L 603 4863 
z
" transform="scale(0.015625)"/>
      <path id="DejaVuSans-6c" d="M 603 4863 
L 1178 4863 
L 1178 0 
L 603 0 
L 603 4863 
z
" transform="scale(0.015625)"/>
      <path id="DejaVuSans-2013" d="M 313 1978 
L 2888 1978 
L 2888 1528 
L 313 1528 
L 313 1978 
z
" transform="scale(0.015625)"/>
     </defs>
     <use xlink:href="#DejaVuSans-45"/>
     <use xlink:href="#DejaVuSans-53" x="63.183594"/>
     <use xlink:href="#DejaVuSans-54" x="126.660156"/>
     <use xlink:href="#DejaVuSans-20" x="187.744141"/>
     <use xlink:href="#DejaVuSans-2014" x="219.53125"/>
     <use xlink:href="#DejaVuSans-20" x="319.53125"/>
     <use xlink:href="#DejaVuSans-70" x="351.318359"/>
     <use xlink:href="#DejaVuSans-65" x="414.794922"/>
     <use xlink:href="#DejaVuSans-72" x="476.318359"/>
     <use xlink:href="#DejaVuSans-66" x="517.431641"/>
     <use xlink:href="#DejaVuSans-69" x="552.636719"/>
     <use xlink:href="#DejaVuSans-6c" x="580.419922"/>
     <use xlink:href="#DejaVuSans-20" x="608.203125"/>
     <use xlink:href="#DejaVuSans-51" x="639.990234"/>
     <use xlink:href="#DejaVuSans-31" x="718.701172"/>
     <use xlink:href="#DejaVuSans-2013" x="782.324219"/>
     <use xlink:href="#DejaVuSans-51" x="832.324219"/>
     <use xlink:href="#DejaVuSans-36" x="911.035156"/>
    </g>
    <!-- Q4: Sin legislación IA nacional específica detectada (regulación regional/delegada o sin datos IAPP) -->
    <g transform="translate(7.2 28.403875) scale(0.11 -0.11)">
     <defs>
      <path id="DejaVuSans-3a" d="M 750 794 
L 1409 794 
L 1409 0 
L 750 0 
L 750 794 
z
M 750 3309 
L 1409 3309 
L 1409 2516 
L 750 2516 
L 750 3309 
z
" transform="scale(0.015625)"/>
      <path id="DejaVuSans-6e" d="M 3513 2113 
L 3513 0 
L 2938 0 
L 2938 2094 
Q 2938 2591 2744 2837 
Q 2550 3084 2163 3084 
Q 1697 3084 1428 2787 
Q 1159 2491 1159 1978 
L 1159 0 
L 581 0 
L 581 3500 
L 1159 3500 
L 1159 2956 
Q 1366 3272 1645 3428 
Q 1925 3584 2291 3584 
Q 2894 3584 3203 3211 
Q 3513 2838 3513 2113 
z
" transform="scale(0.015625)"/>
      <path id="DejaVuSans-67" d="M 2906 1791 
Q 2906 2416 2648 2759 
Q 2391 3103 1925 3103 
Q 1463 3103 1205 2759 
Q 947 2416 947 1791 
Q 947 1169 1205 825 
Q 1463 481 1925 481 
Q 2391 481 2648 825 
Q 2906 1169 2906 1791 
z
M 3481 434 
Q 3481 -459 3084 -895 
Q 2688 -1331 1869 -1331 
Q 1566 -1331 1297 -1286 
Q 1028 -1241 775 -1147 
L 775 -588 
Q 1028 -725 1275 -790 
Q 1522 -856 1778 -856 
Q 2344 -856 2625 -561 
Q 2906 -266 2906 331 
L 2906 616 
Q 2728 306 2450 153 
Q 2172 0 1784 0 
Q 1141 0 747 490 
Q 353 981 353 1791 
Q 353 2603 747 3093 
Q 1141 3584 1784 3584 
Q 2172 3584 2450 3431 
Q 2728 3278 2906 2969 
L 2906 3500 
L 3481 3500 
L 3481 434 
z
" transform="scale(0.015625)"/>
      <path id="DejaVuSans-73" d="M 2834 3397 
L 2834 2853 
Q 2591 2978 2328 3040 
Q 2066 3103 1784 3103 
Q 1356 3103 1142 2972 
Q 928 2841 928 2578 
Q 928 2378 1081 2264 
Q 1234 2150 1697 2047 
L 1894 2003 
Q 2506 1872 2764 1633 
Q 3022 1394 3022 966 
Q 3022 478 2636 193 
Q 2250 -91 1575 -91 
Q 1294 -91 989 -36 
Q 684 19 347 128 
L 347 722 
Q 666 556 975 473 
Q 1284 391 1588 391 
Q 1994 391 2212 530 
Q 2431 669 2431 922 
Q 2431 1156 2273 1281 
Q 2116 1406 1581 1522 
L 1381 1569 
Q 847 1681 609 1914 
Q 372 2147 372 2553 
Q 372 3047 722 3315 
Q 1072 3584 1716 3584 
Q 2034 3584 2315 3537 
Q 2597 3491 2834 3397 
z
" transform="scale(0.015625)"/>
      <path id="DejaVuSans-61" d="M 2194 1759 
Q 1497 1759 1228 1600 
Q 959 1441 959 1056 
Q 959 750 1161 570 
Q 1363 391 1709 391 
Q 2188 391 2477 730 
Q 2766 1069 2766 1631 
L 2766 1759 
L 2194 1759 
z
M 3341 1997 
L 3341 0 
L 2766 0 
L 2766 531 
Q 2569 213 2275 61 
Q 1981 -91 1556 -91 
Q 1019 -91 701 211 
Q 384 513 384 1019 
Q 384 1609 779 1909 
Q 1175 2209 1959 2209 
L 2766 2209 
L 2766 2266 
Q 2766 2663 2505 2880 
Q 2244 3097 1772 3097 
Q 1472 3097 1187 3025 
Q 903 2953 641 2809 
L 641 3341 
Q 956 3463 1253 3523 
Q 1550 3584 1831 3584 
Q 2591 3584 2966 3190 
Q 3341 2797 3341 1997 
z
" transform="scale(0.015625)"/>
      <path id="DejaVuSans-63" d="M 3122 3366 
L 3122 2828 
Q 2878 2963 2633 3030 
Q 2388 3097 2138 3097 
Q 1578 3097 1268 2742 
Q 959 2388 959 1747 
Q 959 1106 1268 751 
Q 1578 397 2138 397 
Q 2388 397 2633 464 
Q 2878 531 3122 666 
L 3122 134 
Q 2881 22 2623 -34 
Q 2366 -91 2075 -91 
Q 1284 -91 818 406 
Q 353 903 353 1747 
Q 353 2603 823 3093 
Q 1294 3584 2113 3584 
Q 2378 3584 2631 3529 
Q 2884 3475 3122 3366 
z
" transform="scale(0.015625)"/>
      <path id="DejaVuSans-f3" d="M 1959 3097 
Q 1497 3097 1228 2736 
Q 959 2375 959 1747 
Q 959 1119 1226 758 
Q 1494 397 1959 397 
Q 2419 397 2687 759 
Q 2956 1122 2956 1747 
Q 2956 2369 2687 2733 
Q 2419 3097 1959 3097 
z
M 1959 3584 
Q 2709 3584 3137 3096 
Q 3566 2609 3566 1747 
Q 3566 888 3137 398 
Q 2709 -91 1959 -91 
Q 1206 -91 779 398 
Q 353 888 353 1747 
Q 353 2609 779 3096 
Q 1206 3584 1959 3584 
z
M 2394 5119 
L 3016 5119 
L 1997 3944 
L 1519 3944 
L 2394 5119 
z
" transform="scale(0.015625)"/>
      <path id="DejaVuSans-49" d="M 628 4666 
L 1259 4666 
L 1259 0 
L 628 0 
L 628 4666 
z
" transform="scale(0.015625)"/>
      <path id="DejaVuSans-41" d="M 2188 4044 
L 1331 1722 
L 3047 1722 
L 2188 4044 
z
M 1831 4666 
L 2547 4666 
L 4325 0 
L 3669 0 
L 3244 1197 
L 1141 1197 
L 716 0 
L 50 0 
L 1831 4666 
z
" transform="scale(0.015625)"/>
      <path id="DejaVuSans-6f" d="M 1959 3097 
Q 1497 3097 1228 2736 
Q 959 2375 959 1747 
Q 959 1119 1226 758 
Q 1494 397 1959 397 
Q 2419 397 2687 759 
Q 2956 1122 2956 1747 
Q 2956 2369 2687 2733 
Q 2419 3097 1959 3097 
z
M 1959 3584 
Q 2709 3584 3137 3096 
Q 3566 2609 3566 1747 
Q 3566 888 3137 398 
Q 2709 -91 1959 -91 
Q 1206 -91 779 398 
Q 353 888 353 1747 
Q 353 2609 779 3096 
Q 1206 3584 1959 3584 
z
" transform="scale(0.015625)"/>
      <path id="DejaVuSans-ed" d="M 1325 5119 
L 1947 5119 
L 928 3944 
L 450 3944 
L 1325 5119 
z
M 603 3500 
L 1178 3500 
L 1178 0 
L 603 0 
L 603 3500 
z
M 891 3584 
L 891 3584 
z
" transform="scale(0.015625)"/>
      <path id="DejaVuSans-64" d="M 2906 2969 
L 2906 4863 
L 3481 4863 
L 3481 0 
L 2906 0 
L 2906 525 
Q 2725 213 2448 61 
Q 2172 -91 1784 -91 
Q 1150 -91 751 415 
Q 353 922 353 1747 
Q 353 2572 751 3078 
Q 1150 3584 1784 3584 
Q 2172 3584 2448 3432 
Q 2725 3281 2906 2969 
z
M 947 1747 
Q 947 1113 1208 752 
Q 1469 391 1925 391 
Q 2381 391 2643 752 
Q 2906 1113 2906 1747 
Q 2906 2381 2643 2742 
Q 2381 3103 1925 3103 
Q 1469 3103 1208 2742 
Q 947 2381 947 1747 
z
" transform="scale(0.015625)"/>
      <path id="DejaVuSans-74" d="M 1172 4494 
L 1172 3500 
L 2356 3500 
L 2356 3053 
L 1172 3053 
L 1172 1153 
Q 1172 725 1289 603 
Q 1406 481 1766 481 
L 2356 481 
L 2356 0 
L 1766 0 
Q 1100 0 847 248 
Q 594 497 594 1153 
L 594 3053 
L 172 3053 
L 172 3500 
L 594 3500 
L 594 4494 
L 1172 4494 
z
" transform="scale(0.015625)"/>
      <path id="DejaVuSans-28" d="M 1984 4856 
Q 1566 4138 1362 3434 
Q 1159 2731 1159 2009 
Q 1159 1288 1364 580 
Q 1569 -128 1984 -844 
L 1484 -844 
Q 1016 -109 783 600 
Q 550 1309 550 2009 
Q 550 2706 781 3412 
Q 1013 4119 1484 4856 
L 1984 4856 
z
" transform="scale(0.015625)"/>
      <path id="DejaVuSans-75" d="M 544 1381 
L 544 3500 
L 1119 3500 
L 1119 1403 
Q 1119 906 1312 657 
Q 1506 409 1894 409 
Q 2359 409 2629 706 
Q 2900 1003 2900 1516 
L 2900 3500 
L 3475 3500 
L 3475 0 
L 2900 0 
L 2900 538 
Q 2691 219 2414 64 
Q 2138 -91 1772 -91 
Q 1169 -91 856 284 
Q 544 659 544 1381 
z
M 1991 3584 
L 1991 3584 
z
" transform="scale(0.015625)"/>
      <path id="DejaVuSans-2f" d="M 1625 4666 
L 2156 4666 
L 531 -594 
L 0 -594 
L 1625 4666 
z
" transform="scale(0.015625)"/>
      <path id="DejaVuSans-50" d="M 1259 4147 
L 1259 2394 
L 2053 2394 
Q 2494 2394 2734 2622 
Q 2975 2850 2975 3272 
Q 2975 3691 2734 3919 
Q 2494 4147 2053 4147 
L 1259 4147 
z
M 628 4666 
L 2053 4666 
Q 2838 4666 3239 4311 
Q 3641 3956 3641 3272 
Q 3641 2581 3239 2228 
Q 2838 1875 2053 1875 
L 1259 1875 
L 1259 0 
L 628 0 
L 628 4666 
z
" transform="scale(0.015625)"/>
      <path id="DejaVuSans-29" d="M 513 4856 
L 1013 4856 
Q 1481 4119 1714 3412 
Q 1947 2706 1947 2009 
Q 1947 1309 1714 600 
Q 1481 -109 1013 -844 
L 513 -844 
Q 928 -128 1133 580 
Q 1338 1288 1338 2009 
Q 1338 2731 1133 3434 
Q 928 4138 513 4856 
z
" transform="scale(0.015625)"/>
     </defs>
     <use xlink:href="#DejaVuSans-51"/>
     <use xlink:href="#DejaVuSans-34" x="78.710938"/>
     <use xlink:href="#DejaVuSans-3a" x="142.333984"/>
     <use xlink:href="#DejaVuSans-20" x="176.025391"/>
     <use xlink:href="#DejaVuSans-53" x="207.8125"/>
     <use xlink:href="#DejaVuSans-69" x="271.289062"/>
     <use xlink:href="#DejaVuSans-6e" x="299.072266"/>
     <use xlink:href="#DejaVuSans-20" x="362.451172"/>
     <use xlink:href="#DejaVuSans-6c" x="394.238281"/>
     <use xlink:href="#DejaVuSans-65" x="422.021484"/>
     <use xlink:href="#DejaVuSans-67" x="483.544922"/>
     <use xlink:href="#DejaVuSans-69" x="547.021484"/>
     <use xlink:href="#DejaVuSans-73" x="574.804688"/>
     <use xlink:href="#DejaVuSans-6c" x="626.904297"/>
     <use xlink:href="#DejaVuSans-61" x="654.6875"/>
     <use xlink:href="#DejaVuSans-63" x="715.966797"/>
     <use xlink:href="#DejaVuSans-69" x="770.947266"/>
     <use xlink:href="#DejaVuSans-f3" x="798.730469"/>
     <use xlink:href="#DejaVuSans-6e" x="859.912109"/>
     <use xlink:href="#DejaVuSans-20" x="923.291016"/>
     <use xlink:href="#DejaVuSans-49" x="955.078125"/>
     <use xlink:href="#DejaVuSans-41" x="984.570312"/>
     <use xlink:href="#DejaVuSans-20" x="1052.978516"/>
     <use xlink:href="#DejaVuSans-6e" x="1084.765625"/>
     <use xlink:href="#DejaVuSans-61" x="1148.144531"/>
     <use xlink:href="#DejaVuSans-63" x="1209.423828"/>
     <use xlink:href="#DejaVuSans-69" x="1264.404297"/>
     <use xlink:href="#DejaVuSans-6f" x="1292.1875"/>
     <use xlink:href="#DejaVuSans-6e" x="1353.369141"/>
     <use xlink:href="#DejaVuSans-61" x="1416.748047"/>
     <use xlink:href="#DejaVuSans-6c" x="1478.027344"/>
     <use xlink:href="#DejaVuSans-20" x="1505.810547"/>
     <use xlink:href="#DejaVuSans-65" x="1537.597656"/>
     <use xlink:href="#DejaVuSans-73" x="1599.121094"/>
     <use xlink:href="#DejaVuSans-70" x="1651.220703"/>
     <use xlink:href="#DejaVuSans-65" x="1714.697266"/>
     <use xlink:href="#DejaVuSans-63" x="1776.220703"/>
     <use xlink:href="#DejaVuSans-ed" x="1831.201172"/>
     <use xlink:href="#DejaVuSans-66" x="1858.984375"/>
     <use xlink:href="#DejaVuSans-69" x="1894.189453"/>
     <use xlink:href="#DejaVuSans-63" x="1921.972656"/>
     <use xlink:href="#DejaVuSans-61" x="1976.953125"/>
     <use xlink:href="#DejaVuSans-20" x="2038.232422"/>
     <use xlink:href="#DejaVuSans-64" x="2070.019531"/>
     <use xlink:href="#DejaVuSans-65" x="2133.496094"/>
     <use xlink:href="#DejaVuSans-74" x="2195.019531"/>
     <use xlink:href="#DejaVuSans-65" x="2234.228516"/>
     <use xlink:href="#DejaVuSans-63" x="2295.751953"/>
     <use xlink:href="#DejaVuSans-74" x="2350.732422"/>
     <use xlink:href="#DejaVuSans-61" x="2389.941406"/>
     <use xlink:href="#DejaVuSans-64" x="2451.220703"/>
     <use xlink:href="#DejaVuSans-61" x="2514.697266"/>
     <use xlink:href="#DejaVuSans-20" x="2575.976562"/>
     <use xlink:href="#DejaVuSans-28" x="2607.763672"/>
     <use xlink:href="#DejaVuSans-72" x="2646.777344"/>
     <use xlink:href="#DejaVuSans-65" x="2685.640625"/>
     <use xlink:href="#DejaVuSans-67" x="2747.164062"/>
     <use xlink:href="#DejaVuSans-75" x="2810.640625"/>
     <use xlink:href="#DejaVuSans-6c" x="2874.019531"/>
     <use xlink:href="#DejaVuSans-61" x="2901.802734"/>
     <use xlink:href="#DejaVuSans-63" x="2963.082031"/>
     <use xlink:href="#DejaVuSans-69" x="3018.0625"/>
     <use xlink:href="#DejaVuSans-f3" x="3045.845703"/>
     <use xlink:href="#DejaVuSans-6e" x="3107.027344"/>
     <use xlink:href="#DejaVuSans-20" x="3170.40625"/>
     <use xlink:href="#DejaVuSans-72" x="3202.193359"/>
     <use xlink:href="#DejaVuSans-65" x="3241.056641"/>
     <use xlink:href="#DejaVuSans-67" x="3302.580078"/>
     <use xlink:href="#DejaVuSans-69" x="3366.056641"/>
     <use xlink:href="#DejaVuSans-6f" x="3393.839844"/>
     <use xlink:href="#DejaVuSans-6e" x="3455.021484"/>
     <use xlink:href="#DejaVuSans-61" x="3518.400391"/>
     <use xlink:href="#DejaVuSans-6c" x="3579.679688"/>
     <use xlink:href="#DejaVuSans-2f" x="3607.462891"/>
     <use xlink:href="#DejaVuSans-64" x="3641.154297"/>
     <use xlink:href="#DejaVuSans-65" x="3704.630859"/>
     <use xlink:href="#DejaVuSans-6c" x="3766.154297"/>
     <use xlink:href="#DejaVuSans-65" x="3793.9375"/>
     <use xlink:href="#DejaVuSans-67" x="3855.460938"/>
     <use xlink:href="#DejaVuSans-61" x="3918.9375"/>
     <use xlink:href="#DejaVuSans-64" x="3980.216797"/>
     <use xlink:href="#DejaVuSans-61" x="4043.693359"/>
     <use xlink:href="#DejaVuSans-20" x="4104.972656"/>
     <use xlink:href="#DejaVuSans-6f" x="4136.759766"/>
     <use xlink:href="#DejaVuSans-20" x="4197.941406"/>
     <use xlink:href="#DejaVuSans-73" x="4229.728516"/>
     <use xlink:href="#DejaVuSans-69" x="4281.828125"/>
     <use xlink:href="#DejaVuSans-6e" x="4309.611328"/>
     <use xlink:href="#DejaVuSans-20" x="4372.990234"/>
     <use xlink:href="#DejaVuSans-64" x="4404.777344"/>
     <use xlink:href="#DejaVuSans-61" x="4468.253906"/>
     <use xlink:href="#DejaVuSans-74" x="4529.533203"/>
     <use xlink:href="#DejaVuSans-6f" x="4568.742188"/>
     <use xlink:href="#DejaVuSans-73" x="4629.923828"/>
     <use xlink:href="#DejaVuSans-20" x="4682.023438"/>
     <use xlink:href="#DejaVuSans-49" x="4713.810547"/>
     <use xlink:href="#DejaVuSans-41" x="4743.302734"/>
     <use xlink:href="#DejaVuSans-50" x="4811.710938"/>
     <use xlink:href="#DejaVuSans-50" x="4872.013672"/>
     <use xlink:href="#DejaVuSans-29" x="4932.316406"/>
    </g>
   </g>
  </g>
  <g id="text_12">
   <!-- Nota: percentiles descriptivos in-sample; no causalidad. Q4 es tipología de cluster, no ranking normativo. -->
   <g transform="translate(102.426484 415.937449) scale(0.08 -0.08)">
    <defs>
     <path id="DejaVuSans-4e" d="M 628 4666 
L 1478 4666 
L 3547 763 
L 3547 4666 
L 4159 4666 
L 4159 0 
L 3309 0 
L 1241 3903 
L 1241 0 
L 628 0 
L 628 4666 
z
" transform="scale(0.015625)"/>
     <path id="DejaVuSans-76" d="M 191 3500 
L 800 3500 
L 1894 563 
L 2988 3500 
L 3597 3500 
L 2284 0 
L 1503 0 
L 191 3500 
z
" transform="scale(0.015625)"/>
     <path id="DejaVuSans-2d" d="M 313 2009 
L 1997 2009 
L 1997 1497 
L 313 1497 
L 313 2009 
z
" transform="scale(0.015625)"/>
     <path id="DejaVuSans-6d" d="M 3328 2828 
Q 3544 3216 3844 3400 
Q 4144 3584 4550 3584 
Q 5097 3584 5394 3201 
Q 5691 2819 5691 2113 
L 5691 0 
L 5113 0 
L 5113 2094 
Q 5113 2597 4934 2840 
Q 4756 3084 4391 3084 
Q 3944 3084 3684 2787 
Q 3425 2491 3425 1978 
L 3425 0 
L 2847 0 
L 2847 2094 
Q 2847 2600 2669 2842 
Q 2491 3084 2119 3084 
Q 1678 3084 1418 2786 
Q 1159 2488 1159 1978 
L 1159 0 
L 581 0 
L 581 3500 
L 1159 3500 
L 1159 2956 
Q 1356 3278 1631 3431 
Q 1906 3584 2284 3584 
Q 2666 3584 2933 3390 
Q 3200 3197 3328 2828 
z
" transform="scale(0.015625)"/>
     <path id="DejaVuSans-3b" d="M 750 3309 
L 1409 3309 
L 1409 2516 
L 750 2516 
L 750 3309 
z
M 750 794 
L 1409 794 
L 1409 256 
L 897 -744 
L 494 -744 
L 750 256 
L 750 794 
z
" transform="scale(0.015625)"/>
     <path id="DejaVuSans-2c" d="M 750 794 
L 1409 794 
L 1409 256 
L 897 -744 
L 494 -744 
L 750 256 
L 750 794 
z
" transform="scale(0.015625)"/>
     <path id="DejaVuSans-6b" d="M 581 4863 
L 1159 4863 
L 1159 1991 
L 2875 3500 
L 3609 3500 
L 1753 1863 
L 3688 0 
L 2938 0 
L 1159 1709 
L 1159 0 
L 581 0 
L 581 4863 
z
" transform="scale(0.015625)"/>
    </defs>
    <use xlink:href="#DejaVuSans-4e"/>
    <use xlink:href="#DejaVuSans-6f" x="74.804688"/>
    <use xlink:href="#DejaVuSans-74" x="135.986328"/>
    <use xlink:href="#DejaVuSans-61" x="175.195312"/>
    <use xlink:href="#DejaVuSans-3a" x="236.474609"/>
    <use xlink:href="#DejaVuSans-20" x="270.166016"/>
    <use xlink:href="#DejaVuSans-70" x="301.953125"/>
    <use xlink:href="#DejaVuSans-65" x="365.429688"/>
    <use xlink:href="#DejaVuSans-72" x="426.953125"/>
    <use xlink:href="#DejaVuSans-63" x="465.816406"/>
    <use xlink:href="#DejaVuSans-65" x="520.796875"/>
    <use xlink:href="#DejaVuSans-6e" x="582.320312"/>
    <use xlink:href="#DejaVuSans-74" x="645.699219"/>
    <use xlink:href="#DejaVuSans-69" x="684.908203"/>
    <use xlink:href="#DejaVuSans-6c" x="712.691406"/>
    <use xlink:href="#DejaVuSans-65" x="740.474609"/>
    <use xlink:href="#DejaVuSans-73" x="801.998047"/>
    <use xlink:href="#DejaVuSans-20" x="854.097656"/>
    <use xlink:href="#DejaVuSans-64" x="885.884766"/>
    <use xlink:href="#DejaVuSans-65" x="949.361328"/>
    <use xlink:href="#DejaVuSans-73" x="1010.884766"/>
    <use xlink:href="#DejaVuSans-63" x="1062.984375"/>
    <use xlink:href="#DejaVuSans-72" x="1117.964844"/>
    <use xlink:href="#DejaVuSans-69" x="1159.078125"/>
    <use xlink:href="#DejaVuSans-70" x="1186.861328"/>
    <use xlink:href="#DejaVuSans-74" x="1250.337891"/>
    <use xlink:href="#DejaVuSans-69" x="1289.546875"/>
    <use xlink:href="#DejaVuSans-76" x="1317.330078"/>
    <use xlink:href="#DejaVuSans-6f" x="1376.509766"/>
    <use xlink:href="#DejaVuSans-73" x="1437.691406"/>
    <use xlink:href="#DejaVuSans-20" x="1489.791016"/>
    <use xlink:href="#DejaVuSans-69" x="1521.578125"/>
    <use xlink:href="#DejaVuSans-6e" x="1549.361328"/>
    <use xlink:href="#DejaVuSans-2d" x="1612.740234"/>
    <use xlink:href="#DejaVuSans-73" x="1648.824219"/>
    <use xlink:href="#DejaVuSans-61" x="1700.923828"/>
    <use xlink:href="#DejaVuSans-6d" x="1762.203125"/>
    <use xlink:href="#DejaVuSans-70" x="1859.615234"/>
    <use xlink:href="#DejaVuSans-6c" x="1923.091797"/>
    <use xlink:href="#DejaVuSans-65" x="1950.875"/>
    <use xlink:href="#DejaVuSans-3b" x="2012.398438"/>
    <use xlink:href="#DejaVuSans-20" x="2046.089844"/>
    <use xlink:href="#DejaVuSans-6e" x="2077.876953"/>
    <use xlink:href="#DejaVuSans-6f" x="2141.255859"/>
    <use xlink:href="#DejaVuSans-20" x="2202.4375"/>
    <use xlink:href="#DejaVuSans-63" x="2234.224609"/>
    <use xlink:href="#DejaVuSans-61" x="2289.205078"/>
    <use xlink:href="#DejaVuSans-75" x="2350.484375"/>
    <use xlink:href="#DejaVuSans-73" x="2413.863281"/>
    <use xlink:href="#DejaVuSans-61" x="2465.962891"/>
    <use xlink:href="#DejaVuSans-6c" x="2527.242188"/>
    <use xlink:href="#DejaVuSans-69" x="2555.025391"/>
    <use xlink:href="#DejaVuSans-64" x="2582.808594"/>
    <use xlink:href="#DejaVuSans-61" x="2646.285156"/>
    <use xlink:href="#DejaVuSans-64" x="2707.564453"/>
    <use xlink:href="#DejaVuSans-2e" x="2771.041016"/>
    <use xlink:href="#DejaVuSans-20" x="2802.828125"/>
    <use xlink:href="#DejaVuSans-51" x="2834.615234"/>
    <use xlink:href="#DejaVuSans-34" x="2913.326172"/>
    <use xlink:href="#DejaVuSans-20" x="2976.949219"/>
    <use xlink:href="#DejaVuSans-65" x="3008.736328"/>
    <use xlink:href="#DejaVuSans-73" x="3070.259766"/>
    <use xlink:href="#DejaVuSans-20" x="3122.359375"/>
    <use xlink:href="#DejaVuSans-74" x="3154.146484"/>
    <use xlink:href="#DejaVuSans-69" x="3193.355469"/>
    <use xlink:href="#DejaVuSans-70" x="3221.138672"/>
    <use xlink:href="#DejaVuSans-6f" x="3284.615234"/>
    <use xlink:href="#DejaVuSans-6c" x="3345.796875"/>
    <use xlink:href="#DejaVuSans-6f" x="3373.580078"/>
    <use xlink:href="#DejaVuSans-67" x="3434.761719"/>
    <use xlink:href="#DejaVuSans-ed" x="3498.238281"/>
    <use xlink:href="#DejaVuSans-61" x="3526.021484"/>
    <use xlink:href="#DejaVuSans-20" x="3587.300781"/>
    <use xlink:href="#DejaVuSans-64" x="3619.087891"/>
    <use xlink:href="#DejaVuSans-65" x="3682.564453"/>
    <use xlink:href="#DejaVuSans-20" x="3744.087891"/>
    <use xlink:href="#DejaVuSans-63" x="3775.875"/>
    <use xlink:href="#DejaVuSans-6c" x="3830.855469"/>
    <use xlink:href="#DejaVuSans-75" x="3858.638672"/>
    <use xlink:href="#DejaVuSans-73" x="3922.017578"/>
    <use xlink:href="#DejaVuSans-74" x="3974.117188"/>
    <use xlink:href="#DejaVuSans-65" x="4013.326172"/>
    <use xlink:href="#DejaVuSans-72" x="4074.849609"/>
    <use xlink:href="#DejaVuSans-2c" x="4115.962891"/>
    <use xlink:href="#DejaVuSans-20" x="4147.75"/>
    <use xlink:href="#DejaVuSans-6e" x="4179.537109"/>
    <use xlink:href="#DejaVuSans-6f" x="4242.916016"/>
    <use xlink:href="#DejaVuSans-20" x="4304.097656"/>
    <use xlink:href="#DejaVuSans-72" x="4335.884766"/>
    <use xlink:href="#DejaVuSans-61" x="4376.998047"/>
    <use xlink:href="#DejaVuSans-6e" x="4438.277344"/>
    <use xlink:href="#DejaVuSans-6b" x="4501.65625"/>
    <use xlink:href="#DejaVuSans-69" x="4559.566406"/>
    <use xlink:href="#DejaVuSans-6e" x="4587.349609"/>
    <use xlink:href="#DejaVuSans-67" x="4650.728516"/>
    <use xlink:href="#DejaVuSans-20" x="4714.205078"/>
    <use xlink:href="#DejaVuSans-6e" x="4745.992188"/>
    <use xlink:href="#DejaVuSans-6f" x="4809.371094"/>
    <use xlink:href="#DejaVuSans-72" x="4870.552734"/>
    <use xlink:href="#DejaVuSans-6d" x="4909.916016"/>
    <use xlink:href="#DejaVuSans-61" x="5007.328125"/>
    <use xlink:href="#DejaVuSans-74" x="5068.607422"/>
    <use xlink:href="#DejaVuSans-69" x="5107.816406"/>
    <use xlink:href="#DejaVuSans-76" x="5135.599609"/>
    <use xlink:href="#DejaVuSans-6f" x="5194.779297"/>
    <use xlink:href="#DejaVuSans-2e" x="5254.210938"/>
   </g>
  </g>
 </g>
 <defs>
  <clipPath id="p312b7707b1">
   <path d="M 446.946484 210.737449 
C 446.946484 188.896506 442.644295 167.26794 434.286128 147.08954 
C 425.927961 126.91114 413.676363 108.575327 398.232484 93.131449 
C 382.788606 77.68757 364.452792 65.435971 344.274393 57.077805 
C 324.095993 48.719638 302.467427 44.417449 280.626484 44.417449 
C 258.785542 44.417449 237.156975 48.719638 216.978576 57.077805 
C 196.800176 65.435971 178.464363 77.68757 163.020485 93.131449 
C 147.576606 108.575327 135.325007 126.91114 126.966841 147.08954 
C 118.608674 167.26794 114.306484 188.896506 114.306484 210.737449 
C 114.306484 232.578391 118.608674 254.206957 126.966841 274.385357 
C 135.325007 294.563757 147.576606 312.89957 163.020485 328.343448 
C 178.464363 343.787327 196.800176 356.038926 216.978576 364.397092 
C 237.156975 372.755259 258.785542 377.057449 280.626484 377.057449 
C 302.467427 377.057449 324.095993 372.755259 344.274393 364.397092 
C 364.452792 356.038926 382.788606 343.787327 398.232484 328.343448 
C 413.676363 312.89957 425.927961 294.563757 434.286128 274.385357 
C 442.644295 254.206957 446.946484 232.578391 446.946484 210.737449 
M 280.626484 210.737449 
C 280.626484 210.737449 280.626484 210.737449 280.626484 210.737449 
C 280.626484 210.737449 280.626484 210.737449 280.626484 210.737449 
C 280.626484 210.737449 280.626484 210.737449 280.626484 210.737449 
C 280.626484 210.737449 280.626484 210.737449 280.626484 210.737449 
C 280.626484 210.737449 280.626484 210.737449 280.626484 210.737449 
C 280.626484 210.737449 280.626484 210.737449 280.626484 210.737449 
C 280.626484 210.737449 280.626484 210.737449 280.626484 210.737449 
C 280.626484 210.737449 280.626484 210.737449 280.626484 210.737449 
C 280.626484 210.737449 280.626484 210.737449 280.626484 210.737449 
C 280.626484 210.737449 280.626484 210.737449 280.626484 210.737449 
C 280.626484 210.737449 280.626484 210.737449 280.626484 210.737449 
C 280.626484 210.737449 280.626484 210.737449 280.626484 210.737449 
C 280.626484 210.737449 280.626484 210.737449 280.626484 210.737449 
C 280.626484 210.737449 280.626484 210.737449 280.626484 210.737449 
C 280.626484 210.737449 280.626484 210.737449 280.626484 210.737449 
C 280.626484 210.737449 280.626484 210.737449 280.626484 210.737449 
M 446.946484 210.737449 
z
"/>
  </clipPath>
 </defs>
</svg>
